<?xml version="1.0" encoding="UTF-8" standalone="no"?>
<!-- Created with Inkscape (http://www.inkscape.org/) -->

<svg
   version="1.1"
   id="svg2"
   xml:space="preserve"
   width="1600"
   height="1600"
   viewBox="0 0 1600 1600"
   sodipodi:docname="relaxing_people_11.eps"
   xmlns:inkscape="http://www.inkscape.org/namespaces/inkscape"
   xmlns:sodipodi="http://sodipodi.sourceforge.net/DTD/sodipodi-0.dtd"
   xmlns="http://www.w3.org/2000/svg"
   xmlns:svg="http://www.w3.org/2000/svg"><defs
     id="defs6"><clipPath
       clipPathUnits="userSpaceOnUse"
       id="clipPath46"><path
         d="m 7510.9,1757.1 c 17.12,5.9 34.22,11.9 51.33,18.1 -17.03,-6.2 -34.15,-12.3 -51.33,-18.1 m -4121.74,888.94 c -27.41,23.67 -54.51,47.65 -81.3,71.94 26.79,-23.98 53.89,-47.96 81.3,-71.94 m -411.14,411.44 c -4.93,5.46 -9.85,10.93 -14.64,16.51 h 0.62 v 0 c 4.64,-5.52 9.32,-11.02 14.02,-16.51 m 6896.25,2028.6 H 7790.31 c -2.73,5.48 -5.45,10.9 -8.2,16.35 h 648.35 c 52.88,54.23 97.15,115.29 134.96,182.18 H 7248.8 c -7.02,40.11 -17.48,77.72 -31.7,112.69 h 1404.28 c 25.2,57.15 47.33,117.88 67.94,182.49 H 7159.3 l -27.64,112.69 h 1590.85 c 15.99,58.13 31.36,119.18 46.43,182.51 H 7086.89 l -14.6,59.52 v 0 53.16 h 1723.39 c 13.83,58.78 27.98,119.83 42.74,182.51 H 7072.29 v 652.02 l 459.41,-7.67 1.12,58.7 h 1951.5 v 0 c -4.61,81.84 -30.43,146.13 -69.79,182.51 H 7910.88 c 183.47,45.39 334.1,101.65 454.86,163.73 v 0 c 278.08,142.94 398.14,316.79 398.03,460.08 -0.04,56.92 -19.04,109.02 -54.64,152.45 -117.45,143.28 -412.55,182.19 -779.71,182.19 -298.5,0 -644.67,-25.74 -981.43,-42.03 l 243.28,311.47 v 0 c -5.96,3.52 -12.95,5.12 -20.81,5.12 -54.2,0 -149.86,-76.32 -233.06,-129.71 28.3,120.36 44.94,257.81 44.93,360.27 -0.01,88.99 -12.57,151.59 -40.95,153.65 -4.06,-1.9 -7.29,-5.69 -9.93,-11.1 -4.09,19.62 -9.53,38.65 -16,56.62 -7.92,21.95 -19.9,39.08 -34.62,51.85 -23.67,20.54 -54.41,29.81 -86.61,29.81 -68.63,0 -143.91,-42.11 -171.72,-107.06 -5.94,-13.87 -10.5,-28.51 -13.8,-43.64 -3.28,0.59 -6.55,0.89 -9.76,0.89 -4.65,0 -9.18,-0.64 -13.47,-1.98 2.44,37.38 -0.69,71.86 -10.31,103.19 134.76,51.81 104.65,156.52 28.69,201.11 -21.79,13.37 -47.64,21.31 -74.52,21.31 -1.94,0 -3.89,-0.04 -5.84,-0.13 8.53,19.27 13.28,39.63 13.29,60.59 0.03,37.98 -15.49,77.9 -52.22,116.64 -17.13,18.37 -39.25,36.44 -66.35,53.88 l -35.19,-42.67 c -20.41,5.89 -39.73,8.62 -58.12,8.62 -85.75,0 -151.13,-59.55 -210.37,-137.26 -10.96,34.09 -27.07,50.13 -45.04,50.13 -33.59,0 -73.7,-56.06 -98.86,-155.09 -1.65,0.07 -3.26,0.1 -4.86,0.1 -85.17,0 -92.5,-95.22 -4.8,-214.67 -3.82,-21.34 -5.18,-43.89 -4.35,-67.62 -4.49,1.56 -9.29,2.3 -14.28,2.3 -33.78,0 -75.64,-33.93 -79.17,-75.19 -4.87,-53.61 41.59,-88.42 84.06,-88.42 9.1,0 18.02,1.6 26.2,4.95 2.5,-52.63 10.29,-96.56 22.12,-133.31 3.7,-11.75 7.82,-22.78 12.31,-33.11 -4.5,10.34 -8.62,21.37 -12.33,33.13 -17.72,-124.07 -43.72,-334.83 -60.16,-470.72 -451.63,-75.49 -798.78,-111.65 -1389.88,-381.15 L 4740.22,7133 c -0.72,0.13 -1.46,0.25 -2.18,0.37 l -157.51,301.5 c -650.6,-188.25 -896.42,-470.42 -891.42,-759.73 v 0 c 3.93,-226.86 162.01,-458.09 400.14,-651.78 -97.58,-388.58 -179.86,-696.18 -399.29,-897.89 -17.78,-16.35 -39.36,-29.2 -63.96,-39.39 H 1927.13 v 0 c -180.44,595.18 -280.2,1222 -280.25,1840.53 -0.04,658.43 112.91,1307.48 361.85,1898.98 545.45,1296.11 1835.11,2082.61 3185.4,2082.61 346.79,0 697.37,-51.8 1040.62,-160.2 653.15,-206.5 1247.43,-575.3 1757.61,-1046.87 -465.75,-170.19 -716.21,-292.07 -715.98,-376.04 0.29,-103.96 384.96,-149.79 1221.19,-157.2 v 0 0 0 c 585.88,-702.67 1012.27,-1546.45 1222.83,-2397.38 108.58,-439.22 167.05,-884.77 167.11,-1324.75 0.01,-120.39 -4.34,-240.36 -13.24,-359.68 v 0 M 4093.66,8904.01 c -330.58,0 -489.1,-193.72 -507.32,-319.3 -1.25,-8.72 -1.56,-16.82 -1.25,-24.61 5.7,-112.59 178.21,-145.66 424.48,-145.66 224.48,0 510.26,27.48 786.82,47.23 233.92,16.83 260.71,177.86 165.7,318.95 -76.63,114.03 -233.07,214.78 -424.13,214.78 -101.71,0 -213.27,-28.58 -327.76,-98.92 -41.01,5.14 -79.82,7.53 -116.54,7.53 m -600.83,577.83 v 0 c 55.01,-7.9 114.88,-13.07 179.62,-16.11 305.94,-14.15 928.77,-17.56 1458.81,-17.56 494.64,0 908.46,2.97 908.46,2.97 522.23,140.77 734.07,384.62 734.07,610.16 0.01,136.8 -77.85,266.8 -211.61,363 -135.68,98 -329.12,161.1 -557.18,161.1 -99.39,0 -205.39,-12 -316,-38.3 -73.06,140.7 -241.77,198 -446.43,198 -447.44,0 -1066.73,-273.9 -1233.98,-548.7 -1073.46,-24.6 -1340.01,-603.63 -515.76,-714.56 v 0 m 1228.3,-4395.76 h -937.4 c 5.34,5.4 10.59,10.84 15.77,16.35 h 889.51 c 10.45,-5.57 21.17,-11.03 32.12,-16.35 m -245.07,198.53 h -542.31 c 20.83,35.99 39.98,73.58 57.78,112.69 h 436.78 c 9.27,-40.45 25.4,-77.95 47.75,-112.69 m -45.69,295.18 h -367.81 c 12.28,36.53 24,74.09 35.36,112.69 h 369.22 c -4.73,-10.76 -9.14,-21.82 -13.26,-33.26 -10.05,-27.35 -17.86,-53.82 -23.51,-79.43 m -131.38,295.2 h -151.05 c 7.34,28.3 14.67,57.12 22.05,86.34 41.23,-29.95 84.32,-58.78 129,-86.34 m 1091.96,70.99 c -83.26,15.46 -163.58,26.54 -239.95,32.27 5.57,2.9 10.74,6.03 15.41,9.42 h 226.66 l -2.12,-41.69 m 11.39,224.2 h -788.69 l -255.12,441.14 c 13.77,34.22 27.61,65.91 41.45,95.29 l 220.88,100.7 v 0 l 144.61,65.92 H 4826 c 0.66,-9.26 1,-18.79 1,-28.56 0,-25.8 20.93,-46.73 46.72,-46.73 25.79,0 46.72,20.93 46.72,46.73 0,2.28 -0.02,4.55 -0.05,6.81 l 73.53,21.75 h 444.16 l -35.74,-703.05 m 2134.56,885.56 h -0.59 l 0.59,30.73 v -30.73 m 7.3,413.06 1.03,53.92 c 137.77,-21.43 248.26,-29.45 356.05,-45.02 l -357.08,-8.9 m -897.6,394.78 c -29.79,2.28 -60.62,4.44 -92.59,6.48 l -19.32,491.69 c 0.01,0.02 0.01,0.03 0.02,0.05 12.77,34.88 21.48,75.99 24.61,124.27 19.03,0.83 37.37,3.82 53.53,9.78 1.79,-7.32 3.78,-14.55 5.97,-21.64 -5.36,-101.1 0.54,-259.35 8.71,-404.16 3.28,-58.14 -2.36,-137.31 19.07,-206.47 m -229.75,352.61 c 45.15,26.17 85.49,67.6 111.89,130.41 -26.36,-62.91 -66.71,-104.37 -111.89,-130.41 m 294.46,114.16 c -2.12,11.08 -4.19,22.55 -6.23,34.23 1.53,-0.65 3.08,-1.28 4.64,-1.88 0.59,-10.93 1.13,-21.74 1.59,-32.35 m 158.66,23.36 c 3.2,18.33 5.98,37.27 8.3,56.34 6.67,6.91 12.72,14.2 18.2,21.82 -6.45,-26 -14.98,-52.36 -26.5,-78.16"
         id="path44" /></clipPath><linearGradient
       x1="0"
       y1="0"
       x2="1"
       y2="0"
       gradientUnits="userSpaceOnUse"
       gradientTransform="matrix(-2.45816,-4179.29,-4179.29,2.45816,5768.5,8411.25)"
       spreadMethod="pad"
       id="linearGradient52"><stop
         style="stop-opacity:1;stop-color:#e7eff5"
         offset="0"
         id="stop48" /><stop
         style="stop-opacity:1;stop-color:#fff8d4"
         offset="1"
         id="stop50" /></linearGradient><clipPath
       clipPathUnits="userSpaceOnUse"
       id="clipPath206"><path
         d="m 6207.87,4881.74 c -11.16,1 -22.23,2.07 -33.16,3.18 11.43,0.13 22.81,0.29 34.22,0.47 -0.36,-1.22 -0.71,-2.43 -1.06,-3.65"
         id="path204" /></clipPath><clipPath
       clipPathUnits="userSpaceOnUse"
       id="clipPath370"><path
         d="M 4580.53,7434.87 C 3139.67,7017.96 3684.16,6140.14 4541.6,5745.16 c 198.53,-104.38 517.45,-319.29 584,-276.44 -2.15,43.64 -134.63,127.44 -225.81,202.46 123.17,-68.04 254.05,-144.91 299.79,-120.69 -11.57,66.93 -143.4,132.11 -249.18,206.35 135.77,-74.47 292.33,-166.3 350.41,-112.91 -25.06,40.01 -151.62,106.64 -260.86,167.41 121.75,-19.42 292.09,-53.02 323.15,-3.89 -38.36,38.51 -257.26,86.82 -385.44,132.37 69.29,8.67 197.85,20.38 214.13,81.76 -189.29,22.56 -369.67,37.37 -494.46,3.9 l -373.76,646.3 529.5,241.38 -272.54,521.71"
         id="path368" /></clipPath><clipPath
       clipPathUnits="userSpaceOnUse"
       id="clipPath384"><path
         d="m 7901.28,7477.7 c -260.48,37.64 -536.81,31.15 -1175.42,276.43 -111.07,72.68 -93.02,221.84 -98.33,315.92 -13.23,234.49 -20.51,504.24 16.36,509.48 32.68,-7.86 47.67,-146.06 67.42,-249.18 -5.49,127.33 -23.32,284.76 14.55,306.28 28.29,5.17 52.46,-158.03 76.69,-275.13 3.34,126.88 -1.19,270.79 39.66,316.65 52.59,-1.11 52.79,-180.94 27.76,-324.44 63.64,142.5 35.92,302.58 71.41,319.25 61.05,-4.43 48.9,-289.02 -3.98,-513.92 95.28,61.14 206.88,152.34 253.87,124.59 l -243.28,-311.47 c 750.99,36.34 1548.2,119.61 1761.14,-140.16 187.88,-229.22 -86.4,-700.16 -1172.23,-846.16 v 482.78 l 364.38,9.08"
         id="path382" /></clipPath></defs><sodipodi:namedview
     id="namedview4"
     pagecolor="#ffffff"
     bordercolor="#666666"
     borderopacity="1.0"
     inkscape:pageshadow="2"
     inkscape:pageopacity="0.0"
     inkscape:pagecheckerboard="0" /><g
     id="g8"
     inkscape:groupmode="layer"
     inkscape:label="ink_ext_XXXXXX"
     transform="matrix(1.3333333,0,0,-1.3333333,0,1600)"><g
       id="g10"
       transform="scale(0.1)"><path
         d="M 0,0 H 12000 V 12000 H 0 Z"
         style="fill:#ffffff;fill-opacity:1;fill-rule:nonzero;stroke:none"
         id="path12" /><path
         d="M 9874.27,5086.08 C 9811.35,4243.25 9522.3,3433.74 8946.4,2745.39 c -12.78,-15.26 -25.54,-30.21 -38.63,-45.16 -12.76,-14.95 -25.85,-29.58 -38.93,-44.22 -11.84,-13.09 -23.68,-26.18 -35.51,-38.94 -9.02,-9.66 -18.06,-19 -27.1,-28.66 -12.45,-13.08 -24.91,-25.85 -37.37,-38.62 -12.45,-12.77 -24.92,-25.53 -37.69,-38 -12.77,-12.45 -25.54,-24.91 -38.31,-37.06 -12.77,-12.15 -25.54,-24.3 -38.62,-36.13 -13.08,-12.15 -25.85,-23.99 -38.94,-35.51 -11.52,-10.28 -23.05,-20.25 -34.25,-30.22 -2.49,-2.18 -4.98,-4.35 -7.49,-6.53 -2.17,-1.88 -4.04,-3.74 -6.22,-5.3 -23.36,-19.94 -46.72,-39.56 -70.4,-58.87 -110.56,-89.7 -225.81,-170.68 -344.79,-243.57 -1.87,-1.24 -3.74,-2.49 -5.61,-3.42 -13.39,-8.1 -26.78,-16.2 -40.17,-23.99 -13.4,-7.78 -26.79,-15.57 -40.19,-23.36 -13.7,-7.78 -27.09,-15.23 -40.8,-22.73 -29.28,-16.2 -58.55,-31.8 -88.14,-46.7 -14.95,-7.8 -30.22,-15.3 -45.16,-22.8 -15.26,-7.4 -30.53,-14.9 -45.79,-22.1 -15.27,-7.1 -30.53,-14 -45.79,-21.2 -30.52,-13.7 -61.36,-27.4 -92.51,-40.1 -15.57,-6.6 -31.14,-12.8 -46.72,-19 -15.57,-6.3 -31.14,-12.5 -46.72,-18.4 -13.39,-5.3 -26.79,-10.3 -40.18,-15.3 -4.05,-1.5 -8.09,-2.8 -12.14,-4.3 -45.79,-16.5 -91.58,-32.1 -137.67,-46.8 -18.07,-5.6 -36.44,-11.2 -54.5,-16.8 -18.38,-5.6 -36.45,-10.6 -54.83,-15.9 -20.24,-5.6 -40.49,-11.2 -60.74,-16.5 l -1.55,-0.3 c -20.56,-5.3 -41.43,-10.6 -62.3,-15.9 -38.3,-9 -76.93,-17.7 -115.54,-25.8 -24.3,-5 -48.91,-10 -73.52,-14.3 -20.86,-4.1 -41.74,-7.8 -62.61,-11.3 h -0.93 c -21.49,-3.7 -42.67,-7.1 -63.85,-10.2 -21.18,-3.1 -42.67,-6.3 -63.85,-9.1 -18.06,-2.5 -36.13,-4.6 -54.2,-6.8 -7.47,-0.9 -14.64,-1.9 -21.79,-2.5 -17.76,-2.2 -35.2,-3.7 -52.65,-5.6 -21.17,-2.2 -42.67,-4.1 -63.85,-5.9 -21.79,-1.6 -43.6,-3.1 -65.4,-4.7 -18.07,-1.3 -36.13,-2.2 -54.2,-3.1 -25.23,-1.3 -50.15,-2.5 -75.38,-3.1 -21.48,-1 -43.29,-1.3 -64.79,-1.6 -21.8,-0.3 -43.6,-0.6 -65.09,-0.6 -22.11,0 -44.22,0.3 -66.03,0.6 -36.75,0.6 -73.2,1.6 -109.64,3.1 -15.89,0.6 -32.08,1.6 -47.97,2.5 -25.53,1.3 -51.08,2.8 -76.61,4.7 -11.84,0.9 -23.67,1.9 -35.51,2.8 -18.69,1.5 -37.07,3.1 -55.76,5 -18.68,1.5 -37.37,3.4 -56.06,5.6 -139.54,14.9 -278.46,36.7 -416.43,65.1 -16.2,3.1 -32.4,6.5 -48.6,10.3 -25.22,5.6 -50.45,11.2 -75.68,17.1 -21.18,5 -42.36,9.9 -63.54,15.6 -38.63,9.6 -77.56,19.6 -115.87,30.5 -16.82,4.6 -33.33,9.3 -49.83,14.3 -10.91,3.1 -21.49,6.2 -32.09,9.4 -20.55,5.9 -41.11,12.4 -61.66,18.9 -21.5,6.6 -42.68,13.4 -63.85,20.6 -10.29,3.4 -20.57,6.9 -30.53,10.3 -23.67,7.8 -47.03,15.9 -70.39,24.3 -63.23,22.4 -125.84,46.4 -187.81,71.6 -13.4,5.3 -26.8,10.9 -39.88,16.5 -52.63,21.8 -104.66,44.6 -156.04,68.6 -14.33,6.5 -28.66,13.3 -42.99,19.9 -71.63,33.93 -142.02,69.76 -211.49,107.13 -31.14,16.83 -62.29,33.95 -92.81,51.39 -117.12,66.66 -230.8,138.61 -340.76,215.23 -11.83,8.1 -23.35,16.2 -34.87,24.29 -38,27.1 -75.38,54.51 -112.13,82.54 -40.19,30.53 -79.74,61.98 -118.67,93.76 -16.2,13.08 -32.08,26.16 -47.66,39.56 -14.33,12.14 -28.65,24.29 -42.67,36.44 -27.41,23.98 -54.51,47.96 -81.3,71.94 -14.94,14.02 -29.58,27.41 -43.91,41.12 -10.28,9.65 -20.55,19.31 -30.52,28.97 -7.48,7.15 -14.95,14.32 -22.12,21.18 -22.11,21.79 -43.92,43.6 -65.41,65.41 -26.78,27.4 -53.26,55.44 -79.42,83.47 -14.33,15.26 -28.35,30.84 -42.05,46.4 -20.56,23.06 -40.8,46.11 -60.43,69.46 -18.68,21.49 -36.75,42.98 -54.5,64.79 -17.76,21.8 -35.51,43.92 -52.65,66.03 -12.45,15.57 -24.59,31.46 -36.43,47.65 -1.56,1.88 -2.8,3.44 -4.05,5.3 -9.66,12.46 -19,25.23 -28.04,38 -18.99,25.54 -37.68,51.7 -55.75,77.86 -22.11,32.4 -44.22,65.1 -65.4,98.12 -2.18,3.74 -4.68,7.17 -6.86,10.9 -12.45,19 -24.29,38.32 -36.44,57.62 -9.03,14.64 -18.06,29.28 -27.09,43.92 -12.47,19.93 -24.61,39.87 -36.45,60.12 -14.64,24.29 -28.96,48.89 -43.3,73.81 -12.76,22.11 -25.54,44.23 -37.99,66.66 -10.91,18.69 -21.19,37.68 -31.46,56.69 -2.18,3.74 -4.36,7.47 -6.23,11.52 -14.33,26.16 -28.35,52.32 -42.05,78.48 -5.29,9.97 -10.59,19.95 -15.57,29.91 -10.59,19.63 -20.87,39.56 -30.53,59.49 -7.47,14.02 -14.32,28.04 -21.17,42.36 -9.97,19 -19.32,38.31 -28.66,57.93 -5.61,11.21 -10.9,22.75 -16.2,34.26 -12.46,25.24 -24.29,50.78 -35.82,76.32 -3.11,5.92 -5.92,12.14 -8.72,18.37 -9.96,22.12 -19.93,44.23 -29.9,66.35 -7.16,16.19 -14.33,32.69 -21.49,48.89 -20.24,46.72 -39.87,94.06 -59.18,141.41 -8.72,21.18 -17.13,42.05 -25.54,63.54 -2.49,6.55 -4.99,13.08 -7.47,19.62 -11.53,28.66 -22.43,57.94 -33.33,86.9 -12.77,33.64 -24.92,67.28 -37.06,101.23 -12.16,33.95 -23.99,67.9 -35.51,101.85 -23.06,68.22 -45.17,137.05 -66.03,206.19 h 7947.14"
         style="fill:#b4bfaf;fill-opacity:1;fill-rule:nonzero;stroke:none"
         id="path14" /><path
         d="m 6039.72,9451.14 c 0,0 -1775.83,-12.76 -2367.27,14.59 -64.74,3.04 -124.61,8.21 -179.62,16.11 -824.25,110.93 -557.7,689.96 515.76,714.56 243.75,400.5 1447.61,799 1680.41,350.7 364.41,86.6 678.36,17.9 873.18,-122.8 354.38,-255 316.38,-747.04 -522.46,-973.16"
         style="fill:#ffc5c8;fill-opacity:1;fill-rule:nonzero;stroke:none"
         id="path16" /><path
         d="m 9801.38,9349.17 c -89.39,-102.48 -308.04,-177.55 -650.03,-180.65 -242.64,-2.18 -460.36,-2.49 -653.78,-0.63 -1511.56,13.39 -1547.69,152.31 -505.21,533.24 15.89,5.91 31.78,11.83 48.28,17.75 4.98,9.34 10.59,19.31 17.13,28.97 188.44,291.55 989.54,708.55 1291.05,85.34 438.23,-126.46 583.38,-334.52 452.56,-484.02"
         style="fill:#ffc5c8;fill-opacity:1;fill-rule:nonzero;stroke:none"
         id="path18" /><path
         d="m 4796.39,8461.67 c -579.95,-41.42 -1200.4,-116.8 -1211.3,98.43 -0.31,7.79 0,15.89 1.25,24.61 20.24,139.53 213.66,363.17 623.86,311.77 329.54,202.46 634.47,58.87 751.89,-115.86 95.01,-141.09 68.22,-302.12 -165.7,-318.95"
         style="fill:#ffffff;fill-opacity:1;fill-rule:nonzero;stroke:none"
         id="path20" /><path
         d="m 8806.23,2588.41 c -12.45,-13.08 -24.91,-25.85 -37.37,-38.62 -12.45,-12.77 -24.92,-25.53 -37.69,-38 -12.77,-12.45 -25.54,-24.91 -38.31,-37.06 -12.77,-12.15 -25.54,-24.3 -38.62,-36.13 -13.08,-12.15 -25.85,-23.99 -38.94,-35.51 -11.52,-10.28 -23.05,-20.25 -34.25,-30.22 -2.49,-2.18 -4.98,-4.35 -7.49,-6.53 -2.17,-1.88 -4.04,-3.74 -6.22,-5.3 -23.36,-19.94 -46.72,-39.56 -70.4,-58.87 -110.56,-89.7 -225.81,-170.68 -344.79,-243.57 -1.87,-1.24 -3.74,-2.49 -5.61,-3.42 -13.39,-8.1 -26.78,-16.2 -40.17,-23.99 -13.4,-7.78 -26.79,-15.57 -40.19,-23.36 -13.7,-7.78 -27.09,-15.23 -40.8,-22.73 -29.28,-16.2 -58.55,-31.8 -88.14,-46.7 -14.95,-7.8 -30.22,-15.3 -45.16,-22.8 -15.26,-7.4 -30.53,-14.9 -45.79,-22.1 -15.27,-7.1 -30.53,-14 -45.79,-21.2 -30.52,-13.7 -61.36,-27.4 -92.51,-40.1 -15.57,-6.6 -31.14,-12.8 -46.72,-19 -15.57,-6.3 -31.14,-12.5 -46.72,-18.4 -13.39,-5.3 -26.79,-10.3 -40.18,-15.3 -4.05,-1.5 -8.09,-2.8 -12.14,-4.3 -45.79,-16.5 -91.58,-32.1 -137.67,-46.8 -271.29,148 -529.49,318.68 -769.64,510.23 -387.17,308.67 -796.12,482.78 -1264.57,605.81 -165.7,43.61 -185.95,139.85 -319.26,223.32 -159.46,99.98 -363.79,174.74 -541.02,155.42 -224.88,-24.6 -448.2,-47.34 -680.86,-89.69 -135.19,-24.93 -251.68,-7.48 -386.55,-6.55 -59.27,0.5 -127.15,-17.17 -196.77,-34.84 -104.5,-26.53 -212.9,-53.06 -301.89,-18.11 h -0.62 c -11.21,4.67 -22.11,9.98 -32.7,16.51 -99.36,61.05 -207.13,261.94 -270.36,392.14 -9.65,19.63 -18.07,37.69 -25.23,53.26 432.94,80.67 814.49,319.26 1239.66,425.78 217.09,54.2 430.13,70.7 651.9,83.16 199.64,11.53 412.69,89.71 609.86,27.73 123.96,-38.62 250.73,-79.74 370.64,-124.28 171.62,-64.17 411.14,-93.45 556.29,-214.3 122.41,-101.84 141.72,-151.99 292.78,-173.17 104.02,-14.33 186.88,-34.88 287.79,-61.36 200.28,-52.02 380.93,-100.3 584.63,-140.16 231.74,-45.17 388.71,-251.98 582.77,-367.53 250.1,-148.89 544.13,-259.14 818.84,-352.9 58.25,-19.93 116.81,-36.44 175.98,-50.46"
         style="fill:#fff4bd;fill-opacity:1;fill-rule:nonzero;stroke:none"
         id="path22" /><path
         d="m 6039.72,9451.14 c 0,0 -1775.83,-12.76 -2367.27,14.59 -64.74,3.04 -124.61,8.21 -179.62,16.11 495.7,241.92 1003.87,456.49 1517.81,606.96 450.11,131.9 1003.26,284.1 1551.54,335.5 354.38,-255 316.38,-747.04 -522.46,-973.16"
         style="fill:#ffffff;fill-opacity:1;fill-rule:nonzero;stroke:none"
         id="path24" /><path
         d="m 7664.09,2378.68 c -49.76,58.85 -153.42,83.14 -225.83,91.19 -123.61,13.75 -298.38,-36.59 -357.67,-158.16 -61.53,-126.12 18.96,-214.76 142.84,-232.99 104.09,-15.32 231.64,2.57 328.62,42.31 53.82,22.05 109.48,54.92 141.87,104.82 27.46,42.33 20,82.3 -29.83,152.83"
         style="fill:#dae6ef;fill-opacity:1;fill-rule:nonzero;stroke:none"
         id="path26" /><path
         d="m 7998.3,2503.2 c 54.98,39.67 52.04,130.77 -18.74,155.52 -60.31,21.09 -179.77,0.24 -234.56,-28.89 -95.1,-50.55 -71.62,-139.32 28.7,-162.74 69.89,-16.31 165.19,-6.77 224.6,36.11"
         style="fill:#dae6ef;fill-opacity:1;fill-rule:nonzero;stroke:none"
         id="path28" /><path
         d="m 9801.38,9349.17 c -89.39,-102.48 -308.04,-177.55 -650.03,-180.65 -242.64,-2.18 -460.36,-2.49 -653.78,-0.63 -1511.56,13.39 -1547.69,152.31 -505.21,533.24 15.89,5.91 31.78,11.83 48.28,17.75 4.98,9.34 10.59,19.31 17.13,28.97 498.35,-28.34 991.72,-148.57 1468.59,-301.82 92.5,-29.9 184.7,-61.04 275.02,-96.86"
         style="fill:#fff4bd;fill-opacity:1;fill-rule:nonzero;stroke:none"
         id="path30" /><path
         d="m 7305.9,2806.94 c -115.1,31.46 -338.62,-28.23 -279.11,-195.04 40.59,-113.83 186.47,-104.99 277.35,-77.64 99.64,29.98 282.99,147.32 1.76,272.68"
         style="fill:#dae6ef;fill-opacity:1;fill-rule:nonzero;stroke:none"
         id="path32" /><path
         d="m 8152.15,2058.6 h -0.31 c -33.64,5.61 -61.36,17.45 -79.12,35.51 -134.55,138.92 -14.95,249.48 106.84,297.77 74.76,29.59 316.77,67.9 394,-25.54 10.29,-11.84 17.76,-25.86 21.5,-42.37 42.67,-180.02 -274.41,-295.58 -442.91,-265.37"
         style="fill:#dae6ef;fill-opacity:1;fill-rule:nonzero;stroke:none"
         id="path34" /><path
         d="m 8471.72,10563.9 c -52.01,-61.4 -166.02,-107.1 -346.98,-95.9 -123.65,7.8 -495.55,-7.8 -495.55,-7.8 -297.44,-53.9 -437.61,92.2 -379.37,201.5 35.82,67 146.08,120.2 340.13,105.3 213.35,367.5 676.52,385.3 605.5,47 266.92,20.3 369.39,-140.2 276.27,-250.1"
         style="fill:#ffc5c8;fill-opacity:1;fill-rule:nonzero;stroke:none"
         id="path36" /><path
         d="m 7507.87,10448.6 c -175.94,0 -271.03,81.7 -271.01,162.6 0.01,17.1 4.29,34.2 12.96,50.5 31.71,59.3 121.75,107.8 276.56,107.8 20.1,0 41.27,-0.8 63.57,-2.5 111.56,192.2 291.46,288.7 427.54,288.7 105.98,0 185.37,-58.5 185.29,-176 -0.01,-20.1 -2.37,-42.1 -7.33,-65.7 v 0 0 c 15.52,1.2 30.53,1.8 44.94,1.8 173.14,0 265.01,-81.7 265.02,-166.2 0,-29.3 -11.08,-59 -33.69,-85.7 -46.7,-55.1 -143.39,-97.6 -293.62,-97.6 -17.1,0 -34.87,0.5 -53.36,1.7 -24.73,1.5 -59.38,2.1 -99,2.1 -158.51,0 -396.55,-9.9 -396.55,-9.9 -43.9,-8 -84.4,-11.6 -121.32,-11.6"
         style="fill:#ffd9db;fill-opacity:1;fill-rule:nonzero;stroke:none"
         id="path38" /><g
         id="g40"><g
           id="g42"
           clip-path="url(#clipPath46)"><path
             d="m 7510.9,1757.1 c 17.12,5.9 34.22,11.9 51.33,18.1 -17.03,-6.2 -34.15,-12.3 -51.33,-18.1 m -4121.74,888.94 c -27.41,23.67 -54.51,47.65 -81.3,71.94 26.79,-23.98 53.89,-47.96 81.3,-71.94 m -411.14,411.44 c -4.93,5.46 -9.85,10.93 -14.64,16.51 h 0.62 v 0 c 4.64,-5.52 9.32,-11.02 14.02,-16.51 m 6896.25,2028.6 H 7790.31 c -2.73,5.48 -5.45,10.9 -8.2,16.35 h 648.35 c 52.88,54.23 97.15,115.29 134.96,182.18 H 7248.8 c -7.02,40.11 -17.48,77.72 -31.7,112.69 h 1404.28 c 25.2,57.15 47.33,117.88 67.94,182.49 H 7159.3 l -27.64,112.69 h 1590.85 c 15.99,58.13 31.36,119.18 46.43,182.51 H 7086.89 l -14.6,59.52 v 0 53.16 h 1723.39 c 13.83,58.78 27.98,119.83 42.74,182.51 H 7072.29 v 652.02 l 459.41,-7.67 1.12,58.7 h 1951.5 v 0 c -4.61,81.84 -30.43,146.13 -69.79,182.51 H 7910.88 c 183.47,45.39 334.1,101.65 454.86,163.73 v 0 c 278.08,142.94 398.14,316.79 398.03,460.08 -0.04,56.92 -19.04,109.02 -54.64,152.45 -117.45,143.28 -412.55,182.19 -779.71,182.19 -298.5,0 -644.67,-25.74 -981.43,-42.03 l 243.28,311.47 v 0 c -5.96,3.52 -12.95,5.12 -20.81,5.12 -54.2,0 -149.86,-76.32 -233.06,-129.71 28.3,120.36 44.94,257.81 44.93,360.27 -0.01,88.99 -12.57,151.59 -40.95,153.65 -4.06,-1.9 -7.29,-5.69 -9.93,-11.1 -4.09,19.62 -9.53,38.65 -16,56.62 -7.92,21.95 -19.9,39.08 -34.62,51.85 -23.67,20.54 -54.41,29.81 -86.61,29.81 -68.63,0 -143.91,-42.11 -171.72,-107.06 -5.94,-13.87 -10.5,-28.51 -13.8,-43.64 -3.28,0.59 -6.55,0.89 -9.76,0.89 -4.65,0 -9.18,-0.64 -13.47,-1.98 2.44,37.38 -0.69,71.86 -10.31,103.19 134.76,51.81 104.65,156.52 28.69,201.11 -21.79,13.37 -47.64,21.31 -74.52,21.31 -1.94,0 -3.89,-0.04 -5.84,-0.13 8.53,19.27 13.28,39.63 13.29,60.59 0.03,37.98 -15.49,77.9 -52.22,116.64 -17.13,18.37 -39.25,36.44 -66.35,53.88 l -35.19,-42.67 c -20.41,5.89 -39.73,8.62 -58.12,8.62 -85.75,0 -151.13,-59.55 -210.37,-137.26 -10.96,34.09 -27.07,50.13 -45.04,50.13 -33.59,0 -73.7,-56.06 -98.86,-155.09 -1.65,0.07 -3.26,0.1 -4.86,0.1 -85.17,0 -92.5,-95.22 -4.8,-214.67 -3.82,-21.34 -5.18,-43.89 -4.35,-67.62 -4.49,1.56 -9.29,2.3 -14.28,2.3 -33.78,0 -75.64,-33.93 -79.17,-75.19 -4.87,-53.61 41.59,-88.42 84.06,-88.42 9.1,0 18.02,1.6 26.2,4.95 2.5,-52.63 10.29,-96.56 22.12,-133.31 3.7,-11.75 7.82,-22.78 12.31,-33.11 -4.5,10.34 -8.62,21.37 -12.33,33.13 -17.72,-124.07 -43.72,-334.83 -60.16,-470.72 -451.63,-75.49 -798.78,-111.65 -1389.88,-381.15 L 4740.22,7133 c -0.72,0.13 -1.46,0.25 -2.18,0.37 l -157.51,301.5 c -650.6,-188.25 -896.42,-470.42 -891.42,-759.73 v 0 c 3.93,-226.86 162.01,-458.09 400.14,-651.78 -97.58,-388.58 -179.86,-696.18 -399.29,-897.89 -17.78,-16.35 -39.36,-29.2 -63.96,-39.39 H 1927.13 v 0 c -180.44,595.18 -280.2,1222 -280.25,1840.53 -0.04,658.43 112.91,1307.48 361.85,1898.98 545.45,1296.11 1835.11,2082.61 3185.4,2082.61 346.79,0 697.37,-51.8 1040.62,-160.2 653.15,-206.5 1247.43,-575.3 1757.61,-1046.87 -465.75,-170.19 -716.21,-292.07 -715.98,-376.04 0.29,-103.96 384.96,-149.79 1221.19,-157.2 v 0 0 0 c 585.88,-702.67 1012.27,-1546.45 1222.83,-2397.38 108.58,-439.22 167.05,-884.77 167.11,-1324.75 0.01,-120.39 -4.34,-240.36 -13.24,-359.68 v 0 M 4093.66,8904.01 c -330.58,0 -489.1,-193.72 -507.32,-319.3 -1.25,-8.72 -1.56,-16.82 -1.25,-24.61 5.7,-112.59 178.21,-145.66 424.48,-145.66 224.48,0 510.26,27.48 786.82,47.23 233.92,16.83 260.71,177.86 165.7,318.95 -76.63,114.03 -233.07,214.78 -424.13,214.78 -101.71,0 -213.27,-28.58 -327.76,-98.92 -41.01,5.14 -79.82,7.53 -116.54,7.53 m -600.83,577.83 v 0 c 55.01,-7.9 114.88,-13.07 179.62,-16.11 305.94,-14.15 928.77,-17.56 1458.81,-17.56 494.64,0 908.46,2.97 908.46,2.97 522.23,140.77 734.07,384.62 734.07,610.16 0.01,136.8 -77.85,266.8 -211.61,363 -135.68,98 -329.12,161.1 -557.18,161.1 -99.39,0 -205.39,-12 -316,-38.3 -73.06,140.7 -241.77,198 -446.43,198 -447.44,0 -1066.73,-273.9 -1233.98,-548.7 -1073.46,-24.6 -1340.01,-603.63 -515.76,-714.56 v 0 m 1228.3,-4395.76 h -937.4 c 5.34,5.4 10.59,10.84 15.77,16.35 h 889.51 c 10.45,-5.57 21.17,-11.03 32.12,-16.35 m -245.07,198.53 h -542.31 c 20.83,35.99 39.98,73.58 57.78,112.69 h 436.78 c 9.27,-40.45 25.4,-77.95 47.75,-112.69 m -45.69,295.18 h -367.81 c 12.28,36.53 24,74.09 35.36,112.69 h 369.22 c -4.73,-10.76 -9.14,-21.82 -13.26,-33.26 -10.05,-27.35 -17.86,-53.82 -23.51,-79.43 m -131.38,295.2 h -151.05 c 7.34,28.3 14.67,57.12 22.05,86.34 41.23,-29.95 84.32,-58.78 129,-86.34 m 1091.96,70.99 c -83.26,15.46 -163.58,26.54 -239.95,32.27 5.57,2.9 10.74,6.03 15.41,9.42 h 226.66 l -2.12,-41.69 m 11.39,224.2 h -788.69 l -255.12,441.14 c 13.77,34.22 27.61,65.91 41.45,95.29 l 220.88,100.7 v 0 l 144.61,65.92 H 4826 c 0.66,-9.26 1,-18.79 1,-28.56 0,-25.8 20.93,-46.73 46.72,-46.73 25.79,0 46.72,20.93 46.72,46.73 0,2.28 -0.02,4.55 -0.05,6.81 l 73.53,21.75 h 444.16 l -35.74,-703.05 m 2134.56,885.56 h -0.59 l 0.59,30.73 v -30.73 m 7.3,413.06 1.03,53.92 c 137.77,-21.43 248.26,-29.45 356.05,-45.02 l -357.08,-8.9 m -897.6,394.78 c -29.79,2.28 -60.62,4.44 -92.59,6.48 l -19.32,491.69 c 0.01,0.02 0.01,0.03 0.02,0.05 12.77,34.88 21.48,75.99 24.61,124.27 19.03,0.83 37.37,3.82 53.53,9.78 1.79,-7.32 3.78,-14.55 5.97,-21.64 -5.36,-101.1 0.54,-259.35 8.71,-404.16 3.28,-58.14 -2.36,-137.31 19.07,-206.47 m -229.75,352.61 c 45.15,26.17 85.49,67.6 111.89,130.41 -26.36,-62.91 -66.71,-104.37 -111.89,-130.41 m 294.46,114.16 c -2.12,11.08 -4.19,22.55 -6.23,34.23 1.53,-0.65 3.08,-1.28 4.64,-1.88 0.59,-10.93 1.13,-21.74 1.59,-32.35 m 158.66,23.36 c 3.2,18.33 5.98,37.27 8.3,56.34 6.67,6.91 12.72,14.2 18.2,21.82 -6.45,-26 -14.98,-52.36 -26.5,-78.16"
             style="fill:url(#linearGradient52);fill-opacity:1;fill-rule:nonzero;stroke:none"
             id="path54" /></g></g><path
         d="m 6292.99,1558.4 c -22.11,0 -44.22,0.3 -66.03,0.6 -36.75,0.6 -73.2,1.6 -109.64,3.1 -15.89,0.6 -32.08,1.6 -47.97,2.5 -25.53,1.3 -51.08,2.8 -76.61,4.7 -11.84,0.9 -23.67,1.9 -35.51,2.8 -18.69,1.5 -37.07,3.1 -55.76,5 -18.68,1.5 -37.37,3.4 -56.06,5.6 -139.54,14.9 -278.46,36.7 -416.43,65.1 -16.2,3.1 -32.4,6.5 -48.6,10.3 -25.22,5.6 -50.45,11.2 -75.68,17.1 -21.18,5 -42.36,9.9 -63.54,15.6 -38.63,9.6 -77.56,19.6 -115.87,30.5 -16.82,4.6 -33.33,9.3 -49.83,14.3 -10.91,3.1 -21.49,6.2 -32.09,9.4 -20.55,5.9 -41.11,12.4 -61.66,18.9 -21.5,6.6 -42.68,13.4 -63.85,20.6 -10.29,3.4 -20.57,6.9 -30.53,10.3 -23.67,7.8 -47.03,15.9 -70.39,24.3 -63.23,22.4 -125.84,46.4 -187.81,71.6 -13.4,5.3 -26.8,10.9 -39.88,16.5 -52.63,21.8 -104.66,44.6 -156.04,68.6 -14.33,6.5 -28.66,13.3 -42.99,19.9 -71.63,33.93 -142.02,69.76 -211.49,107.13 -31.14,16.83 -62.29,33.95 -92.81,51.39 -117.12,66.66 -230.8,138.61 -340.76,215.23 -11.83,8.1 -23.35,16.2 -34.87,24.29 -38,27.1 -75.38,54.51 -112.13,82.54 -40.19,30.53 -79.74,61.98 -118.67,93.76 -16.2,13.08 -32.08,26.16 -47.66,39.56 -14.33,12.14 -28.65,24.29 -42.67,36.44 v 0 c -27.41,23.98 -54.51,47.96 -81.3,71.94 v 0 c -14.94,14.02 -29.58,27.41 -43.91,41.12 -10.28,9.65 -20.55,19.31 -30.52,28.97 -7.48,7.15 -14.95,14.32 -22.12,21.18 -22.11,21.79 -43.92,43.6 -65.41,65.41 -26.78,27.4 -53.26,55.44 -79.42,83.47 -14.33,15.26 -28.35,30.84 -42.05,46.4 v 0 c -11.28,12.65 -22.11,25.41 -33.15,38.11 -4.36,4.99 -8.81,9.91 -13.26,14.84 v 0 c -4.7,5.49 -9.38,10.99 -14.02,16.51 30.54,-11.99 63.35,-16.75 97.52,-16.75 65.4,0.01 135.73,17.43 204.37,34.86 68.65,17.43 135.61,34.85 194.3,34.85 0.82,0 1.65,0 2.47,-0.01 79.28,-0.55 152.21,-6.8 226.31,-6.8 51.97,0 104.52,3.07 160.24,13.35 232.66,42.35 455.98,65.09 680.86,89.69 18.94,2.07 38.18,3.06 57.65,3.06 162.73,0 340.95,-69.18 483.37,-158.48 133.31,-83.47 153.56,-179.71 319.26,-223.32 165.24,-43.39 323.1,-93.16 475.18,-152.93 -15.99,-55.54 7.99,-89.67 79.41,-89.67 26.06,0 58.45,4.55 97.5,14.26 213.09,-98.34 415.61,-220.51 612.48,-377.47 240.15,-191.55 498.35,-362.23 769.64,-510.23 -18.07,-5.6 -36.44,-11.2 -54.5,-16.8 -18.38,-5.6 -36.45,-10.6 -54.83,-15.9 -20.24,-5.6 -40.49,-11.2 -60.74,-16.5 l -1.55,-0.3 c -20.56,-5.3 -41.43,-10.6 -62.3,-15.9 -38.3,-9 -76.93,-17.7 -115.54,-25.8 -24.3,-5 -48.91,-10 -73.52,-14.3 -20.86,-4.1 -41.74,-7.8 -62.61,-11.3 h -0.93 c -21.49,-3.7 -42.67,-7.1 -63.85,-10.2 -21.18,-3.1 -42.67,-6.3 -63.85,-9.1 -18.06,-2.5 -36.13,-4.6 -54.2,-6.8 -7.47,-0.9 -14.64,-1.9 -21.79,-2.5 -17.76,-2.2 -35.2,-3.7 -52.65,-5.6 -21.17,-2.2 -42.67,-4.1 -63.85,-5.9 -21.79,-1.6 -43.6,-3.1 -65.4,-4.7 -18.07,-1.3 -36.13,-2.2 -54.2,-3.1 -25.23,-1.3 -50.15,-2.5 -75.38,-3.1 -21.48,-1 -43.29,-1.3 -64.79,-1.6 -21.8,-0.3 -43.6,-0.6 -65.09,-0.6 m 2513.24,1030.01 c -59.17,14.02 -117.73,30.53 -175.98,50.46 -274.71,93.76 -568.74,204.01 -818.84,352.9 -194.06,115.55 -351.03,322.36 -582.77,367.53 -198.03,38.75 -374.26,85.46 -567.94,135.82 176.13,332.86 350.62,689.9 465.48,1016.94 h 518.22 c 125.23,-138.97 235.88,-248.67 305.07,-248.67 4.78,0 9.39,0.53 13.76,1.6 62.86,71.13 61.32,192.08 24.72,334.4 16.09,20.49 30.28,43.65 41.93,69.52 v 25.33 h -70.24 c -30.31,90.39 -71.05,186.34 -115.79,281.59 35.2,6.49 71.8,10.61 108.88,13.59 h -115.29 c -15.36,32.4 -31.16,64.73 -47.13,96.66 H 9874.27 C 9811.35,4243.25 9522.3,3433.74 8946.4,2745.39 c -12.78,-15.26 -25.54,-30.21 -38.63,-45.16 -12.76,-14.95 -25.85,-29.58 -38.93,-44.22 -11.84,-13.09 -23.68,-26.18 -35.51,-38.94 -9.02,-9.66 -18.06,-19 -27.1,-28.66 v 0 m -6145.91,894.23 c -12.45,19 -24.29,38.32 -36.44,57.62 -9.03,14.64 -18.06,29.28 -27.09,43.92 -12.47,19.93 -24.61,39.87 -36.45,60.12 -14.64,24.29 -28.96,48.89 -43.3,73.81 -12.76,22.11 -25.54,44.23 -37.99,66.66 -10.91,18.69 -21.19,37.68 -31.46,56.69 -2.18,3.74 -4.36,7.47 -6.23,11.52 -14.33,26.16 -28.35,52.32 -42.05,78.48 -5.29,9.97 -10.59,19.95 -15.57,29.91 -10.59,19.63 -20.87,39.56 -30.53,59.49 -7.47,14.02 -14.32,28.04 -21.17,42.36 -9.97,19 -19.32,38.31 -28.66,57.93 -5.61,11.21 -10.9,22.75 -16.2,34.26 -12.46,25.24 -24.29,50.78 -35.82,76.32 -3.11,5.92 -5.92,12.14 -8.72,18.37 -9.96,22.12 -19.93,44.23 -29.9,66.35 -7.16,16.19 -14.33,32.69 -21.49,48.89 -20.24,46.72 -39.87,94.06 -59.18,141.41 -8.72,21.18 -17.13,42.05 -25.54,63.54 -2.49,6.55 -4.99,13.08 -7.47,19.62 -11.53,28.66 -22.43,57.94 -33.33,86.9 -12.77,33.64 -24.92,67.28 -37.06,101.23 -12.16,33.95 -23.99,67.9 -35.51,101.85 -23.06,68.22 -45.17,137.05 -66.03,206.19 v 0 H 3626 c -78.59,-32.56 -187.94,-37.95 -302.08,-43.56 -243.4,-12.01 -519.25,-25.61 -589.45,-319.46 -30.08,-125.96 24.82,-230.57 143.32,-272.93 35.01,-12.54 73.7,-18.9 113.73,-18.9 81.45,0 168.26,26.36 239.71,80.83 h 2887.9 c -47.62,-239.72 -81.83,-494.8 -104.83,-742.58 -146.02,91.95 -353.72,121.44 -507.15,178.81 -119.91,44.54 -246.68,85.66 -370.64,124.28 -54.87,17.25 -110.93,23.64 -167.62,23.64 -147.04,0 -298.15,-43.05 -442.24,-51.37 -221.77,-12.46 -434.81,-28.96 -651.9,-83.16 -425.17,-106.52 -806.72,-345.11 -1239.66,-425.78 7.16,-15.57 15.58,-33.63 25.23,-53.26 m 4822.72,1211.6 h -298.42 c 11.01,38.3 20.98,76 29.78,113 h 166.1 c 34.11,-36.49 68.43,-74.6 102.54,-113 m -1324.32,0 H 3339.85 c -4.47,6.95 -10.84,12.8 -18.82,16.68 -6.6,3.23 -13.58,4.76 -20.45,4.76 -15.55,0 -30.53,-7.83 -39.27,-21.44 h -437.54 c 0.48,2.33 1.01,4.7 1.58,7.1 10.14,42.41 26.08,77.24 46.81,105.9 h 3315.01 c -9.87,-37 -19.35,-74.71 -28.45,-113 M 4994.71,4989.42 H 3634.39 c 45.01,15.04 85.26,36.38 118.83,67.25 10.46,9.61 20.62,19.42 30.51,29.41 h 937.4 c 79.32,-38.52 171.51,-70.44 273.58,-96.66"
         style="fill:#ced5cb;fill-opacity:1;fill-rule:nonzero;stroke:none"
         id="path56" /><path
         d="m 3492.83,9481.84 v 0 c -824.25,110.93 -557.7,689.96 515.76,714.56 167.25,274.8 786.54,548.7 1233.98,548.7 204.66,0 373.37,-57.3 446.43,-198 110.61,26.3 216.61,38.3 316,38.3 228.06,0 421.5,-63.1 557.18,-161.1 133.76,-96.2 211.62,-226.2 211.61,-363 0.01,136.8 -77.85,266.8 -211.61,363 -548.28,-51.4 -1101.43,-203.6 -1551.54,-335.5 C 4496.7,9938.33 3988.53,9723.76 3492.83,9481.84"
         style="fill:#ffd9db;fill-opacity:1;fill-rule:nonzero;stroke:none"
         id="path58" /><path
         d="m 9801.38,9349.17 c -90.32,35.82 -182.52,66.96 -275.02,96.86 -476.87,153.25 -970.24,273.48 -1468.59,301.82 116.67,180.5 468.28,409.15 790.68,409.15 198.32,0 385.54,-86.4 500.37,-323.81 335.09,-96.7 498.82,-241.1 498.84,-370.56 0.01,-39.85 -15.49,-78.28 -46.28,-113.46 v 0"
         style="fill:#ffd9db;fill-opacity:1;fill-rule:nonzero;stroke:none"
         id="path60" /><path
         d="m 4009.57,8414.44 c -246.27,0 -418.78,33.07 -424.48,145.66 -0.31,7.79 0,15.89 1.25,24.61 18.22,125.58 176.74,319.3 507.32,319.3 36.72,0 75.53,-2.39 116.54,-7.53 114.49,70.34 226.05,98.92 327.76,98.92 191.06,0 347.5,-100.75 424.13,-214.78 95.01,-141.09 68.22,-302.12 -165.7,-318.95 -276.56,-19.75 -562.34,-47.23 -786.82,-47.23"
         style="fill:#ffffff;fill-opacity:1;fill-rule:nonzero;stroke:none"
         id="path62" /><path
         d="m 7424.56,1728.4 v 0 c -271.29,148 -529.49,318.68 -769.64,510.23 -196.87,156.96 -399.39,279.13 -612.48,377.47 57.19,14.24 128.72,39.56 215.67,77.9 l 30.78,96.21 c 19.01,-15.27 40.3,-21.75 61.93,-21.75 105.78,0 219.57,155.04 113.64,194.28 -7.57,2.82 -15.96,4.69 -24.9,5.73 -5.57,0.64 -11.36,0.95 -17.3,0.95 -25.94,0 -54.81,-5.94 -81.38,-16.36 l 21.88,68.61 -50.45,20.87 -259.16,106.83 -19.62,8.1 -55.12,-225.82 -23.67,-97.18 c -47.48,-55.17 -78.06,-104.26 -89.21,-142.96 -152.08,59.77 -309.94,109.54 -475.18,152.93 -165.7,43.61 -185.95,139.85 -319.26,223.32 -142.42,89.3 -320.64,158.48 -483.37,158.48 -19.47,0 -38.71,-0.99 -57.65,-3.06 -224.88,-24.6 -448.2,-47.34 -680.86,-89.69 -55.72,-10.28 -108.27,-13.35 -160.24,-13.35 -74.1,0 -147.03,6.25 -226.31,6.8 -0.82,0.01 -1.65,0.01 -2.47,0.01 -58.69,0 -125.65,-17.42 -194.3,-34.85 -68.64,-17.43 -138.97,-34.85 -204.37,-34.86 -34.17,0 -66.98,4.76 -97.52,16.75 v 0 h -0.62 c -11.21,4.67 -22.11,9.98 -32.7,16.51 -99.36,61.05 -207.13,261.94 -270.36,392.14 v 0 c -9.65,19.63 -18.07,37.69 -25.23,53.26 432.94,80.67 814.49,319.26 1239.66,425.78 217.09,54.2 430.13,70.7 651.9,83.16 144.09,8.32 295.2,51.37 442.24,51.37 56.69,0 112.75,-6.39 167.62,-23.64 123.96,-38.62 250.73,-79.74 370.64,-124.28 153.43,-57.37 361.13,-86.86 507.15,-178.81 -19.12,-205.9 -30.48,-406.77 -35.33,-589.34 v 0 0 l 54.7,-22.73 7.8,-3.06 v 0 l 321.24,-132.56 32.82,-13.7 c 83.55,151.02 174.59,315.85 265.17,487.03 193.68,-50.36 369.91,-97.07 567.94,-135.82 231.74,-45.17 388.71,-251.98 582.77,-367.53 250.1,-148.89 544.13,-259.14 818.84,-352.9 58.25,-19.93 116.81,-36.44 175.98,-50.46 v 0 c -12.45,-13.08 -24.91,-25.85 -37.37,-38.62 -12.45,-12.77 -24.92,-25.53 -37.69,-38 -12.77,-12.45 -25.54,-24.91 -38.31,-37.06 -12.77,-12.15 -25.54,-24.3 -38.62,-36.13 -13.08,-12.15 -25.85,-23.99 -38.94,-35.51 -11.52,-10.28 -23.05,-20.25 -34.25,-30.22 -2.49,-2.18 -4.98,-4.35 -7.49,-6.53 v 0 c -36.67,44.36 -110.47,59.02 -185.9,59.02 -83.43,0 -168.84,-17.94 -208.1,-33.48 -121.79,-48.29 -241.39,-158.85 -106.84,-297.77 17.76,-18.06 45.48,-29.9 79.12,-35.51 h 0.31 c -1.87,-1.24 -3.74,-2.49 -5.61,-3.42 -13.39,-8.1 -26.78,-16.2 -40.17,-23.99 -13.4,-7.78 -26.79,-15.57 -40.19,-23.36 -13.7,-7.78 -27.09,-15.23 -40.8,-22.73 -29.28,-16.2 -58.55,-31.8 -88.14,-46.7 -14.95,-7.8 -30.22,-15.3 -45.16,-22.8 -15.26,-7.4 -30.53,-14.9 -45.79,-22.1 -15.27,-7.1 -30.53,-14 -45.79,-21.2 -30.52,-13.7 -61.36,-27.4 -92.51,-40.1 -15.57,-6.6 -31.14,-12.8 -46.72,-19 -15.57,-6.3 -31.14,-12.5 -46.72,-18.4 -13.39,-5.3 -26.79,-10.3 -40.18,-15.3 -4.05,-1.5 -8.09,-2.8 -12.14,-4.3 v 0 c -17.11,-6.2 -34.21,-12.2 -51.33,-18.1 v 0 c -24.69,-8.5 -49.5,-16.6 -74.4,-24.6 -3.99,-1.3 -7.94,-2.8 -11.94,-4.1 v 0 m -27.39,743.68 c -118.48,0 -263.61,-51.76 -316.58,-160.37 -61.53,-126.12 18.96,-214.76 142.84,-232.99 25.04,-3.68 51.44,-5.45 78.44,-5.45 85.26,0 176.53,17.58 250.18,47.76 53.82,22.05 109.48,54.92 141.87,104.82 27.46,42.33 20,82.3 -29.83,152.83 -49.76,58.85 -153.42,83.14 -225.83,91.19 -13.18,1.47 -26.94,2.21 -41.09,2.21 m 519.6,195.23 c -60.1,0 -132.53,-16.62 -171.77,-37.48 -95.1,-50.55 -71.62,-139.32 28.7,-162.74 21.12,-4.93 44.56,-7.5 68.63,-7.5 55.58,0 114.51,13.69 155.97,43.61 54.98,39.67 52.04,130.77 -18.74,155.52 -17.11,5.99 -38.99,8.59 -62.79,8.59 M 7239.71,2815 c -116.74,0 -262.31,-64.64 -212.92,-203.1 25.79,-72.32 94.08,-95.12 163.76,-95.13 40,0 80.45,7.52 113.59,17.49 99.64,29.98 282.99,147.32 1.76,272.68 -19.57,5.35 -42.28,8.06 -66.19,8.06"
         style="fill:#fff8d4;fill-opacity:1;fill-rule:nonzero;stroke:none"
         id="path64" /><path
         d="m 5131.26,9448.17 c -530.04,0 -1152.87,3.41 -1458.81,17.56 -64.74,3.04 -124.61,8.21 -179.62,16.11 v 0 c 495.7,241.92 1003.87,456.49 1517.81,606.96 450.11,131.9 1003.26,284.1 1551.54,335.5 133.76,-96.2 211.62,-226.2 211.61,-363 0,-225.54 -211.84,-469.39 -734.07,-610.16 0,0 -413.82,-2.97 -908.46,-2.97"
         style="fill:#ffffff;fill-opacity:1;fill-rule:nonzero;stroke:none"
         id="path66" /><path
         d="m 7301.87,2073.27 c -27,0 -53.4,1.77 -78.44,5.45 -123.88,18.23 -204.37,106.87 -142.84,232.99 52.97,108.61 198.1,160.37 316.58,160.37 14.15,0 27.91,-0.74 41.09,-2.21 72.41,-8.05 176.07,-32.34 225.83,-91.19 49.83,-70.53 57.29,-110.5 29.83,-152.83 -32.39,-49.9 -88.05,-82.77 -141.87,-104.82 -73.65,-30.18 -164.92,-47.76 -250.18,-47.76"
         style="fill:#e7eff5;fill-opacity:1;fill-rule:nonzero;stroke:none"
         id="path68" /><path
         d="m 7842.33,2459.59 c -24.07,0 -47.51,2.57 -68.63,7.5 -100.32,23.42 -123.8,112.19 -28.7,162.74 39.24,20.86 111.67,37.48 171.77,37.48 23.8,0 45.68,-2.6 62.79,-8.59 70.78,-24.75 73.72,-115.85 18.74,-155.52 -41.46,-29.92 -100.39,-43.61 -155.97,-43.61"
         style="fill:#e7eff5;fill-opacity:1;fill-rule:nonzero;stroke:none"
         id="path70" /><path
         d="m 8768.54,9166.67 c -95.12,0 -185.41,0.4 -270.97,1.22 v 0 c -836.23,7.41 -1220.9,53.24 -1221.19,157.2 -0.23,83.97 250.23,205.85 715.98,376.04 v 0 c 15.89,5.91 31.78,11.83 48.28,17.75 4.98,9.34 10.59,19.31 17.13,28.97 v 0 c 498.35,-28.34 991.72,-148.57 1468.59,-301.82 92.5,-29.9 184.7,-61.04 275.02,-96.86 v 0 c -89.39,-102.48 -308.04,-177.55 -650.03,-180.65 -135.32,-1.22 -262.89,-1.85 -382.81,-1.85"
         style="fill:#fff8d4;fill-opacity:1;fill-rule:nonzero;stroke:none"
         id="path72" /><path
         d="m 7190.55,2516.77 c -69.68,0.01 -137.97,22.81 -163.76,95.13 -49.39,138.46 96.18,203.1 212.92,203.1 23.91,0 46.62,-2.71 66.19,-8.06 281.23,-125.36 97.88,-242.7 -1.76,-272.68 -33.14,-9.97 -73.59,-17.49 -113.59,-17.49"
         style="fill:#e7eff5;fill-opacity:1;fill-rule:nonzero;stroke:none"
         id="path74" /><path
         d="m 8210.61,2053.81 c -20.78,0 -40.45,1.56 -58.46,4.79 v 0 h -0.31 c -33.64,5.61 -61.36,17.45 -79.12,35.51 -134.55,138.92 -14.95,249.48 106.84,297.77 39.26,15.54 124.67,33.48 208.1,33.48 75.43,0 149.23,-14.66 185.9,-59.02 v 0 0 0 c 10.29,-11.84 17.76,-25.86 21.5,-42.37 2.64,-11.15 3.9,-22.04 3.91,-32.68 0.04,-142.74 -226.73,-237.48 -388.36,-237.48"
         style="fill:#e7eff5;fill-opacity:1;fill-rule:nonzero;stroke:none"
         id="path76" /><path
         d="m 2978.02,6585.5 c -10.28,-5.61 -20.55,-11.21 -30.83,-16.82 -23.05,-12.46 -46.72,-24.3 -71.02,-35.51 -9.34,-4.67 -18.69,-8.72 -28.03,-13.08 -70.39,-31.77 -145.15,-59.81 -222.08,-84.1 -9.97,-3.42 -19.93,-6.54 -30.21,-9.34 -11.53,-3.74 -23.05,-7.16 -34.89,-10.59 -10.27,-2.81 -20.86,-5.92 -31.15,-8.72 -63.22,-17.13 -127.38,-32.08 -191.55,-44.54 -37.06,-7.17 -73.81,-13.71 -110.88,-19.31 -12.14,-1.87 -23.99,-3.74 -36.13,-5.3 -81.61,-11.52 -162.27,-19 -240.14,-23.05 -15.89,-0.62 -31.46,-1.24 -46.72,-1.56 -214.29,-6.85 -403.35,16.83 -524.2,70.09 -262.26,115.55 -427.342,371.57 -460.979,644.73 -1.559,12.47 -2.805,25.24 -4.051,37.69 -13.082,164.77 21.805,333.28 112.13,479.05 5.3,9.03 11.21,18.06 17.13,26.78 7.47,10.9 14.95,21.5 23.05,32.08 67.9,89.71 148.26,169.75 237.96,240.15 8.41,6.23 16.51,12.76 25.23,18.99 188.13,140.48 414.26,237.34 648.48,281.57 9.97,2.18 19.93,4.05 30.21,5.61 133.31,23.04 268.8,28.97 400.86,16.2 11.52,-0.94 23.06,-2.18 34.26,-3.74 112.44,-13.4 222.4,-40.49 326.11,-81.92 114,-45.47 200.59,-110.57 270.67,-189.06 9.03,-9.66 17.75,-19.62 25.85,-29.9 104.35,-127.39 173.18,-285.93 251.04,-451.94 172.25,-366.91 -16.82,-641.63 -340.12,-824.46"
         style="fill:#b4bfaf;fill-opacity:1;fill-rule:nonzero;stroke:none"
         id="path78" /><path
         d="m 1907.81,6351.58 c 14.33,-12.14 28.66,-24.29 43.3,-36.44 -15.89,-0.62 -31.46,-1.24 -46.72,-1.56 -5.61,4.99 -11.22,9.66 -16.82,14.33 -307.74,260.08 -598.33,505.51 -960.89,696.45 -2.485,1.25 -4.981,2.49 -7.469,4.04 -1.559,12.47 -2.805,25.24 -4.051,37.69 9.035,-4.98 17.442,-9.64 25.852,-14.01 365.978,-192.8 657.828,-439.17 966.798,-700.5"
         style="fill:#dae6ef;fill-opacity:1;fill-rule:nonzero;stroke:none"
         id="path80" /><path
         d="m 2227.38,6343.49 c -12.14,-1.87 -23.99,-3.74 -36.13,-5.3 -16.82,19.62 -33.95,39.25 -51.08,58.56 -16.2,18.68 -32.39,37.06 -47.97,55.12 -181.9,213.05 -386.22,412.08 -583.69,604.58 -161.03,156.97 -327.05,318.31 -481.22,488.69 5.3,9.03 11.21,18.06 17.13,26.78 155.74,-171.93 323,-334.83 485.58,-493.05 198.4,-193.11 403.04,-392.46 585.87,-606.74 15.58,-18.07 31.46,-36.45 47.66,-54.82 21.18,-24.3 42.98,-48.91 63.85,-73.82"
         style="fill:#dae6ef;fill-opacity:1;fill-rule:nonzero;stroke:none"
         id="path82" /><path
         d="m 2560.96,6416.06 c -10.27,-2.81 -20.86,-5.92 -31.15,-8.72 -253.84,404.29 -530.43,764.03 -874.6,1093.88 -50.45,48.27 -100.29,98.11 -153.24,150.75 -63.23,62.92 -128.64,128.33 -196.54,192.18 8.41,6.23 16.51,12.76 25.23,18.99 66.65,-62.91 131.13,-127.08 193.11,-189.06 52.95,-52.63 102.78,-102.47 152.93,-150.43 348.85,-333.9 628.23,-698.01 884.26,-1107.59"
         style="fill:#dae6ef;fill-opacity:1;fill-rule:nonzero;stroke:none"
         id="path84" /><path
         d="m 2626.06,6435.99 c -9.97,-3.42 -19.93,-6.54 -30.21,-9.34 -284.06,620.44 -488.38,1189.19 -616.71,1718.06 9.97,2.18 19.93,4.05 30.21,5.61 128.64,-527.63 332.96,-1094.81 616.71,-1714.33"
         style="fill:#dae6ef;fill-opacity:1;fill-rule:nonzero;stroke:none"
         id="path86" /><path
         d="m 2677.46,7295.02 c 56.68,-254.15 114.62,-513.92 198.71,-761.85 -9.34,-4.67 -18.69,-8.72 -28.03,-13.08 -85.65,250.11 -143.9,512.06 -201.21,768.08 -43.29,194.98 -88.14,396.5 -144.21,587.12 -29.28,100.3 -60.11,197.47 -92.51,291.23 11.52,-0.94 23.06,-2.18 34.26,-3.74 30.84,-90.02 60.12,-183.15 88.15,-278.77 56.07,-191.55 101.23,-393.69 144.84,-588.99"
         style="fill:#dae6ef;fill-opacity:1;fill-rule:nonzero;stroke:none"
         id="path88" /><path
         d="m 3039.07,7715.51 c -47.34,-277.21 -68.52,-560.65 -62.61,-842.84 0.94,-37.68 0.62,-80.98 0.62,-127.07 0,-49.84 -0.3,-104.04 0.94,-160.1 -10.28,-5.61 -20.55,-11.21 -30.83,-16.82 -1.56,61.98 -1.25,122.1 -1.25,176.92 0,46.09 0.31,88.76 -0.62,126.45 -5.92,284.06 15.26,569.67 63.22,848.75 9.97,57.32 20.87,114.32 32.71,171 9.03,-9.66 17.75,-19.62 25.85,-29.9 -10.27,-48.59 -19.62,-97.49 -28.03,-146.39"
         style="fill:#dae6ef;fill-opacity:1;fill-rule:nonzero;stroke:none"
         id="path90" /><path
         d="m 2967.79,7077.11 c -14.62,-7.94 -29.66,-15.52 -44.71,-22.38 -81.69,-40.07 -172.41,-77.25 -273.02,-111.55 -13.76,-4.69 -27.94,-9.39 -42.56,-14.08 -47.72,-15.52 -98.03,-30.32 -150.05,-44.4 -36.98,-10.11 -72.66,-17.69 -107.49,-22.74 -14.62,-2.17 -29.24,-3.97 -43.86,-5.78 -476.37,-48.37 -752.4,329.95 -705.96,719.1 1.29,12.64 3,25.63 5.58,38.26 24.08,140.8 91.16,281.58 206.81,402.15 -7.74,192.05 26.65,343.31 87.28,458.83 6.02,11.55 12.04,22.74 18.92,33.57 284.62,472.18 1035.31,279.77 968.66,-167.5 194.77,-33.93 352.13,-110.82 461.33,-213.35 9.89,-9.38 19.35,-19.13 27.95,-28.88 257.97,-276.16 186.6,-713.68 -408.88,-1021.25"
         style="fill:#527a60;fill-opacity:1;fill-rule:nonzero;stroke:none"
         id="path92" /><path
         d="m 2349.96,6861.96 c -14.62,-2.17 -29.24,-3.97 -43.86,-5.78 -159.07,342.22 -392.96,580.12 -705.96,719.1 1.29,12.64 3,25.63 5.58,38.26 331.92,-142.94 578.71,-391.31 744.24,-751.58"
         style="fill:#98b78b;fill-opacity:1;fill-rule:nonzero;stroke:none"
         id="path94" /><path
         d="m 3376.67,8098.36 c -167.25,-153.42 -283.76,-344.39 -349.55,-623.79 -30.52,-130.68 -48.58,-264.61 -59.33,-397.46 -14.62,-7.94 -29.66,-15.52 -44.71,-22.38 10.32,142.23 28.8,285.9 61.91,426.7 68.36,290.59 189.6,487.7 363.73,645.81 9.89,-9.38 19.35,-19.13 27.95,-28.88"
         style="fill:#98b78b;fill-opacity:1;fill-rule:nonzero;stroke:none"
         id="path96" /><path
         d="m 2650.06,6943.18 c -13.76,-4.69 -27.94,-9.39 -42.56,-14.08 -15.05,290.24 -55.9,580.48 -122.11,841.12 -55.89,218.76 -165.1,394.57 -344.38,553.4 -61.49,54.15 -145.33,106.85 -241.2,150.9 6.02,11.55 12.04,22.74 18.92,33.57 99.74,-46.21 187.89,-101.8 253.23,-159.56 185.31,-163.89 297.96,-345.11 355.57,-570.73 65.78,-258.84 106.63,-546.55 122.53,-834.62"
         style="fill:#98b78b;fill-opacity:1;fill-rule:nonzero;stroke:none"
         id="path98" /><path
         d="m 2422.33,4714.69 c -17.21,0 -31.15,13.93 -31.15,31.15 v 2282.82 c 0,17.21 13.94,31.14 31.15,31.14 17.22,0 31.15,-13.93 31.15,-31.14 V 4745.84 c 0,-17.22 -13.93,-31.15 -31.15,-31.15"
         style="fill:#9e503b;fill-opacity:1;fill-rule:nonzero;stroke:none"
         id="path100" /><path
         d="m 2422.3,6312.67 c -4.2,0 -8.49,0.86 -12.59,2.68 -15.73,6.96 -22.82,25.37 -15.85,41.1 l 394.5,890.29 c 6.97,15.7 25.34,22.82 41.1,15.85 15.73,-6.96 22.81,-25.36 15.85,-41.09 L 2450.8,6331.2 c -5.14,-11.62 -16.55,-18.53 -28.5,-18.53"
         style="fill:#9e503b;fill-opacity:1;fill-rule:nonzero;stroke:none"
         id="path102" /><path
         d="m 2411.92,5953.14 c -12.71,0 -24.66,7.86 -29.25,20.5 L 2008.9,7000.88 c -5.9,16.16 2.44,34.04 18.61,39.91 16.1,5.9 34.04,-2.46 39.92,-18.61 l 373.76,-1027.24 c 5.9,-16.15 -2.44,-34.04 -18.62,-39.91 -3.49,-1.28 -7.12,-1.89 -10.65,-1.89"
         style="fill:#9e503b;fill-opacity:1;fill-rule:nonzero;stroke:none"
         id="path104" /><path
         d="m 2422.33,5559.34 c -2.92,0 -5.9,0.4 -8.85,1.28 -16.49,4.89 -25.92,22.23 -21.02,38.72 l 467.2,1575.13 c 4.9,16.46 22.21,25.95 38.72,21.02 16.49,-4.89 25.92,-22.23 21.02,-38.72 L 2452.2,5581.63 c -4.02,-13.53 -16.43,-22.29 -29.87,-22.29"
         style="fill:#9e503b;fill-opacity:1;fill-rule:nonzero;stroke:none"
         id="path106" /><path
         d="m 10060,6745.49 c 332.2,-497.34 67.2,-923.48 -402.93,-940.28 -210.21,-128.61 -405.32,-158.49 -564.16,-125.58 -23.16,4.7 -45.33,10.74 -66.83,18.12 -375.09,128.29 -498.34,628.98 -23.83,930.2 -333.13,307.27 -116.87,1290.52 369.38,1443.99 79.59,472.82 361.67,550.73 559.46,419.43 57.09,-37.62 107.11,-92.36 143.11,-160.18 82.9,-154.48 94,-376.11 -47.7,-611.85 446.9,-202.83 438.5,-532.6 33.5,-973.85"
         style="fill:#f15a24;fill-opacity:1;fill-rule:nonzero;stroke:none"
         id="path108" /><path
         d="m 10934.5,6602.74 c 204.4,-419.21 -142.5,-682.44 -478.4,-716.45 -11.4,-1.31 -22.9,-2.29 -34,-2.62 -74.5,-4.25 -147.4,3.27 -212.8,22.89 -11.2,3.27 -22,6.87 -32.7,11.13 -180.87,68.99 -288.46,241.65 -174,537.91 -186.39,172.65 -248.53,332.88 -162.85,478.07 5.23,9.15 11.44,18.63 18.32,27.79 50.35,69.33 136.02,135.05 258.93,197.18 180.2,684.08 472.6,871.45 647.5,782.5 9.8,-4.9 19.3,-10.78 28.4,-17.65 127.6,-93.85 174,-352.18 27.2,-666.75 102.7,-18.97 174,-54.61 216.8,-105.29 7.5,-8.84 14,-17.66 19.6,-27.48 69.3,-115.09 19.6,-293.64 -122,-521.23"
         style="fill:#98b78b;fill-opacity:1;fill-rule:nonzero;stroke:none"
         id="path110" /><path
         d="m 9463.05,4886.01 16.34,670.34 c -170.71,80.62 -272.1,235.96 -326.99,441.45 l 28.62,24.52 c 79.76,-196.63 181.74,-354.37 331.08,-429.19 l 8.17,318.83 h 49.05 l -8.17,-457.8 c 128.72,100.21 213.86,262.77 282.03,449.63 h 36.79 c -70.26,-227.34 -160.55,-422.04 -310.65,-519.11 l -8.17,-498.67 h -98.1"
         style="fill:#9e503b;fill-opacity:1;fill-rule:nonzero;stroke:none"
         id="path112" /><path
         d="m 10080.3,6046.85 20.4,12.26 c 60,-139 138.1,-248.51 245.2,-310.64 l 36.8,416.91 28.6,4.09 v -314.73 c 156,47.66 237.4,151.55 294.3,273.85 l 24.6,-4.08 c -67.4,-157.51 -151,-295.97 -322.9,-331.08 l -4.1,-760.28 -94,-8.17 24.5,645.82 c -132.1,74.95 -217.2,199.62 -253.4,376.05"
         style="fill:#bf6447;fill-opacity:1;fill-rule:nonzero;stroke:none"
         id="path114" /><path
         d="m 10074.2,8331.19 c -136.39,-341.53 -276.76,-681.7 -402.69,-1023.56 -199.47,-540.32 -389.87,-1083.99 -578.6,-1628 -23.16,4.7 -45.33,10.74 -66.83,18.12 -375.09,128.29 -498.34,628.98 -23.83,930.2 -333.13,307.27 -116.87,1290.52 369.38,1443.99 79.59,472.82 361.67,550.73 559.46,419.43 57.09,-37.62 107.11,-92.36 143.11,-160.18"
         style="fill:#e58c3c;fill-opacity:1;fill-rule:nonzero;stroke:none"
         id="path116" /><path
         d="m 11056.5,7123.97 c -304.1,-355.11 -495.7,-784.79 -600.4,-1237.68 -11.4,-1.31 -22.9,-2.29 -34,-2.62 105.7,463.69 301.5,904.48 614.8,1267.78 7.5,-8.84 14,-17.66 19.6,-27.48"
         style="fill:#dae6ef;fill-opacity:1;fill-rule:nonzero;stroke:none"
         id="path118" /><path
         d="m 10209.3,5906.56 c -11.2,3.27 -22,6.87 -32.7,11.13 0.9,374.08 -60.5,734.43 -274.72,957.11 -20.6,21.59 -41.21,41.21 -62.13,58.87 5.23,9.15 11.44,18.63 18.32,27.79 22.56,-19.3 45.11,-40.88 67.35,-64.09 223.68,-232.17 285.78,-605.92 283.88,-990.81"
         style="fill:#dae6ef;fill-opacity:1;fill-rule:nonzero;stroke:none"
         id="path120" /><path
         d="m 10792.9,7923.49 c -172.6,-438.18 -260.2,-852.82 -267.1,-1261.23 0,-8.83 -7.5,-16.02 -16.4,-16.02 h -0.3 c -9.1,0.32 -16,7.84 -16,16.67 7.2,414.31 96.1,834.17 271.4,1278.23 9.8,-4.9 19.3,-10.78 28.4,-17.65"
         style="fill:#dae6ef;fill-opacity:1;fill-rule:nonzero;stroke:none"
         id="path122" /><path
         d="m 2991.52,4431.23 c -40.03,0 -78.72,6.36 -113.73,18.9 -118.5,42.36 -173.4,146.97 -143.32,272.93 70.2,293.85 346.05,307.45 589.45,319.46 149.86,7.36 291.45,14.35 366.04,82.95 226.3,208.02 306.72,528.64 408.5,934.59 20.47,81.58 41.82,166.74 65.42,255.38 169.3,636.23 404.15,840.09 569.22,818.64 112.06,-14.66 187.34,-130.97 187.34,-289.41 0,-25.8 -20.93,-46.73 -46.72,-46.73 -25.79,0 -46.72,20.93 -46.72,46.73 0,109.37 -42.61,188.46 -106,196.76 -89.82,11.9 -301.86,-130.09 -466.84,-750.02 -23.45,-88.18 -44.72,-172.92 -65.06,-254.07 -105.61,-421.09 -189.01,-753.7 -435.88,-980.67 -99.49,-91.46 -257.48,-99.25 -424.71,-107.5 -231.02,-11.37 -449.23,-22.14 -503.16,-247.83 -25.52,-106.8 41.65,-148.11 83.92,-163.25 113.37,-40.55 280.88,10.52 349.31,151.27 11.25,23.2 39.21,32.94 62.45,21.56 23.2,-11.29 32.85,-39.24 21.56,-62.45 -71.63,-147.37 -218.45,-217.24 -351.07,-217.24"
         style="fill:#0a2a44;fill-opacity:1;fill-rule:nonzero;stroke:none"
         id="path124" /><path
         d="m 2834.42,2992.42 c -5.69,0 -11.44,1.55 -16.61,4.81 -13.87,8.76 -18.46,26.68 -10.89,40.93 23.67,55.94 354.3,1210.21 571.44,1974.83 3.81,13.38 16.03,22.63 29.97,22.63 h 133.22 c 13.47,0 25.4,-8.64 29.6,-21.45 L 4216.74,3044.1 c 5.36,-16.37 -3.55,-33.94 -19.89,-39.3 -16.42,-5.44 -33.94,3.56 -39.3,19.9 l -638.57,1948.62 h -87.11 C 3261.75,4374.41 2881.2,3039.23 2860.79,3006.93 c -5.93,-9.37 -16.03,-14.51 -26.37,-14.51"
         style="fill:#0a2a44;fill-opacity:1;fill-rule:nonzero;stroke:none"
         id="path126" /><path
         d="M 9484.32,6873.23 H 4437.59 c 57.18,90.61 114.67,149.39 168.16,182.51 h 4808.78 c 39.36,-36.38 65.18,-100.67 69.79,-182.51"
         style="fill:#9e503b;fill-opacity:1;fill-rule:nonzero;stroke:none"
         id="path128" /><path
         d="m 9023.17,6760.55 c -24.89,-53.26 -49.18,-113.98 -72.54,-182.5 H 4295.87 c 25.51,68.52 51.64,129.24 78.39,182.5 h 4648.91"
         style="fill:#9e503b;fill-opacity:1;fill-rule:nonzero;stroke:none"
         id="path130" /><path
         d="m 8914.35,6465.36 c -15.06,-50.33 -29.82,-104.56 -43.96,-162.04 -1.85,-6.82 -3.38,-13.64 -4.92,-20.46 H 4203.95 c 1.53,6.82 3.38,13.64 5.22,20.46 15.38,57.48 31.05,111.71 47.35,162.04 h 4657.83"
         style="fill:#9e503b;fill-opacity:1;fill-rule:nonzero;stroke:none"
         id="path132" /><path
         d="m 8838.42,6170.18 c -14.76,-62.68 -28.91,-123.73 -42.74,-182.51 H 4128.62 c 14.76,58.78 29.83,119.83 45.81,182.51 h 4663.99"
         style="fill:#9e503b;fill-opacity:1;fill-rule:nonzero;stroke:none"
         id="path134" /><path
         d="m 8768.94,5874.99 c -15.07,-63.33 -30.44,-124.38 -46.43,-182.51 H 4049 c 17.52,58.13 34.13,119.18 50.73,182.51 h 4669.21"
         style="fill:#9e503b;fill-opacity:1;fill-rule:nonzero;stroke:none"
         id="path136" /><path
         d="m 8689.32,5579.79 c -20.61,-64.61 -42.74,-125.34 -67.94,-182.49 H 3939.87 c 27.05,57.15 51.33,117.88 73.47,182.49 h 4675.98"
         style="fill:#9e503b;fill-opacity:1;fill-rule:nonzero;stroke:none"
         id="path138" /><path
         d="m 8565.42,5284.61 c -37.81,-66.89 -82.08,-127.95 -134.96,-182.18 H 3733.58 c 56.87,54.23 104.83,115.29 145.73,182.18 h 4686.11"
         style="fill:#9e503b;fill-opacity:1;fill-rule:nonzero;stroke:none"
         id="path140" /><path
         d="m 7952.73,4989.42 c -153.41,-12.34 -298.52,-44.16 -370.46,-182.18 H 2816.22 c 77.78,138.02 234.87,169.84 400.89,182.18 h 4735.62"
         style="fill:#9e503b;fill-opacity:1;fill-rule:nonzero;stroke:none"
         id="path142" /><path
         d="m 8029.88,4694.24 v -25.33 c -33.5,-74.37 -87.93,-126.33 -148.48,-156.85 H 2855.26 c -58.72,34.75 -93.46,96.12 -79.01,182.18 h 5253.63"
         style="fill:#9e503b;fill-opacity:1;fill-rule:nonzero;stroke:none"
         id="path144" /><path
         d="m 7741.12,4431.87 c -32.39,0 -63.75,4.81 -92.43,14.33 -118.96,39.42 -174.9,145.21 -145.98,276.07 65.1,294.46 333.1,308.76 548.45,320.22 137.52,7.33 267.43,14.27 335.3,81.7 209.32,208.06 283.75,528.89 377.98,935.11 18.92,81.55 38.66,166.69 60.5,255.29 132.29,537.44 330.72,844.07 527.85,819.82 108.78,-13.16 179.07,-126.92 179.07,-289.74 0,-25.8 -20.92,-46.73 -46.72,-46.73 -25.79,0 -46.72,20.93 -46.72,46.73 0,109.07 -39.82,190.07 -96.85,197 -80.66,9.61 -274.45,-134.01 -425.93,-749.41 -21.68,-88.17 -41.33,-172.92 -60.16,-254.07 -97.64,-420.85 -174.75,-753.28 -403.15,-980.25 -93.16,-92.62 -247.22,-100.8 -396.18,-108.74 -212.1,-11.31 -412.45,-21.99 -462.19,-247.07 -24.97,-112.97 42.02,-153.27 84.15,-167.24 100.67,-33.51 247.47,15.76 309.27,153.19 10.59,23.54 38.32,34.03 61.78,23.44 23.54,-10.58 34.03,-38.26 23.45,-61.77 -66.07,-146.82 -206.71,-217.88 -331.49,-217.88"
         style="fill:#0a2a44;fill-opacity:1;fill-rule:nonzero;stroke:none"
         id="path146" /><path
         d="m 7630.28,2992.42 c -5.68,0 -11.43,1.55 -16.61,4.81 -13.87,8.76 -18.46,26.68 -10.89,40.93 23.68,55.94 354.3,1210.21 571.45,1974.83 3.81,13.38 16.03,22.63 29.96,22.63 h 133.23 c 13.47,0 25.39,-8.64 29.59,-21.45 L 9012.62,3044.1 c 5.35,-16.37 -3.57,-33.94 -19.91,-39.3 -16.41,-5.44 -33.97,3.56 -39.29,19.9 l -638.57,1948.62 h -87.12 c -170.11,-598.91 -550.66,-1934.09 -571.07,-1966.39 -5.94,-9.37 -16.03,-14.51 -26.38,-14.51"
         style="fill:#0a2a44;fill-opacity:1;fill-rule:nonzero;stroke:none"
         id="path148" /><path
         d="m 2563.53,2126.72 c -4.25,-10.12 -8.81,-20.23 -13.71,-30.34 -19.24,-40.45 -41.75,-81.56 -67.53,-122.38 -5.54,-9.1 -11.09,-18.2 -17.29,-27.4 -4.89,-7.5 -9.79,-15 -15,-22.5 -539.9,-92.6 -908.86,63.3 -1077.19,510.9 -4.9,12.39 -9.46,24.79 -13.7,37.51 -29.04,84.82 -51.22,179.76 -65.9,284.79 -2.28,12.41 -3.92,25.13 -5.55,37.85 -4.89,39.79 -9.13,81.23 -12.06,123.96 -177.47,282.51 -228.03,578.72 -65.25,897.12 l 293.61,-244.67 c 321.97,-18.59 558.81,-166.05 701.37,-456.72 420.5,-315.78 505.97,-646.57 358.2,-988.12"
         style="fill:#f15a24;fill-opacity:1;fill-rule:nonzero;stroke:none"
         id="path150" /><path
         d="m 2482.29,1974 c -5.54,-9.1 -11.09,-18.2 -17.29,-27.4 -351.67,248.3 -761.41,391.18 -1092.19,488.4 -4.9,12.39 -9.46,24.79 -13.7,37.51 336.66,-97.21 759.77,-242.05 1123.18,-498.51"
         style="fill:#0a2a44;fill-opacity:1;fill-rule:nonzero;stroke:none"
         id="path152" /><path
         d="m 2563.53,2126.72 c -4.25,-10.12 -8.81,-20.23 -13.71,-30.34 -58.39,42.73 -118.09,84.17 -179.75,122.33 -321.32,199.97 -595.03,342.86 -862.21,449.86 -70.78,28.06 -143.21,58.39 -214.65,88.73 -2.28,12.41 -3.92,25.13 -5.55,37.85 77.32,-32.62 155.93,-65.57 232.28,-96.57 268.81,-107.65 544.46,-251.19 867.42,-452.13 60.35,-37.86 119.08,-78.31 176.17,-119.73"
         style="fill:#0a2a44;fill-opacity:1;fill-rule:nonzero;stroke:none"
         id="path154" /><path
         d="m 2645.73,2005.68 c -580.68,66.23 -845.57,316.45 -766.62,766.63 -270.12,271.75 -414.63,529.47 -404.2,769.56 0.33,11.1 1.31,22.19 2.61,32.95 6.53,66.22 25.45,131.15 57.09,194.43 4.89,9.78 10.12,19.26 15.66,29.03 18.92,33.6 41.43,66.88 67.86,99.5 -220.85,272.4 -198.67,517.72 81.56,734.01 l 81.55,277.28 c 294.25,168.33 443.34,-34.9 570.89,-293.6 283.16,-86.11 447.9,-272.39 440.4,-603.51 740.2,-296.54 538.27,-1402.76 -146.8,-2006.28"
         style="fill:#98b78b;fill-opacity:1;fill-rule:nonzero;stroke:none"
         id="path156" /><path
         d="m 2972.07,2119.97 c -412.21,420.49 -632.98,802.77 -228.36,1060.24 -79.65,459.38 -48.72,835 309.91,962.35 62.23,173.89 142.09,362.09 277.29,342.53 191.12,-27.64 196.83,-251.48 163.11,-424.08 242.72,-169.34 252.07,-420.55 130.49,-717.7 230.7,-353.87 -117.17,-777.33 -652.44,-1223.34"
         style="fill:#527a60;fill-opacity:1;fill-rule:nonzero;stroke:none"
         id="path158" /><path
         d="m 2972.06,2071.8 h -0.68 c -8.57,0.39 -15.26,7.62 -14.9,16.24 33.58,784.29 149.05,1520.87 343.16,2189.34 2.38,8.27 10.93,13.05 19.32,10.62 8.24,-2.4 13.02,-11.04 10.62,-19.31 -193.46,-666.07 -308.5,-1400.18 -341.95,-2181.99 -0.37,-8.37 -7.27,-14.9 -15.57,-14.9"
         style="fill:#dae6ef;fill-opacity:1;fill-rule:nonzero;stroke:none"
         id="path160" /><path
         d="m 2578.13,1929.7 c -7.97,0 -14.76,6.1 -15.49,14.2 -97.3,1082.19 -347.48,1981.9 -764.8,2750.53 -4.11,7.54 -1.31,17.01 6.27,21.11 7.42,4.08 16.97,1.31 21.1,-6.26 419.39,-772.44 670.76,-1676.1 768.46,-2762.58 0.76,-8.6 -5.57,-16.2 -14.12,-16.9 l -1.42,-0.1"
         style="fill:#dae6ef;fill-opacity:1;fill-rule:nonzero;stroke:none"
         id="path162" /><path
         d="m 2373.33,3259.69 c -3.26,-2.28 -6.52,-3.26 -10.11,-3.26 -4.89,0 -9.78,1.96 -13.04,6.2 -173.23,219.87 -489.02,379.72 -815.57,506.62 4.89,9.78 10.12,19.26 15.66,29.03 329.49,-128.52 648.54,-290.66 825.68,-515.43 5.54,-7.18 4.24,-17.28 -2.62,-23.16"
         style="fill:#dae6ef;fill-opacity:1;fill-rule:nonzero;stroke:none"
         id="path164" /><path
         d="m 2434.34,2986.32 c -3.27,-3.26 -7.18,-4.57 -11.42,-4.57 -4.24,0 -8.48,1.31 -11.42,4.57 -262.61,264.56 -565.99,451.49 -877.86,540.55 -19.58,5.54 -39.15,10.43 -58.73,15 0.33,11.1 1.31,22.19 2.61,32.95 21.86,-4.89 43.72,-10.44 65.25,-16.64 317.09,-90.36 625.37,-280.22 891.57,-548.7 6.52,-6.53 6.52,-16.64 0,-23.16"
         style="fill:#dae6ef;fill-opacity:1;fill-rule:nonzero;stroke:none"
         id="path166" /><path
         d="m 5935.22,8818.04 c -40.55,14.79 -91.16,7.12 -149.89,-35.36 -121.91,-88.18 -134.77,-442.76 58.77,-430.4 254.39,16.24 247.76,408.62 91.12,465.76"
         style="fill:#0a2a44;fill-opacity:1;fill-rule:nonzero;stroke:none"
         id="path168" /><path
         d="m 5852.15,8395.17 c 50.83,-94.73 137.93,-56.12 195.64,5.23 64.09,68.12 71.7,200.34 54.13,296.9 -25.46,139.95 -163.59,109.44 -228.56,22.4 -55.68,-74.61 -66.81,-239.53 -21.21,-324.53"
         style="fill:#95b2ce;fill-opacity:1;fill-rule:nonzero;stroke:none"
         id="path170" /><path
         d="m 4796.39,8461.67 c -579.95,-41.42 -1200.4,-116.8 -1211.3,98.43 324.24,83.78 653.78,136.11 982.06,195.91 100.61,18.38 246.38,32.09 394.94,24.61 95,-141.09 68.22,-302.12 -165.7,-318.95"
         style="fill:#fff4bd;fill-opacity:1;fill-rule:nonzero;stroke:none"
         id="path172" /><path
         d="m 5917.29,3167.95 c -50.06,3.66 -104.95,-3.48 -133.41,-12.35 -82.59,-25.8 -122.75,-94.56 -66.93,-170.24 84.79,-114.98 367.32,11.25 301.22,139.49 -14.25,27.66 -55.6,39.8 -100.88,43.1"
         style="fill:#dae6ef;fill-opacity:1;fill-rule:nonzero;stroke:none"
         id="path174" /><path
         d="m 6551.49,3368.75 c -2.94,1.69 -6.02,3.32 -9.25,4.88 -121.97,59.13 -292.7,-2.71 -302.93,-133.04 -7.73,-98.34 78.01,-164.08 185.04,-150.34 118.23,15.2 254.41,205.27 127.14,278.5"
         style="fill:#dae6ef;fill-opacity:1;fill-rule:nonzero;stroke:none"
         id="path176" /><path
         d="m 6439.56,2968.47 c -96.28,11.08 -257.51,-76.21 -158.13,-171.69 110.68,-106.35 313.49,117.63 183.03,165.96 -7.57,2.82 -15.96,4.69 -24.9,5.73"
         style="fill:#dae6ef;fill-opacity:1;fill-rule:nonzero;stroke:none"
         id="path178" /><path
         d="m 5561.66,3467.08 c 2.84,-0.75 5.7,-1.46 8.56,-2.1 56.44,-12.89 381.94,-23.53 338.68,95.91 -45.12,124.55 -264.32,132.17 -368.88,114.57 -24.71,-4.15 -49.69,-10.38 -70.58,-24.23 -20.89,-13.84 -37.24,-36.53 -37.9,-61.59 -0.52,-19.74 8.57,-38.63 20.53,-54.36 26.53,-34.89 67.06,-56.99 109.59,-68.2"
         style="fill:#dae6ef;fill-opacity:1;fill-rule:nonzero;stroke:none"
         id="path180" /><path
         d="m 5334.47,3451.08 c -33.24,4.3 -71.19,-2.11 -105.93,-20.79 -58.67,-31.55 -117.43,-82.02 -73.55,-153.64 57.22,-93.4 200.69,-76.7 250.35,14.8 49.97,92.07 0.36,150.42 -70.87,159.63"
         style="fill:#dae6ef;fill-opacity:1;fill-rule:nonzero;stroke:none"
         id="path182" /><path
         d="m 4998.38,3707.91 c 40.43,67.25 -43.25,138.69 -137.51,144.64 -85.33,5.39 -222.16,-42.81 -278.82,-86.3 -95.86,-73.59 50.56,-127.62 144.59,-139.48 94.43,-11.9 229.23,10.46 271.74,81.14"
         style="fill:#dae6ef;fill-opacity:1;fill-rule:nonzero;stroke:none"
         id="path184" /><path
         d="m 8762.39,3061.97 c -23.18,-0.97 -53.71,-17.94 -62.79,-28.72 -16.4,-19.47 -24.65,-51.36 8.34,-56.66 27.66,-4.45 91.66,35.95 80.93,69.87 -3.8,11.99 -14.09,16.03 -26.48,15.51"
         style="fill:#fff4bd;fill-opacity:1;fill-rule:nonzero;stroke:none"
         id="path186" /><path
         d="m 8651.15,3349.06 c -59.65,-5.98 -108.44,-101.09 -42.44,-127.19 69.29,-27.4 144.92,97.66 66.76,124.41 -8.14,2.78 -16.33,3.58 -24.32,2.78"
         style="fill:#fff4bd;fill-opacity:1;fill-rule:nonzero;stroke:none"
         id="path188" /><path
         d="m 9081.09,3268.3 c 107.6,-42.45 229.66,178.18 100.79,161.21 -57.38,-7.56 -211.99,-117.34 -100.79,-161.21"
         style="fill:#fff4bd;fill-opacity:1;fill-rule:nonzero;stroke:none"
         id="path190" /><path
         d="m 6594.28,2006.96 c -3.34,0.09 -6.97,-0.12 -10.91,-0.69 -47.19,-6.77 -163.04,-109.87 -72.87,-137.07 83.41,-25.2 158.81,135.66 83.78,137.76"
         style="fill:#fff4bd;fill-opacity:1;fill-rule:nonzero;stroke:none"
         id="path192" /><path
         d="m 6364.93,2209.37 c 52.49,-24.85 69.42,-170.65 -42.61,-177.68 -77.78,-4.88 -57.33,88.07 -31.85,132.19 26.52,45.93 53.36,55.48 74.46,45.49"
         style="fill:#fff4bd;fill-opacity:1;fill-rule:nonzero;stroke:none"
         id="path194" /><path
         d="m 6057.05,1944.6 c -27.67,-0.6 -54.66,-34 -35.91,-60.7 1.17,-1.6 2.4,-3.1 3.68,-4.5 30.73,-33 90.95,16.5 58.78,53 -7.76,8.8 -17.19,12.4 -26.55,12.2"
         style="fill:#fff4bd;fill-opacity:1;fill-rule:nonzero;stroke:none"
         id="path196" /><path
         d="m 7173.51,5521.84 c -180.65,-387.79 -73.81,-290.92 -270.03,-378.75 -22.75,-9.97 -49.53,-22.75 -81.61,-38.94 -3.74,-1.87 -7.17,-3.74 -10.9,-5.29 -98.43,-49.52 -200.29,-85.34 -304,-108.7 -150.13,-33.96 -304.62,-41.74 -459.11,-25.55 -6.84,0.63 -13.09,1.56 -19.3,2.19 -22.12,2.49 -43.92,5.59 -65.73,9.33 -14.64,2.19 -28.96,4.67 -43.3,7.48 -46.09,8.73 -91.25,19.62 -136.1,32.4 -18.07,4.98 -36.45,10.27 -54.51,16.19 -9.65,2.8 -19.62,6.23 -29.28,9.34 -32.7,11.21 -65.1,23.05 -97.17,36.14 -15.89,6.54 -32.09,13.08 -47.66,20.24 -15.26,6.54 -30.53,13.4 -45.48,20.24 -7.16,3.43 -14.33,6.86 -21.49,10.28 -63.53,30.84 -125.52,65.1 -185.33,102.48 -14.01,8.72 -27.72,17.75 -41.42,26.79 -15.57,9.97 -30.83,20.24 -45.78,30.84 -96.56,66.96 -189.69,143.57 -277.83,229.22 -6.86,6.24 -13.4,13.09 -20.25,19.63 -66.66,65.73 -130.2,136.43 -189.99,212.11 -19.94,24.61 -39.56,50.15 -58.56,76.01 -11.53,15.57 -22.74,30.83 -33.64,46.72 l 26.79,2.18 200.27,16.5 489.94,40.49 38.31,3.12 h 1681.94 l 101.22,-412.69"
         style="fill:#95b2ce;fill-opacity:1;fill-rule:nonzero;stroke:none"
         id="path198" /><g
         id="g200"><g
           id="g202"
           clip-path="url(#clipPath206)"><path
             d="m 6174.71,4881.74 h 34.2188 v 3.6484 H 6174.71 Z"
             style="fill:#5c3830;fill-opacity:1;fill-rule:nonzero;stroke:none"
             id="path208" /></g></g><path
         d="m 6564.49,5567.16 c -371.09,151.67 -766.17,295.28 -1115.15,367.35 h 267.82 c 269.79,-66.7 641.11,-161.74 875.79,-344.43 -9.61,-7.18 -19.11,-14.83 -28.46,-22.92"
         style="fill:#577ca6;fill-opacity:1;fill-rule:nonzero;stroke:none"
         id="path210" /><path
         d="m 6326.29,8488.87 -13.52,7.72 -0.84,-1.47 13.52,-7.72 -13.37,7.98 c -3.3,-5.47 -8.04,-9.3 -14.74,-12.17 -6.66,-2.82 -15.17,-4.29 -24.17,-4.28 -14.08,-0.05 -29.28,3.66 -39.43,8.68 -5.28,2.66 -7.6,5.27 -9.38,8.51 -1.72,3.25 -2.73,7.71 -2.73,13.49 -0.07,10.58 3.63,24.71 7.91,38.03 5.23,16.67 9.26,36.45 15.53,53.98 3.1,8.75 6.71,16.84 10.93,23.5 4.23,6.68 8.96,11.86 14.37,15.47 3.18,2.1 4.7,2.21 5.33,2.23 l 1.32,-0.31 c 1.02,-0.42 3.06,-1.88 5.29,-4.74 3.38,-4.23 6.89,-11.17 9.52,-18.34 2.66,-7.17 4.59,-14.58 5.67,-19.85 2.8,-13.55 7.85,-27.98 12.04,-42.52 4.23,-14.46 7.49,-28.88 7.45,-40.65 -0.01,-8.12 -1.44,-14.72 -4.37,-20.07 l 13.67,-7.47 -13.52,7.72 13.52,-7.72 13.66,-7.47 c 6.11,11.17 8.19,23.31 8.18,35.01 -0.04,17.1 -4.23,33.85 -8.68,49.32 -4.48,15.41 -9.34,29.69 -11.44,40.11 -2.12,10.18 -6.15,25.01 -13.3,38.76 -3.62,6.87 -8.02,13.56 -14.19,19.19 -3.09,2.8 -6.68,5.33 -10.88,7.19 -4.17,1.87 -8.98,3 -13.94,2.98 -7.92,0.02 -15.72,-2.81 -22.65,-7.48 -9.88,-6.61 -17.45,-15.34 -23.38,-24.72 -8.89,-14.13 -14.4,-29.87 -18.82,-44.85 -4.37,-14.95 -7.63,-29.26 -11,-39.87 -4.41,-14.12 -9.29,-30.46 -9.37,-47.43 0.01,-9.23 1.56,-18.93 6.32,-28 4.71,-9.08 12.81,-16.95 23.27,-21.99 15.13,-7.33 33.9,-11.78 53.1,-11.83 12.23,0.01 24.66,1.86 36.24,6.71 11.53,4.8 22.32,12.99 29.41,24.92 l 0.06,0.1 0.93,1.62 0.06,0.11 0.08,0.15 -13.66,7.47"
         style="fill:#000000;fill-opacity:1;fill-rule:nonzero;stroke:none"
         id="path212" /><path
         d="m 6671.45,8574.22 c -3.74,-63.54 -54.83,-85.66 -112.13,-88.15 -3.13,-48.28 -11.84,-89.39 -24.61,-124.27 -52.64,-144.22 -174.74,-184.7 -272.23,-184.7 -109.33,0 -220.53,32.39 -266.93,179.71 -11.83,36.75 -19.62,80.68 -22.12,133.31 -46.4,-19 -116.18,18.38 -110.26,83.47 4.05,47.35 58.56,85.04 93.45,72.89 -5.3,151.37 78.8,255.09 317.38,299.01 238.59,-40.49 321.44,-144.52 311.47,-297.14 35.83,11.21 88.45,-26.79 85.98,-74.13"
         style="fill:#ffc9ae;fill-opacity:1;fill-rule:nonzero;stroke:none"
         id="path214" /><path
         d="m 6326.93,8620.58 c 24.27,2.49 41.25,0.33 59.16,2.4 17.8,1.98 35.87,8.63 57.55,15.88 l 3.65,-4.29 c -10.96,-20.44 -31.27,-36.58 -56.24,-41.6 -24.79,-5.45 -51.67,2.42 -66.42,22.46 l 2.3,5.15"
         style="fill:#0a2a44;fill-opacity:1;fill-rule:nonzero;stroke:none"
         id="path216" /><path
         d="m 6039.01,8639.13 c 21.51,-9.91 35.56,-13.52 54.05,-16.64 18.22,-2.33 37.51,-1.37 60.02,1.2 l 2.72,-4.94 c -15.53,-18.2 -40.21,-27.79 -65.32,-26.58 -12.49,0.62 -25.61,3.87 -36.3,11.65 -10.56,7.63 -19.02,19.07 -19.86,32.2 l 4.69,3.11"
         style="fill:#0a2a44;fill-opacity:1;fill-rule:nonzero;stroke:none"
         id="path218" /><path
         d="m 6411.21,8551.03 c -9.32,-19.21 13.4,-28.89 28.4,-31.61 24.85,-4.51 68.93,-1.73 79.63,26.36 11.38,29.88 -28.71,35.26 -48.75,34.43 -21.43,-0.89 -49.06,-8.12 -59.28,-29.18"
         style="fill:#fc7c7c;fill-opacity:1;fill-rule:nonzero;stroke:none"
         id="path220" /><path
         d="m 6594.71,8525.02 c -3.01,0 -5.9,1.76 -7.15,4.71 -1.7,3.96 0.13,8.52 4.08,10.22 5.6,2.4 19.92,14.57 14.17,30.45 -1.7,4.78 -4.01,7.36 -6.81,7.75 -4.08,0.77 -10.22,-3.13 -14.18,-8.6 -2.52,-3.5 -7.42,-4.26 -10.86,-1.8 -3.49,2.5 -4.28,7.37 -1.78,10.86 7.51,10.5 18.94,16.46 28.94,14.96 5.09,-0.69 14.3,-3.95 19.35,-17.88 8.61,-23.78 -8.45,-43.92 -22.69,-50.03 -1,-0.43 -2.04,-0.64 -3.07,-0.64"
         style="fill:#f15a24;fill-opacity:1;fill-rule:nonzero;stroke:none"
         id="path222" /><path
         d="m 5939.01,8528.85 c -8.24,0 -19.1,5.56 -26.76,13.99 -9.32,10.22 -12.69,22.84 -9.59,35.56 2.2,8.76 7.39,15.55 14.27,18.73 11.83,5.57 26.04,1.62 35.25,-9.82 2.71,-3.37 2.2,-8.27 -1.15,-10.95 -3.38,-2.67 -8.28,-2.16 -10.95,1.15 -4.78,5.91 -11.05,8.07 -16.61,5.48 -1.98,-0.91 -4.47,-3.56 -5.69,-8.33 -2.34,-9.52 1.92,-16.79 5.87,-21.2 6.14,-6.85 13.69,-8.55 15.48,-9.04 4.6,0.52 8.25,-2.37 8.82,-6.6 0.61,-4.23 -2.28,-8.15 -6.5,-8.79 l -2.44,-0.18"
         style="fill:#f15a24;fill-opacity:1;fill-rule:nonzero;stroke:none"
         id="path224" /><path
         d="m 5993.07,8513.93 c 17.07,-7.39 51.94,-4.6 64.04,11.07 11.69,15.17 -1.42,31.18 -14.51,39.68 -16.16,10.49 -39.92,13.11 -58.06,6.72 -37.31,-13.16 -17.32,-46.27 8.53,-57.47"
         style="fill:#fc7c7c;fill-opacity:1;fill-rule:nonzero;stroke:none"
         id="path226" /><path
         d="m 6311.96,8777.58 c 19.11,15.67 48.34,19.66 73.02,10.27 24.42,-9.14 45.04,-29.81 49.18,-55.53 0.71,-4.41 -2.29,-8.57 -6.71,-9.28 -2.41,-0.38 -4.74,0.34 -6.48,1.79 l -0.82,0.7 c -15.74,13.31 -30.87,22.77 -47.44,28.64 -16.58,6.04 -33.51,7.57 -55.49,8.75 l -0.46,0.02 c -4.56,0.25 -8.05,4.14 -7.81,8.69 0.13,2.41 1.29,4.53 3.01,5.95"
         style="fill:#9e503b;fill-opacity:1;fill-rule:nonzero;stroke:none"
         id="path228" /><path
         d="m 6160.13,8747.18 c -20.84,4.07 -37.4,7.91 -55.16,8.82 -17.65,1.12 -35.07,0.01 -54.18,-3.63 l -1.29,-0.24 c -4.37,-0.83 -8.59,2.04 -9.42,6.42 -0.45,2.32 0.17,4.62 1.49,6.38 15.48,20.4 41.45,27.83 65.36,26.86 24.21,-1.07 48.31,-12.41 62.05,-31.8 2.65,-3.74 1.77,-8.9 -1.97,-11.54 -1.91,-1.36 -4.2,-1.78 -6.34,-1.38 l -0.54,0.11"
         style="fill:#9e503b;fill-opacity:1;fill-rule:nonzero;stroke:none"
         id="path230" /><path
         d="m 6523.49,8973.83 c -17.13,-38.31 -49.83,-72.26 -90.33,-97.8 -30.84,-19.93 -66.35,-34.57 -103.4,-42.67 -75.69,-16.51 -157.92,-5.61 -218.96,48.59 l -144.22,-175.36 c -95.31,125.21 -87.52,225.82 4.05,222.08 38.62,152 112.45,202.77 143.9,104.96 71.95,94.38 152.93,161.97 268.49,128.64 l 35.19,42.67 c 27.1,-17.44 49.22,-35.51 66.35,-53.88 56.99,-60.11 62.92,-123.03 38.93,-177.23"
         style="fill:#9e503b;fill-opacity:1;fill-rule:nonzero;stroke:none"
         id="path232" /><path
         d="m 6569.9,8749.58 c -28.35,-10.28 -54.82,-4.05 -76.93,11.83 -35.82,24.92 -59.81,73.51 -59.81,114.62 0,10.28 1.57,20.25 4.68,29.28 l 62.3,66.03 c 7.78,1.56 15.56,2.49 23.35,2.49 28.97,1.25 57,-6.85 80.36,-21.18 76.93,-45.16 106.83,-152 -33.95,-203.07"
         style="fill:#9e503b;fill-opacity:1;fill-rule:nonzero;stroke:none"
         id="path234" /><path
         d="m 6217.42,8667.99 c 2.05,-25.1 -0.94,-50.19 -6.81,-74.51 -2.68,-12.27 -6.88,-24.09 -11,-35.95 -4.83,-11.99 -8.48,-21.03 -8.77,-29.86 -0.49,-8.57 1.11,-12.07 7.63,-16.68 6.43,-4.72 17.88,-7.16 28.87,-9.59 22.25,-3.84 45.44,-5.65 69.54,1.11 -18.02,-18.54 -45.85,-25.24 -71.67,-25.32 -13.06,-0.04 -26.34,1.12 -41.38,8.2 -7.26,3.73 -14.49,10.21 -18.9,18.64 -4.45,8.43 -5.62,17.68 -5.15,25.61 1.28,15.65 7.81,29.31 12.78,39.45 l 15.14,32.2 29.72,66.7"
         style="fill:#f15a24;fill-opacity:1;fill-rule:nonzero;stroke:none"
         id="path236" /><path
         d="m 6370.57,8466.59 c -44.39,-22.7 -89.52,-29.8 -135,-29.18 -22.7,0.58 -44.97,3.77 -67.06,7.72 -22.28,4.32 -43.29,10.19 -66.35,21.13 l -0.35,0.17 c -1.08,0.5 -2.36,0.58 -3.55,0.11 -2.29,-0.92 -3.42,-3.51 -2.5,-5.81 9.94,-24.97 32.78,-42.25 56.34,-53.28 l -2.05,-1.15 -0.57,-0.37 c -3.42,-2.49 -4.17,-7.27 -1.68,-10.68 11.11,-15.25 24.94,-23 39.15,-28.1 14.3,-5.04 29.25,-5.46 43.91,-4.43 14.69,1 29.19,4.36 43.09,9.66 13.81,5.65 27.17,12.74 38.96,24.36 l 1.51,2.29 c 1.4,3.46 -0.28,7.38 -3.74,8.77 l -0.25,0.09 c 1.45,0.61 2.98,1.07 4.42,1.72 24.53,11.35 47.23,28.23 61.48,50.8 0.76,1.27 0.91,2.98 0.15,4.39 -1.14,2.13 -3.79,2.93 -5.91,1.79"
         style="fill:#fc7c7c;fill-opacity:1;fill-rule:nonzero;stroke:none"
         id="path238" /><path
         d="m 5954.61,2834.45 c -298.27,-210.55 -750.44,-547.26 -705.71,-710.14 0.88,-3.68 2.07,-7.32 3.53,-10.63 197.06,-247.68 632.99,43.88 970.45,244.43 l 11.26,107.16 23.83,228.83 -303.36,140.35"
         style="fill:#0a2a44;fill-opacity:1;fill-rule:nonzero;stroke:none"
         id="path240" /><path
         d="M 6253.59,2302.37 C 5556.83,1646.7 5126.86,1937.6 5236.8,2120.13 l 12.1,4.18 c 0.88,-3.68 2.07,-7.32 3.53,-10.63 197.06,-247.68 632.99,43.88 970.45,244.43 l 11.26,107.16 19.45,-162.9"
         style="fill:#ffffff;fill-opacity:1;fill-rule:nonzero;stroke:none"
         id="path242" /><path
         d="m 5848.28,2425.63 c -2.49,0 -5.02,0.58 -7.36,1.86 -89.83,48.12 -178.73,103.35 -192.79,202.36 -1.21,8.52 4.72,16.4 13.24,17.61 8.24,1.09 16.39,-4.68 17.61,-13.23 10.83,-76.31 75.61,-125.2 176.66,-179.31 7.57,-4.04 10.43,-13.47 6.36,-21.07 -2.8,-5.24 -8.19,-8.22 -13.72,-8.22"
         style="fill:#ffffff;fill-opacity:1;fill-rule:nonzero;stroke:none"
         id="path244" /><path
         d="m 5750.91,2362.49 c -2.49,0 -5.02,0.58 -7.36,1.86 -89.85,48.08 -178.76,103.35 -192.81,202.36 -1.21,8.51 4.71,16.4 13.23,17.61 8.25,1.15 16.4,-4.72 17.61,-13.24 10.83,-76.31 75.65,-125.19 176.7,-179.3 7.57,-4.05 10.43,-13.48 6.35,-21.09 -2.79,-5.22 -8.18,-8.2 -13.72,-8.2"
         style="fill:#ffffff;fill-opacity:1;fill-rule:nonzero;stroke:none"
         id="path246" /><path
         d="m 5664.8,2300.34 c -2.49,0 -5.01,0.59 -7.36,1.86 -89.85,48.06 -178.76,103.3 -192.81,202.36 -1.22,8.52 4.72,16.4 13.23,17.62 8.24,1.25 16.39,-4.69 17.61,-13.23 10.83,-76.38 75.65,-125.23 176.7,-179.31 7.57,-4.04 10.43,-13.48 6.36,-21.09 -2.81,-5.23 -8.19,-8.21 -13.73,-8.21"
         style="fill:#ffffff;fill-opacity:1;fill-rule:nonzero;stroke:none"
         id="path248" /><path
         d="m 7547.27,7629.55 -15.57,-815.02 -459.41,7.67 V 5934.51 H 5390.37 l 54.49,1072.1 -552.86,-163.52 -346.51,661.87 c 605.74,276.18 955.25,307.3 1423.59,386.83 l 571.23,-20.87 c 711.07,-44.11 877.19,-147.94 1006.96,-241.37"
         style="fill:#ffffff;fill-opacity:1;fill-rule:nonzero;stroke:none"
         id="path250" /><path
         d="m 6558.36,7760.67 c -159.79,-140.16 -502.39,-136.42 -638.51,-4.04 0,0 47.97,406.15 75.68,600.2 30.22,-95.94 88.15,-143.28 155.11,-164.15 35.51,-11.53 73.82,-15.57 111.83,-15.57 30.52,0 63.22,4.04 95.61,14.01 71.33,21.18 140.48,71.33 176.61,170.69 l 21.18,-539.16 1.86,-44.53 0.63,-17.45"
         style="fill:#ffc9ae;fill-opacity:1;fill-rule:nonzero;stroke:none"
         id="path252" /><path
         d="m 6557.73,7778.12 c -9.96,5.6 -19.61,11.83 -28.96,18.37 -69.14,47.34 -125.21,111.82 -185.32,172.86 -72.57,73.52 -134.55,143.59 -192.81,223.33 35.51,-11.53 73.82,-15.57 111.83,-15.57 30.52,0 63.22,4.04 95.61,14.01 71.33,21.18 140.48,71.33 176.61,170.69 l 21.18,-539.16 1.86,-44.53"
         style="fill:#ff7546;fill-opacity:1;fill-rule:nonzero;stroke:none"
         id="path254" /><path
         d="m 5901.69,7138.96 v -799.43 h 840.98 v 820.2 c 0,0 -851.36,-10.38 -840.98,-20.77"
         style="fill:#dae6ef;fill-opacity:1;fill-rule:nonzero;stroke:none"
         id="path256" /><path
         d="m 6182.66,8920.18 c 13.57,-11.62 28.03,-21.15 44.3,-25.4 16.05,-4.72 32.89,-4.29 49.15,-2.01 32.66,5.28 63.96,20.18 91.69,39.21 28.17,18.76 52.94,42.24 70.01,70.95 16.68,28.78 25.98,62.86 21.28,98.29 13.79,-33.06 10.88,-73.23 -5.12,-106.7 -15.62,-34.05 -42.95,-61.39 -73.06,-81.85 -30.37,-20.24 -65.28,-35.84 -102.95,-37.96 -18.63,-0.98 -37.93,1.36 -54.99,9.41 -16.77,8.51 -30.75,21.04 -40.31,36.06"
         style="fill:#e58c3c;fill-opacity:1;fill-rule:nonzero;stroke:none"
         id="path258" /><path
         d="m 6486.35,8877.35 c 7.69,-14.69 15.27,-26.65 24.61,-34.67 9.35,-7.82 19.72,-12.56 31.67,-13.92 11.78,-1.98 24.63,-0.84 37.89,1.71 13.31,2.83 26.8,7.52 42.1,13.79 -12.36,-30.54 -47.91,-51.29 -84.66,-46.28 -18.18,2.6 -36.51,13.34 -45.89,29.56 -9.73,15.87 -10.88,34.34 -5.72,49.81"
         style="fill:#e58c3c;fill-opacity:1;fill-rule:nonzero;stroke:none"
         id="path260" /><path
         d="m 6232.78,8964.25 c 27.94,-6.33 52.28,3.23 73.94,16.76 21.74,13.65 41.87,30.45 52.02,50.71 10.47,20.75 10.51,41.28 -8.07,55.82 -18.12,14.52 -44.78,22.52 -72.61,23.42 25.82,11.69 58.06,12.22 86.3,-3.33 14.16,-7.51 26.9,-22.59 30.3,-40.67 3.17,-18.02 -1.2,-34.95 -8.26,-49.51 -15.72,-28.97 -41.87,-47.13 -68.87,-58.11 -26.22,-11.82 -62.33,-14.28 -84.75,4.91"
         style="fill:#e58c3c;fill-opacity:1;fill-rule:nonzero;stroke:none"
         id="path262" /><path
         d="m 6457.15,7046.83 -35.04,-218.03 202.45,81.76 z"
         style="fill:#95b2ce;fill-opacity:1;fill-rule:nonzero;stroke:none"
         id="path264" /><path
         d="m 6262.48,6621.15 c 0,-88.16 -71.46,-159.63 -159.63,-159.63 -88.16,0 -159.63,71.47 -159.63,159.63 0,88.16 71.47,159.63 159.63,159.63 88.17,0 159.63,-71.47 159.63,-159.63"
         style="fill:#ffffff;fill-opacity:1;fill-rule:nonzero;stroke:none"
         id="path266" /><path
         d="m 6485.03,6420.35 c -39.21,0 -78.69,13.05 -116.81,46.05 -65.46,56.6 -74.94,155.16 -82.55,234.33 -2.64,27.19 -5.1,52.9 -9.42,73.76 l -1.8,8.8 c -23.51,114.42 -46.69,189.86 -150.44,195.27 -98.28,6.23 -226.4,-89.73 -281.51,-155.49 -11.04,-13.14 -30.66,-14.97 -43.89,-3.87 -13.17,11.05 -14.9,30.69 -3.86,43.9 65.03,77.59 211.15,184.17 332.52,177.69 159.56,-8.36 187.66,-145.12 208.2,-244.97 l 1.8,-8.74 c 4.98,-24.15 7.62,-51.46 10.4,-80.39 6.9,-71.66 14.71,-152.9 61.31,-193.2 83.53,-72.22 177.27,-7 291.16,85.74 23.5,19.16 45.71,37.23 66.36,51.46 14.18,9.77 33.62,6.15 43.31,-7.96 9.77,-14.18 6.22,-33.56 -7.96,-43.32 -18.62,-12.83 -39.88,-30.14 -62.39,-48.48 -67.92,-55.3 -160.36,-130.58 -254.43,-130.58"
         style="fill:#ffc5c8;fill-opacity:1;fill-rule:nonzero;stroke:none"
         id="path268" /><path
         d="M 6362.76,3021.67 6305.45,2841.94 6258.11,2694 c -422.36,-186.26 -480.29,-65.1 -303.37,140.47 l 23.67,97.18 55.12,225.82 19.62,-8.1 259.16,-106.83 50.45,-20.87"
         style="fill:#ffc9ae;fill-opacity:1;fill-rule:nonzero;stroke:none"
         id="path270" /><path
         d="m 5978.97,3180.14 54.7,-22.73 7.8,-3.06 321.24,-132.56 32.82,-13.7 c 497.63,899.41 1259.77,2287.22 619.88,2606.28 -13.55,6.95 -27.02,12.95 -40.12,18.06 -717.96,298.52 -968.05,-1387 -996.32,-2452.29"
         style="fill:#95b2ce;fill-opacity:1;fill-rule:nonzero;stroke:none"
         id="path272" /><path
         d="m 6041.47,3154.35 v 0 l -7.8,3.06 -54.7,22.73 c 13.85,521.65 80.84,1191.94 229.96,1705.25 122.62,1.93 244.76,6.36 363.19,12.56 -227.94,-558.2 -345.4,-1163.98 -530.65,-1743.6 m 808.23,2293.18 c -92.58,39.67 -188.07,79.92 -285.21,119.63 74.28,64.29 156.9,100.16 248.58,100.16 51.2,0 105.26,-11.2 162.22,-34.89 -44.59,-60.48 -86.35,-122.16 -125.59,-184.9"
         style="fill:#577ca6;fill-opacity:1;fill-rule:nonzero;stroke:none"
         id="path274" /><path
         d="m 6329.76,8833.36 c 22.46,28.99 44.11,58.08 63.9,88.53 24.95,19.21 46.93,43.46 60.31,72.63 11.66,24.39 16.37,52.32 12.73,78.48 8.29,26.23 14.24,52.44 17.86,78.06 36.73,-38.74 52.25,-78.66 52.22,-116.64 -0.01,-20.96 -4.76,-41.32 -13.29,-60.59 v 0 c -7.79,0 -15.57,-0.93 -23.35,-2.49 l -62.3,-66.03 c -3.11,-9.03 -4.68,-19 -4.68,-29.28 v 0 c -30.84,-19.93 -66.35,-34.57 -103.4,-42.67"
         style="fill:#62190e;fill-opacity:1;fill-rule:nonzero;stroke:none"
         id="path276" /><path
         d="m 6492.97,8761.41 v 0 c -35.82,24.92 -59.81,73.51 -59.81,114.62 v 0 c 0,10.28 1.57,20.25 4.68,29.28 l 62.3,66.03 c 7.78,1.56 15.56,2.49 23.35,2.49 v 0 0 0 c 1.95,0.09 3.9,0.13 5.84,0.13 26.88,0 52.73,-7.94 74.52,-21.31 -5.3,-12.77 -10.9,-25.54 -17.13,-38.31 -14.39,-29.11 -30.25,-57.5 -47.49,-85.1 -10.53,1.82 -19.82,6.37 -28.27,13.44 -9.34,8.02 -16.92,19.98 -24.61,34.67 -5.16,-15.47 -4.01,-33.94 5.72,-49.81 6.58,-11.38 17.56,-20.06 29.81,-25.13 -9.29,-13.88 -18.93,-27.55 -28.91,-41"
         style="fill:#62190e;fill-opacity:1;fill-rule:nonzero;stroke:none"
         id="path278" /><path
         d="m 6393.66,8921.89 c 29.32,45.13 54.54,93.26 72.21,148.49 0.28,0.88 0.56,1.75 0.83,2.62 3.64,-26.16 -1.07,-54.09 -12.73,-78.48 -13.38,-29.17 -35.36,-53.42 -60.31,-72.63"
         style="fill:#8e2c0e;fill-opacity:1;fill-rule:nonzero;stroke:none"
         id="path280" /><path
         d="m 6521.88,8802.41 c -12.25,5.07 -23.23,13.75 -29.81,25.13 -9.73,15.87 -10.88,34.34 -5.72,49.81 7.69,-14.69 15.27,-26.65 24.61,-34.67 8.45,-7.07 17.74,-11.62 28.27,-13.44 -5.64,-9.03 -11.42,-17.97 -17.35,-26.83"
         style="fill:#8e2c0e;fill-opacity:1;fill-rule:nonzero;stroke:none"
         id="path282" /><path
         d="m 6554.91,8422.51 c 66.24,-94.81 179.75,-56.17 254.96,5.23 83.51,68.18 93.44,200.52 70.54,297.17 -33.17,140.06 -213.19,109.52 -297.85,22.41 -72.57,-74.67 -87.07,-239.73 -27.65,-324.81"
         style="fill:#95b2ce;fill-opacity:1;fill-rule:nonzero;stroke:none"
         id="path284" /><path
         d="m 6880.83,8770.33 c -74.12,64.31 -217.48,18.17 -258.33,-77.25 -33.19,-77.52 -23.33,-179.14 9.78,-255.35 31.85,-73.26 117.63,-107.83 195.22,-65.94 128.33,69.27 129.81,230.53 87.95,346.69 -7.92,21.95 -19.9,39.08 -34.62,51.85"
         style="fill:#0a2a44;fill-opacity:1;fill-rule:nonzero;stroke:none"
         id="path286" /><path
         d="m 7901.28,7477.7 c -260.48,37.64 -536.81,31.15 -1175.42,276.43 -111.07,72.68 -93.02,221.84 -98.33,315.92 -13.23,234.49 -20.51,504.24 16.36,509.48 32.68,-7.86 47.67,-146.06 67.42,-249.18 -5.49,127.33 -23.32,284.76 14.55,306.28 28.29,5.17 52.46,-158.03 76.69,-275.13 3.34,126.88 -1.19,270.79 39.66,316.65 52.59,-1.11 52.79,-180.94 27.76,-324.44 63.64,142.5 35.92,302.58 71.41,319.25 61.05,-4.43 48.9,-289.02 -3.98,-513.92 95.28,61.14 206.88,152.34 253.87,124.59 l -243.28,-311.47 c 750.99,36.34 1548.2,119.61 1761.14,-140.16 187.88,-229.22 -86.4,-700.16 -1172.23,-846.16 v 482.78 l 364.38,9.08"
         style="fill:#ffc9ae;fill-opacity:1;fill-rule:nonzero;stroke:none"
         id="path288" /><path
         d="m 5832.94,8723.44 c -25.27,131.9 8.11,279.94 99.83,389.63 22.23,27.83 49.01,52.03 77.6,73.62 28.92,21.09 60.9,38.99 92.57,53.24 64.09,28.73 133.66,45.28 205.07,48.78 71.26,2.84 145.31,-10.13 211.68,-42.91 64.11,-34.16 122.17,-83.21 159.1,-145.65 78.39,-122.83 78.61,-282.01 16.04,-401.77 -4,-7.66 -13.46,-10.63 -21.13,-6.63 -6.6,3.46 -9.73,10.97 -7.88,17.89 l 0.06,0.2 c 32.16,121.18 13.04,250.7 -56.42,343.88 -33.8,46.78 -79.52,83.17 -131.02,107.16 -50.71,24.11 -108.52,33.07 -166.7,30.85 -58.37,-1.52 -117.18,-15.56 -172.53,-37.54 -55.53,-21.66 -103.95,-53.36 -145.27,-95.71 -82.22,-84.67 -127.43,-206.06 -129.98,-332.31 -0.12,-8.65 -7.22,-15.55 -15.86,-15.44 -7.53,0.1 -13.76,5.61 -15.16,12.71"
         style="fill:#0a2a44;fill-opacity:1;fill-rule:nonzero;stroke:none"
         id="path290" /><path
         d="m 7035.15,5367.33 -10.12,-35.2 -58.96,-208.72 -40.8,-144.07 -16.75,-58.67 c -962.35,-79.41 -2390.27,-74.48 -2484.46,498.26 -11.9,70.99 -3,150.98 29.82,240.29 249.04,691.83 1633.9,120.73 2581.27,-291.89"
         style="fill:#95b2ce;fill-opacity:1;fill-rule:nonzero;stroke:none"
         id="path292" /><path
         d="m 7963.23,4264.99 c -130.54,-32.08 -445.09,425.58 -708.41,668.52 l 107.2,326.93 337.82,0.75 c 187.35,-353.74 416.57,-822.85 263.39,-996.2"
         style="fill:#0a2a44;fill-opacity:1;fill-rule:nonzero;stroke:none"
         id="path294" /><path
         d="m 8025.66,4213.44 -62.43,51.55 c 153.19,173.35 -76.04,642.46 -263.39,996.2 l 146.8,6.64 c 197.2,-452.37 422.12,-887.11 179.02,-1054.39"
         style="fill:#ffffff;fill-opacity:1;fill-rule:nonzero;stroke:none"
         id="path296" /><path
         d="m 7538.21,4534.16 c -5.68,0 -11.16,3.13 -13.89,8.55 -3.9,7.67 -0.79,17.04 6.87,20.93 68.92,34.86 94.41,114 113.23,230.43 1.35,8.53 9.44,14.51 17.87,12.87 8.48,-1.36 14.26,-9.36 12.86,-17.85 -16.7,-103.33 -40.48,-208.03 -129.91,-253.25 -2.25,-1.12 -4.65,-1.68 -7.03,-1.68"
         style="fill:#ffffff;fill-opacity:1;fill-rule:nonzero;stroke:none"
         id="path298" /><path
         d="m 7629.46,4458.67 c -5.68,0 -11.16,3.14 -13.89,8.55 -3.9,7.66 -0.79,17.03 6.87,20.92 68.89,34.86 94.39,114.01 113.21,230.44 1.33,8.49 9.46,14.39 17.86,12.87 8.48,-1.37 14.26,-9.37 12.86,-17.86 -16.7,-103.32 -40.48,-208.01 -129.88,-253.25 -2.25,-1.12 -4.65,-1.67 -7.03,-1.67"
         style="fill:#ffffff;fill-opacity:1;fill-rule:nonzero;stroke:none"
         id="path300" /><path
         d="m 7716.12,4393.92 c -5.69,0 -11.16,3.12 -13.9,8.54 -3.89,7.67 -0.82,17.03 6.87,20.93 68.9,34.85 94.39,114.03 113.21,230.47 1.34,8.51 9.56,14.5 17.86,12.86 8.49,-1.37 14.26,-9.37 12.87,-17.85 -16.67,-103.33 -40.45,-208.02 -129.89,-253.28 -2.24,-1.14 -4.64,-1.67 -7.02,-1.67"
         style="fill:#ffffff;fill-opacity:1;fill-rule:nonzero;stroke:none"
         id="path302" /><path
         d="m 7469.9,4926.16 c -36.33,-29.09 -114.25,-21.06 -215.08,7.35 l -329.55,45.83 39.67,140.06 60.09,212.73 336.99,-71.69 c 131.94,-197.19 154.61,-296.55 107.88,-334.28"
         style="fill:#ffc9ae;fill-opacity:1;fill-rule:nonzero;stroke:none"
         id="path304" /><path
         d="m 7400.54,4907.89 c -38.99,0 -88.69,9.55 -145.72,25.62 l -329.55,45.83 39.67,140.06 c 172.49,-51.89 352.11,-92.91 504.96,-193.24 -15.78,-12.64 -39.42,-18.27 -69.36,-18.27"
         style="fill:#ff7546;fill-opacity:1;fill-rule:nonzero;stroke:none"
         id="path306" /><path
         d="m 6073.07,4884.3 c -793.92,0 -1579.94,114.66 -1649.01,534.63 379.79,-136.78 771.05,-225.43 1168.81,-273.21 239.94,-28.65 482.25,-42.29 725.72,-42.29 154.83,0 310.12,5.51 465.59,16.19 43.47,3.03 86.92,4.44 130.31,4.44 17.2,0 34.4,-0.22 51.58,-0.65 l -40.8,-144.07 -16.75,-58.67 c -107.19,-8.84 -220.14,-16.64 -336.4,-22.72 -118.43,-6.2 -240.57,-10.63 -363.19,-12.56 v 0 c -11.41,-0.18 -22.79,-0.34 -34.22,-0.47 -33.87,-0.41 -67.74,-0.62 -101.64,-0.62"
         style="fill:#577ca6;fill-opacity:1;fill-rule:nonzero;stroke:none"
         id="path308" /><path
         d="M 4580.53,7434.87 C 3139.67,7017.96 3684.16,6140.14 4541.6,5745.16 c 198.53,-104.38 517.45,-319.29 584,-276.44 -2.15,43.64 -134.63,127.44 -225.81,202.46 123.17,-68.04 254.05,-144.91 299.79,-120.69 -11.57,66.93 -143.4,132.11 -249.18,206.35 135.77,-74.47 292.33,-166.3 350.41,-112.91 -25.06,40.01 -151.62,106.64 -260.86,167.41 121.75,-19.42 292.09,-53.02 323.15,-3.89 -38.36,38.51 -257.26,86.82 -385.44,132.37 69.29,8.67 197.85,20.38 214.13,81.76 -189.29,22.56 -369.67,37.37 -494.46,3.9 l -373.76,646.3 529.5,241.38 -272.54,521.71"
         style="fill:#ffc9ae;fill-opacity:1;fill-rule:nonzero;stroke:none"
         id="path310" /><path
         d="m 6305.45,2841.94 c -54.2,53.27 -97.8,102.48 -118.36,130.82 -44.23,61.05 -89.71,118.99 -133.94,176.61 l 259.16,-106.83 50.45,-20.87 -57.31,-179.73"
         style="fill:#ff7546;fill-opacity:1;fill-rule:nonzero;stroke:none"
         id="path312" /><path
         d="m 8471.83,10564 c -52.14,-61.5 -166.1,-107.3 -347.05,-96 -123.63,7.8 -495.45,-7.8 -495.45,-7.8 -297.5,-53.8 -437.87,92.3 -379.6,201.5 41.29,4.5 79.98,7.8 112.54,11.1 209.02,21 455.56,24.8 665.07,-13.9 137.31,-25.5 297.97,-47.9 444.49,-94.9"
         style="fill:#dae6ef;fill-opacity:1;fill-rule:nonzero;stroke:none"
         id="path314" /><path
         d="m 4022.5,1025.8 c 500.5,-338.499 1345.02,474.4 489.37,672.8 287.5,-324.2 -67.29,-623.9 -489.37,-672.8"
         style="fill:#95b2ce;fill-opacity:1;fill-rule:nonzero;stroke:none"
         id="path316" /><path
         d="m 4466.34,1831 c -963.68,-575.3 -1762.3,-723.8 -2231.05,-19.6 -23.37,52.3 -39.25,103.1 -48.28,151.4 -74.76,395.22 307.41,653.11 869.93,619.79 259.15,108.39 609.86,151.68 899.84,86.28 363.17,-81.61 631.97,-332.65 509.56,-837.87"
         style="fill:#dae6ef;fill-opacity:1;fill-rule:nonzero;stroke:none"
         id="path318" /><path
         d="m 4466.34,1831 c -963.68,-575.3 -1762.3,-723.8 -2231.05,-19.6 -23.37,52.3 -39.25,103.1 -48.28,151.4 49.52,-19.4 100.6,-35.5 155.42,-44.3 299.63,-48.2 530.12,-28.6 793,120.88 276.27,156.99 503.02,384.36 753.44,576.85 20.56,15.88 43.3,33.63 67.91,52.64 363.17,-81.61 631.97,-332.65 509.56,-837.87"
         style="fill:#95b2ce;fill-opacity:1;fill-rule:nonzero;stroke:none"
         id="path320" /><path
         d="m 3508.57,1605.2 c -245.75,-186.3 -460.98,-266.6 -582.45,-274.1 -1.86,0 -3.74,-0.3 -5.6,-0.3 -7.48,-0.6 -14.64,-0.6 -21.18,0 -1.87,-0.3 -3.43,0 -4.98,0 -4.36,0.3 -8.41,0.6 -12.47,1.2 -1.55,0 -3.11,0.3 -4.67,0.7 -6.85,0.9 -13.08,2.5 -18.68,4.3 -1.25,0.3 -2.81,0.6 -4.05,1.3 -4.36,1.5 -8.1,3.1 -11.21,5.3 -0.94,0.3 -1.87,0.6 -2.5,1.2 -2.18,1.3 -4.05,2.8 -5.92,4.4 v 0.3 c -4.04,3.4 -7.47,7.5 -9.34,12.1 -0.62,1.3 -1.25,2.5 -1.56,3.8 -1.55,4.3 -2.49,9 -2.18,14 0.63,59.2 117.11,167.6 402.73,296.5 h -708.9 c 148.57,-85.7 256.65,-201.5 275.33,-274.1 v -0.3 c 1.88,-7.5 3.12,-14.3 3.12,-20.6 0,-5 -0.62,-9.3 -1.87,-13.4 -1.25,-5.6 -3.73,-10.5 -7.16,-15.2 -4.67,-5.6 -11.22,-10.3 -19.62,-13.1 -4.99,-2.2 -10.59,-3.7 -16.82,-4.4 -9.35,-1.8 -19.94,-2.1 -32.39,-1.5 -84.72,5.3 -243.27,65.4 -500.22,216.1 -124.59,527.67 58.55,850.36 584,861.57 783.03,17.13 813.87,-466.87 708.59,-805.77"
         style="fill:#dae6ef;fill-opacity:1;fill-rule:nonzero;stroke:none"
         id="path322" /><path
         d="m 4552,1644.1 c -248.56,-63.2 -455.99,-247.6 -640.08,-288.7 -346.34,-77.6 -581.2,-117.1 -713.88,-124.3 -14.64,-0.9 -28.35,-1.2 -40.49,-1.2 -8.41,0 -16.51,0 -23.67,0.3 -11.84,0.9 -22.12,1.9 -30.84,3.4 l -1.87,0.3 c -6.85,1.3 -12.15,3.1 -16.82,5 -9.97,3.4 -15.88,8.7 -17.75,15 -14.95,46.7 187.82,159.7 574.35,320.1 177.84,794.6 803.28,928.54 916.65,452.92 23.98,-100.62 25.23,-228.32 -5.6,-382.82"
         style="fill:#ffffff;fill-opacity:1;fill-rule:nonzero;stroke:none"
         id="path324" /><path
         d="m 2881.27,1408.7 c -16.81,-23.1 -29.59,-44.3 -37.99,-65.1 -0.94,0.3 -1.87,0.6 -2.5,1.2 -2.18,1.3 -4.05,2.8 -5.92,4.4 v 0.3 c -4.04,3.4 -7.47,7.5 -9.34,12.1 9.66,21.2 22.12,41.1 36.76,61.4 3.73,5 11.21,6.2 16.19,2.2 5.29,-3.8 6.54,-10.9 2.8,-16.5"
         style="fill:#bf6447;fill-opacity:1;fill-rule:nonzero;stroke:none"
         id="path326" /><path
         d="m 2916.78,1389.7 c -14.95,-20.3 -26.47,-39.3 -34.89,-57.7 -1.55,0 -3.11,0.3 -4.67,0.7 -6.85,0.9 -13.08,2.5 -18.68,4.3 9.96,23.1 23.35,44.6 39.24,66.4 3.74,4.9 11.21,6.2 16.51,2.5 4.99,-3.8 6.23,-11.3 2.49,-16.2"
         style="fill:#bf6447;fill-opacity:1;fill-rule:nonzero;stroke:none"
         id="path328" /><path
         d="m 2953.84,1375.6 c -11.2,-15.5 -20.55,-30.2 -27.72,-44.5 -1.86,0 -3.74,-0.3 -5.6,-0.3 -7.48,-0.6 -14.64,-0.6 -21.18,0 9.34,20.2 21.8,39.2 35.82,58.9 3.73,5.3 10.89,6.2 16.51,2.1 4.98,-3.7 6.23,-10.6 2.17,-16.2"
         style="fill:#bf6447;fill-opacity:1;fill-rule:nonzero;stroke:none"
         id="path330" /><path
         d="m 3142.6,1288.1 c -23.99,-16.2 -42.99,-32.1 -58.25,-49.2 -9.97,3.4 -15.88,8.7 -17.75,15 17.75,20.2 38.93,37.3 62.92,53.5 5.29,3.8 12.77,2.5 16.19,-3.1 3.74,-5.3 2.18,-12.4 -3.11,-16.2"
         style="fill:#bf6447;fill-opacity:1;fill-rule:nonzero;stroke:none"
         id="path332" /><path
         d="m 3169.69,1257.9 c -13.39,-9 -25.23,-18.1 -35.81,-27.7 -11.84,0.9 -22.12,1.9 -30.84,3.4 15.89,16.2 33.64,30.2 53.57,43.6 5.3,3.8 12.46,2.2 16.2,-3.1 3.74,-5.3 2.18,-12.4 -3.12,-16.2"
         style="fill:#bf6447;fill-opacity:1;fill-rule:nonzero;stroke:none"
         id="path334" /><path
         d="m 3199.91,1232.4 -1.87,-1.3 c -14.64,-0.9 -28.35,-1.2 -40.49,-1.2 9.34,7.8 19,14.9 29.27,21.8 5.3,3.7 12.47,2.5 16.2,-3.1 3.74,-5.3 2.18,-12.5 -3.11,-16.2"
         style="fill:#bf6447;fill-opacity:1;fill-rule:nonzero;stroke:none"
         id="path336" /><path
         d="m 2790.94,1401.5 c 3.44,-12.8 4.06,-24.3 1.25,-34 -14.64,16.2 -32.08,30.6 -51.7,44.9 -5.3,4 -6.54,11.2 -2.49,16.5 3.73,5.3 10.9,6.2 16.19,2.5 13.08,-9.3 25.55,-19.3 36.75,-29.6 v -0.3"
         style="fill:#bf6447;fill-opacity:1;fill-rule:nonzero;stroke:none"
         id="path338" /><path
         d="m 2834.86,1349.5 c -5.29,4.3 -9.03,9.6 -10.9,15.9 4.05,-5 7.48,-10.3 10.9,-15.9"
         style="fill:#bf6447;fill-opacity:1;fill-rule:nonzero;stroke:none"
         id="path340" /><path
         d="m 2785.03,1352.3 c -4.67,-5.6 -11.22,-10.3 -19.62,-13.1 -14.34,15.6 -31.46,29.6 -50.46,43.3 -5.3,3.7 -6.54,11.2 -2.49,16.5 3.74,5 11.21,6.2 16.19,2.5 21.18,-15.3 39.87,-31.1 56.38,-49.2"
         style="fill:#bf6447;fill-opacity:1;fill-rule:nonzero;stroke:none"
         id="path342" /><path
         d="m 2748.59,1334.8 c -9.35,-1.8 -19.94,-2.1 -32.39,-1.5 -9.35,8.4 -19.32,16.2 -29.91,24 -5.29,3.7 -6.54,11.2 -2.8,16.5 4.05,5.3 11.21,6.2 16.51,2.5 18.06,-13.1 34.26,-26.5 48.59,-41.5"
         style="fill:#bf6447;fill-opacity:1;fill-rule:nonzero;stroke:none"
         id="path344" /><path
         d="m 4552,1644.1 c -248.56,-63.2 -455.99,-247.6 -640.08,-288.7 -346.34,-77.6 -581.2,-117.1 -713.88,-124.3 -14.64,-0.9 -28.35,-1.2 -40.49,-1.2 -8.41,0 -16.51,0 -23.67,0.3 -11.84,0.9 -22.12,1.9 -30.84,3.4 l -1.87,0.3 c 97.8,22.1 198.41,34 295.28,59.5 232.97,61.7 477.16,116.5 694.57,225.8 200.9,101.3 348.54,221.2 436.68,432.4 10.9,26.1 20.87,51.03 29.9,75.32 23.98,-100.62 25.23,-228.32 -5.6,-382.82"
         style="fill:#dae6ef;fill-opacity:1;fill-rule:nonzero;stroke:none"
         id="path346" /><path
         d="m 2142.37,1463.4 c -116.95,0 -233.79,33.3 -340.97,100.6 -263.69,165.7 -387.88,483.22 -309.04,790.09 93.68,364.58 429.92,655.28 836.65,723.38 237.71,39.79 516.96,16.11 807.6,-68.48 70.96,-20.64 143.63,-44.4 213.89,-67.37 262.35,-85.74 533.67,-174.37 806.69,-135.65 171.74,24.36 307.76,112.39 373.24,241.5 62.42,123.08 55,268.99 -20.89,410.88 -66.19,123.73 -162.22,233.51 -255.11,339.67 -106.06,121.21 -215.71,246.55 -284.85,395.72 -281.6,607.61 200.17,1084.27 653.96,1377.13 l 33.76,-52.33 c -432.98,-279.47 -893.98,-731.62 -631.21,-1298.58 65.37,-141.07 172.04,-263.02 275.21,-380.92 95.21,-108.8 193.64,-221.31 263.17,-351.31 85.78,-160.33 93.41,-326.7 21.54,-468.45 -74.83,-147.49 -227.92,-247.75 -420.06,-275 -287.59,-40.79 -565.73,50.19 -834.83,138.15 -69.77,22.81 -141.95,46.39 -211.91,66.77 -281.69,82 -551.43,105.12 -779.92,66.83 -382.83,-64.1 -698.92,-336.35 -786.58,-677.45 -83.25,-324 81.55,-595.98 281.84,-721.78 226.37,-142.3 489.53,-119.2 703.94,61.5 l 40.15,-47.6 c -131.61,-110.9 -284.06,-167.3 -436.27,-167.3"
         style="fill:#4c2e2d;fill-opacity:1;fill-rule:nonzero;stroke:none"
         id="path348" /><path
         d="m 3130.07,1855.6 c 69.22,238.2 -0.89,530.15 -287.82,545.28 -242.38,12.77 -499.81,-88.36 -563.35,-344.04 -56.93,-229.04 76.68,-462.94 310.83,-511.14 241.46,-49.6 477.26,92.9 540.34,309.9"
         style="fill:#4c2e2d;fill-opacity:1;fill-rule:nonzero;stroke:none"
         id="path350" /><path
         d="m 2963.64,2346.38 c -14.96,18.04 33.78,85.72 81.4,152.53 155.97,7.63 253.87,-67.11 303.65,-210.16 0.46,-209.42 12.53,-437.95 -82.55,-490.65 l -302.5,548.28"
         style="fill:#95b2ce;fill-opacity:1;fill-rule:nonzero;stroke:none"
         id="path352" /><path
         d="m 2451.58,2182.38 c 287.46,192.81 590.63,221.84 711.52,-146.77 114.21,-185.51 280.48,-395.41 86.35,-538.31 -314.29,-231.4 -939.68,225.7 -797.87,685.08"
         style="fill:#ffffff;fill-opacity:1;fill-rule:nonzero;stroke:none"
         id="path354" /><path
         d="m 2581.69,2207.95 c -186.27,224.93 -296.11,97.25 -380.89,-146.13 98.18,-214.62 239.65,-381.42 408.42,-518.12 l -27.53,664.25"
         style="fill:#95b2ce;fill-opacity:1;fill-rule:nonzero;stroke:none"
         id="path356" /><path
         d="m 3190.25,1508.8 c -86.29,17.4 -148.02,54.4 -159.35,131.6 44.81,95.6 212.49,101 251.46,57.8 7.32,-82.8 -14.97,-150.2 -92.11,-189.4"
         style="fill:#fc7c7c;fill-opacity:1;fill-rule:nonzero;stroke:none"
         id="path358" /><path
         d="m 2676.8,1939.4 c 22.22,-2.3 41.16,-3.3 61.12,-1.7 19.94,1.3 39.41,5.7 61.16,11 h 0.18 c 3.54,0.9 7.11,-1.3 7.96,-4.8 0.53,-2.2 -0.13,-4.4 -1.53,-6 -16.39,-18.1 -40.39,-28.4 -65.02,-31.1 -24.52,-2.5 -51.39,3.7 -69.42,21.2 -2.64,2.6 -2.7,6.8 -0.14,9.4 1.47,1.5 3.47,2.2 5.41,2 h 0.28"
         style="fill:#9e503b;fill-opacity:1;fill-rule:nonzero;stroke:none"
         id="path360" /><path
         d="m 3046.77,2026.15 c 15.86,9.32 29.63,16.03 43.82,23.78 14.26,7.61 27.42,15.95 42.86,25.35 l 0.3,0.2 c 3.17,1.92 7.3,0.93 9.23,-2.24 1.03,-1.69 1.22,-3.67 0.7,-5.43 -5.88,-19.57 -20.92,-34.72 -37.85,-44.83 -17.06,-9.84 -37.92,-15.24 -57.87,-9.44 -3.61,1.06 -5.68,4.83 -4.63,8.43 0.5,1.74 1.63,3.12 3.07,3.97 l 0.37,0.21"
         style="fill:#9e503b;fill-opacity:1;fill-rule:nonzero;stroke:none"
         id="path362" /><g
         id="g364"><g
           id="g366"
           clip-path="url(#clipPath370)"><path
             d="m 4620.86,6807.31 c 2.14,16.28 4.38,31.96 6.46,46.77 16.57,117.77 43.51,234.02 74.23,349.13 l 151.52,-290.05 -87.6,-39.93 -144.61,-65.92"
             style="fill:#ff7546;fill-opacity:1;fill-rule:nonzero;stroke:none"
             id="path372" /><path
             d="m 5079.97,5465.58 c -113.77,22.21 -369.59,190.84 -538.37,279.58 -133.56,61.52 -259.56,134.78 -371.61,216.17 -11.98,8.71 -23.73,17.45 -35.4,26.34 -263.14,200.59 -441.31,446.53 -445.48,687.47 36.18,-73.59 79.88,-143.15 129.3,-209.16 156.37,-208.88 369.15,-382.59 578.34,-537.45 138.66,-102.63 282.77,-197.65 428.42,-290 82.88,-52.56 182.18,-101.38 254.8,-172.95"
             style="fill:#ff7546;fill-opacity:1;fill-rule:nonzero;stroke:none"
             id="path374" /></g></g><path
         d="m 4766.62,5485.36 c -38.08,0 -74.31,11.59 -101.95,34.62 -46.03,38.32 -57.56,99 -31.67,166.44 42.98,111.93 163.73,219.16 293.67,260.7 93.48,29.93 250.84,-15.09 269.01,-66.99 l -36.33,7.78 c -76.27,25.11 -158.26,14.76 -213.72,-0.13 -112.92,-30.31 -218.39,-129.7 -254.47,-223.69 -11.29,-29.41 -18.16,-69.99 13.38,-96.27 32.34,-26.95 98.11,-19.03 143.34,8.63 l 64.89,-41.54 c -33.46,-20.44 -110.44,-49.55 -146.15,-49.55"
         style="fill:#4c2e2d;fill-opacity:1;fill-rule:nonzero;stroke:none"
         id="path376" /><g
         id="g378"><g
           id="g380"
           clip-path="url(#clipPath384)"><path
             d="m 6886.68,7892.97 c -76.42,0 -115.98,50.63 -106.52,147.71 12.3,126.18 59.45,254.4 99.16,378.29 -2.51,-22.08 -5.65,-44.06 -9.35,-65.26 v 0 0 c 28.2,63.13 38.46,129.72 44.23,185.76 10.15,42.88 18.32,88.46 27.27,133.49 28.32,-2.19 40.85,-64.75 40.86,-153.65 0.01,-102.46 -16.63,-239.91 -44.93,-360.27 v 0 0 c 83.2,53.39 178.86,129.71 233.06,129.71 7.86,0 14.85,-1.6 20.81,-5.12 l -243.28,-311.47 v 0 c 79.94,3.87 160.37,8.26 240.6,12.73 -75.56,-28.31 -151.96,-56.36 -227.16,-79.28 -27.78,-8.46 -52.78,-12.64 -74.75,-12.64"
             style="fill:#ff7546;fill-opacity:1;fill-rule:nonzero;stroke:none"
             id="path386" /><path
             d="m 7536.9,6985.84 v 314.1 c 68.63,-50.73 134.69,-105.43 195.63,-160.67 26.35,-23.89 70.91,-59.81 111.06,-99.35 -94.09,-21 -196.15,-39.22 -306.69,-54.08"
             style="fill:#ff7546;fill-opacity:1;fill-rule:nonzero;stroke:none"
             id="path388" /><path
             d="m 8365.74,7219.47 c 6,10.45 11.56,20.6 16.6,30.41 102.15,198.78 221.36,395.37 311.53,599.15 5.38,-5.51 10.46,-11.18 15.26,-17.03 35.6,-43.43 54.6,-95.53 54.64,-152.45 0.11,-143.29 -119.95,-317.14 -398.03,-460.08"
             style="fill:#ff7546;fill-opacity:1;fill-rule:nonzero;stroke:none"
             id="path390" /></g></g><path
         d="m 6316.97,1073.1 c -281.17,286.7 -314.62,417.5 77.87,280.3 168.84,202.8 207.26,162 155.74,-46.7 300.03,-0.3 276.24,-67.1 -233.61,-233.6"
         style="fill:#527a60;fill-opacity:1;fill-rule:nonzero;stroke:none"
         id="path392" /><path
         d="m 9317.46,3507.76 c -234.7,80.94 -261.53,125.17 -93.44,134.97 -96.39,236.32 -54.67,238.95 62.3,114.21 116.1,200.98 177.55,213.16 155.73,-62.29 231.98,35.04 199.98,-23.86 -124.59,-186.89"
         style="fill:#6fbca2;fill-opacity:1;fill-rule:nonzero;stroke:none"
         id="path394" /><path
         d="m 9179.4,2658.36 c -329.3,205.98 -352.73,288.06 -88.8,253.72 -4.41,251.07 32.46,352.19 152.23,152.24 208.05,219.22 273.45,216.62 152.23,-76.13 365.94,92.54 274.49,-26.45 -215.66,-329.83"
         style="fill:#98b78b;fill-opacity:1;fill-rule:nonzero;stroke:none"
         id="path396" /></g></g></svg>
