<?xml version="1.0" encoding="UTF-8" standalone="no"?>
<svg
   xmlns:dc="http://purl.org/dc/elements/1.1/"
   xmlns:cc="http://creativecommons.org/ns#"
   xmlns:rdf="http://www.w3.org/1999/02/22-rdf-syntax-ns#"
   xmlns:svg="http://www.w3.org/2000/svg"
   xmlns="http://www.w3.org/2000/svg"
   viewBox="0 0 1200 1200"
   height="1200"
   width="1200"
   xml:space="preserve"
   id="svg2"
   version="1.1"><metadata
     id="metadata8"><rdf:RDF><cc:Work
         rdf:about=""><dc:format>image/svg+xml</dc:format><dc:type
           rdf:resource="http://purl.org/dc/dcmitype/StillImage" /></cc:Work></rdf:RDF></metadata><defs
     id="defs6" /><g
     transform="matrix(1.3333333,0,0,-1.3333333,0,1200)"
     id="g10"><g
       transform="scale(0.1)"
       id="g12"><path
         id="path14"
         style="fill:#c2b3d8;fill-opacity:1;fill-rule:nonzero;stroke:none"
         d="m 4606.12,7713.17 h -32.86 l 2.68,0.32 c -32.74,2.04 -58.62,51.22 -58.3,111.77 0.43,60.35 26.95,109.42 59.59,111.78 l -1.07,0.1 -1.39,0.11 h 4.72 l 0.21,0.11 0.22,-0.11 h 34.75 v -11.27 h -8.55 v -212.81" /><path
         id="path16"
         style="fill:#f4692d;fill-opacity:1;fill-rule:nonzero;stroke:none"
         d="m 6355.08,1079.76 c 59.05,0 107.37,48.32 107.37,107.38 v 292.69 c 0,59.05 -48.32,107.37 -107.37,107.37 h -54.48 c -59.06,0 -107.37,-48.32 -107.37,-107.37 v -292.69 c 0,-59.06 48.31,-107.38 107.37,-107.38 h 54.48" /><path
         id="path18"
         style="fill:#a794c7;fill-opacity:1;fill-rule:nonzero;stroke:none"
         d="m 8744.11,593.469 h -2448.5 v 16.64 c 0.11,13.102 -4.51,21.59 -12.14,26.743 8.38,11.699 11.92,27.918 7.52,51.32 l -0.43,2.469 v 0 h 1284.99 v -5.211 c 0,-14.239 5.62,-27.219 14.75,-36.848 9.8,-10.34 23.64,-16.82 38.92,-16.82 h 103.53 c 0.57,0 1.13,0.008 1.69,0.027 h 473.14 c 1.81,-0.141 3.67,-0.219 5.57,-0.226 0.35,-0.012 0.71,-0.012 1.08,-0.012 1.79,0 3.75,0.07 5.84,0.238 h 87.54 c 19.66,0 36.95,10.723 46.29,26.613 h 274.98 l 0.43,-0.332 c 16,-12.23 31.68,-18.031 49.61,-18.25 v 0 c 0.12,0 0.23,0 0.34,0 0.01,0 0.01,0 0.01,0 0.12,0 0.23,-0.007 0.34,-0.007 v 0 0 c 0.04,0 0.08,0 0.12,0.007 18.76,0.032 33.28,8.121 38.77,11.262 0.02,0.008 0.03,0.02 0.05,0.027 0.04,0.032 0.08,0.051 0.12,0.071 0.05,0.031 0.1,0.062 0.15,0.09 0.05,0.031 0.11,0.062 0.17,0.089 0.03,0.02 0.06,0.043 0.09,0.063 11.27,6.547 23.94,18.578 33.18,31.137 1.76,2.433 3.3,4.613 4.69,6.66 23.38,-5.25 40.85,-24.477 40.85,-47.219 0,-26.621 -24.17,-48.531 -53.69,-48.531 m -2681.17,0 h -236.76 c -2.69,5.902 -5.59,11.601 -8.8,16.972 l 3.54,-0.332 c 0,0 0.97,29.641 2.79,80.532 v 0 h 227.52 v 0 c 2.15,-15.352 4.3,-28.668 6.44,-39.942 2.26,-12.136 6.55,-21.367 12.03,-28.558 -3.43,-7.621 -5.59,-17.719 -6.76,-28.672 m -482.1,43.273 v 0 c -0.22,1.719 -0.32,3.438 -0.32,5.258 0,3.219 0.32,6.449 1.07,9.563 v 0.207 0 0 -0.207 c -0.33,-6.122 -0.54,-11.063 -0.75,-14.821" /><path
         id="path20"
         style="fill:#9dbbc3;fill-opacity:1;fill-rule:nonzero;stroke:none"
         d="m 8664.97,657.859 c -4.3,-0.109 -8.6,0.211 -12.78,1.071 -8.48,1.722 -16.64,5.48 -24.38,11.07 -32.32,22.859 -57.44,76.441 -66.46,143.332 -2.26,16.539 -3.54,33.828 -3.65,51.758 -0.86,92.98 28.56,172.97 70.11,202.29 7.74,5.58 15.79,9.34 24.27,11.05 3.01,0.65 6.12,1.08 9.23,1.19 58.2,2.04 106.19,-90.729 107.27,-207.241 0.21,-20.5 -1.08,-40.258 -3.76,-59.047 -12.03,-88.152 -51.97,-153.75 -99.85,-155.473 M 8802.4,886.77 c -0.32,12.242 -2.36,40.382 -8.37,68.179 -13.32,61.961 -36.41,96.001 -53.37,113.601 -24.8,25.77 -49.28,29.32 -61.74,29.1 -9.13,-0.1 -19.65,-1.28 -34.25,-8.37 -5.05,-2.47 -10.52,-6.01 -15.79,-10.2 -2.89,-2.15 -5.69,-4.62 -8.37,-7.2 -1.82,-1.72 -3.54,-3.43 -5.15,-5.26 -7.09,-7.83 -28.67,-31.56 -44.67,-85.358 -2.9,-9.66 -5.47,-19.961 -7.51,-30.602 -2.37,-11.488 -2.37,-11.488 -5.16,-32.851 -1.18,-8.907 -1.28,-9.879 -2.57,-34.899 -0.22,-5.371 -0.11,-12.558 -0.22,-18.039 0.65,-24.691 1.08,-28.879 3.22,-49.172 0,-0.429 0.11,-1.289 0.21,-2.367 0.86,-5.902 2.91,-19.75 5.37,-30.812 9.13,-41.34 21.05,-65.707 25.78,-74.411 5.25,-9.449 15.14,-27.488 30.81,-42.519 2.57,-2.469 5.26,-4.938 8.26,-7.188 l 0.43,-0.332 c 16,-12.23 31.68,-18.031 49.61,-18.25 19.87,-0.211 35.11,8.7 40.16,11.602 11.27,6.547 23.94,18.578 33.18,31.137 8.48,11.703 11.59,17.39 19.11,31.992 3.65,7.09 6.77,15.359 11.17,26.738 4.94,13.313 12.02,39.402 15.25,61.731 5.68,39.73 5.26,60.019 4.61,83.75" /><path
         id="path22"
         style="fill:#e7f7fb;fill-opacity:1;fill-rule:nonzero;stroke:none"
         d="m 8685.81,663.422 -1.18,-0.512 -1.22,-0.5 -1.26,-0.48 -1.3,-0.469 -1.34,-0.441 -1.35,-0.411 -1.37,-0.379 -1.38,-0.351 -1.39,-0.32 -1.39,-0.27 -1.38,-0.238 -1.38,-0.199 -1.34,-0.161 -1.32,-0.121 -1.29,-0.09 -1.24,-0.058 1.24,0.058 1.29,0.09 1.32,0.121 1.34,0.161 1.38,0.199 1.38,0.238 1.39,0.27 1.39,0.32 1.38,0.351 1.37,0.379 1.35,0.411 1.34,0.441 1.3,0.469 1.26,0.48 1.22,0.5 1.18,0.512 m -21.11,-5 -1.87,-0.031 h -18.58 l 1.87,0.031 c 58.08,2.027 104.35,97.84 103.33,214.008 -1,114.922 -47.89,206.7 -105.13,206.7 h 18.58 c 6.32,0 12.51,-1.12 18.53,-3.26 l 0.83,-0.3 c 6.66,-2.49 13.11,-6.24 19.28,-11.12 6.54,-5.18 12.77,-11.64 18.6,-19.22 5.52,-7.18 10.68,-15.37 15.42,-24.43 9.85,-18.84 17.88,-41.487 23.49,-66.788 2.95,-13.5 4.82,-24.871 6.47,-39.262 1.52,-13.641 2.38,-27.801 2.51,-42.32 0.63,-72.61 -17.2,-137.258 -44.85,-176.039 -5.97,-8.27 -11.09,-14.059 -17.69,-20.012 -12.49,-11.09 -26.27,-17.449 -40.79,-17.957" /><path
         id="path24"
         style="fill:#e7f7fb;fill-opacity:1;fill-rule:nonzero;stroke:none"
         d="m 8749.47,872.379 c 0.21,-20.5 -1.07,-40.258 -3.76,-59.047 -11.49,-84.172 -48.43,-147.633 -93.52,-154.402 -2.04,-0.321 -4.09,-0.43 -6.12,-0.528 h -50.9 c 8.81,0.317 17.29,2.789 25.45,7.188 2.47,1.18 4.83,2.691 7.19,4.41 32.65,22.652 57.87,76.441 67,143.332 2.58,18.789 3.87,38.656 3.66,59.047 -0.76,90.742 -30.18,166.971 -70.66,195.001 -2.36,1.71 -4.83,3.21 -7.3,4.5 -8.7,4.73 -17.82,7.2 -27.16,7.2 h 51 c 2.58,0 5.15,-0.22 7.73,-0.65 53.68,-7.73 96.42,-96.2 97.39,-206.051" /><path
         id="path26"
         style="fill:#f4692d;fill-opacity:1;fill-rule:nonzero;stroke:none"
         d="m 8698.47,872.379 c 0.21,-20.391 -1.08,-40.258 -3.66,-59.047 -9.13,-66.891 -34.35,-120.68 -67,-143.332 -2.36,-1.719 -4.72,-3.23 -7.19,-4.41 -8.16,-4.399 -16.64,-6.871 -25.45,-7.188 h -293.12 c 47.78,1.707 87.72,66.996 99.64,154.93 2.69,18.789 3.97,38.547 3.76,59.047 -1.07,115 -47.89,206.701 -105.12,206.701 h 293.02 c 9.34,0 18.46,-2.47 27.16,-7.2 2.47,-1.29 4.94,-2.79 7.3,-4.5 40.48,-28.03 69.9,-104.259 70.66,-195.001" /><path
         id="path28"
         style="fill:#e7f7fb;fill-opacity:1;fill-rule:nonzero;stroke:none"
         d="m 8405.45,872.379 c 0.21,-20.5 -1.07,-40.258 -3.76,-59.047 -11.92,-87.934 -51.86,-153.223 -99.64,-154.93 h -63.78 c 47.78,1.707 87.62,66.887 99.64,154.719 2.58,18.789 3.98,38.758 3.76,59.258 -1.07,115 -47.89,206.701 -105.12,206.701 h 63.78 c 57.23,0 104.05,-91.701 105.12,-206.701" /><path
         id="path30"
         style="fill:#9dbbc3;fill-opacity:1;fill-rule:nonzero;stroke:none"
         d="m 8191.77,658.402 c -44.12,-1.5 -82.35,51.43 -98.67,127.879 -2.36,11.16 -4.29,22.758 -5.58,34.891 -1.72,14.066 -2.68,28.777 -2.79,43.918 -0.96,116.172 45.31,211.95 103.4,213.99 58.09,2.04 105.97,-90.51 106.94,-206.701 0.11,-11.477 -0.21,-22.758 -1.07,-33.82 -0.22,-3.43 -0.54,-6.868 -0.86,-10.297 -9.34,-95.352 -50.79,-168.153 -101.37,-169.86 M 8336.3,956.68 c -8.27,38.121 -17.39,57.44 -24.8,73.01 -7.19,15.25 -20.19,34.14 -30.82,44.77 -1.39,1.4 -3.11,3.01 -4.83,4.62 -2.58,2.47 -5.37,4.94 -7.94,6.87 -8.17,6.23 -13.32,9.13 -16.22,10.52 -7.19,3.33 -11.16,5.16 -18.9,7.09 -9.55,2.36 -17.39,2.47 -19.54,2.47 -10.2,-0.22 -21.79,-1.4 -37.9,-9.23 -15.68,-7.63 -27.81,-20.41 -31.78,-24.59 -10.95,-11.49 -31.46,-38.23 -46.61,-88.69 -2.03,-6.551 -5.04,-17.399 -7.72,-31.25 -2.36,-11.7 -2.36,-11.7 -5.26,-33.598 -1.18,-9.02 -1.4,-12.031 -2.58,-35.442 -0.32,-5.48 -0.22,-12.878 -0.22,-18.359 0.33,-13.531 0.65,-27.48 2.59,-44.769 0.21,-1.723 0.43,-3.543 0.64,-5.372 1.72,-13.199 3.43,-23.191 5.79,-33.929 1.08,-4.942 2.26,-9.992 3.55,-15.571 3.21,-12.988 9.77,-31.14 10.2,-32.32 8.48,-21.039 10.52,-24.801 18.68,-39.301 2.68,-4.609 6.66,-10.617 9.88,-14.918 3.76,-4.832 9.02,-11.062 13.1,-15.57 1.72,-1.93 8.16,-8.59 19.54,-16.43 9.88,-6.761 26.19,-14.921 48,-15.128 9.87,-0.114 25.12,1.707 42.19,11.476 l 0.54,0.43 c 3.22,1.832 6.55,3.98 9.88,6.441 l 0.75,0.653 c 3.11,2.25 6.23,4.937 9.45,7.839 5.69,5.258 11.38,11.7 17.07,19.219 17.83,23.828 29.31,52.07 36.62,77.09 5.47,18.359 8.69,35.109 10.52,47.141 0.64,3.859 1.18,7.73 1.6,11.48 8.17,64.969 0.22,117.148 -5.47,143.348" /><path
         id="path32"
         style="fill:#735c7b;fill-opacity:1;fill-rule:nonzero;stroke:none"
         d="m 8214.23,631.551 c -0.37,0 -0.73,0 -1.08,0.012 -1.9,0.007 -3.76,0.085 -5.57,0.226 v 0 c 1.81,-0.141 3.67,-0.219 5.57,-0.226 0.27,-0.012 0.54,-0.012 0.82,-0.012 1.81,0 3.79,0.07 5.92,0.238 h 0.18 c -2.09,-0.168 -4.05,-0.238 -5.84,-0.238" /><path
         id="path34"
         style="fill:#b8a39c;fill-opacity:1;fill-rule:nonzero;stroke:none"
         d="m 8719.52,690.641 h -0.67 c 1.41,1.789 2.85,3.691 4.33,5.75 19.85,27.851 34.65,69.039 41.18,116.941 0.3,0 0.46,0 0.46,0 -6.99,-51.211 -23.39,-94.801 -45.3,-122.691 m -19.24,0 h -0.04 c 22,27.769 38.46,71.379 45.47,122.691 v 0 c 0.02,0 0.05,0 0.07,0 -6.99,-51.32 -23.47,-94.93 -45.5,-122.691" /><path
         id="path36"
         style="fill:#735c7b;fill-opacity:1;fill-rule:nonzero;stroke:none"
         d="m 8679.61,639.813 v 0 c 0.04,0 0.08,0 0.12,0.007 -0.04,-0.007 -0.08,-0.007 -0.12,-0.007 m -0.34,0.007 c 0,0 0,0 -0.01,0 0.01,0 0.01,0 0.01,0 m 39.23,11.262 c 0.02,0.008 0.03,0.02 0.05,0.027 -0.02,-0.007 -0.03,-0.019 -0.05,-0.027 m 0.17,0.098 c 0.05,0.031 0.1,0.062 0.15,0.09 -0.05,-0.028 -0.1,-0.059 -0.15,-0.09 m 0.32,0.179 c 0.03,0.02 0.06,0.043 0.09,0.063 11.27,6.547 23.94,18.578 33.18,31.137 1.76,2.433 3.3,4.613 4.69,6.66 v 0 c -1.39,-2.047 -2.93,-4.227 -4.69,-6.66 -9.24,-12.559 -21.91,-24.59 -33.18,-31.137 -0.03,-0.02 -0.06,-0.043 -0.09,-0.063 m -55.59,6.481 c -2.7,0 -5.38,0.172 -8.03,0.551 h 7.46 l 1.87,0.031 c 14.52,0.508 28.3,6.867 40.79,17.957 4.96,4.473 9.08,8.851 13.36,14.262 h 0.67 c -15.81,-20.121 -34.48,-32.059 -54.55,-32.782 -0.52,-0.007 -1.05,-0.019 -1.57,-0.019 m 18.67,14.531 c 6.38,4.93 12.46,11.059 18.17,18.27 h 0.04 c -5.72,-7.211 -11.81,-13.352 -18.21,-18.27" /><path
         id="path38"
         style="fill:#6c767a;fill-opacity:1;fill-rule:nonzero;stroke:none"
         d="m 8679.61,639.813 c -0.11,0 -0.22,0.007 -0.34,0.007 0,0 0,0 -0.01,0 -0.11,0 -0.22,0 -0.34,0 v 0 c -17.93,0.219 -33.61,6.02 -49.61,18.25 l -0.43,0.332 h 16.07 l -0.7,-0.011 h 11.12 c 2.65,-0.379 5.33,-0.551 8.03,-0.551 0.52,0 1.05,0.012 1.57,0.019 20.07,0.723 38.74,12.661 54.55,32.782 21.91,27.89 38.31,71.48 45.3,122.691 v 0 c 0,0 18.75,-10.551 30.19,-10.551 0.98,0 1.92,0.071 2.78,0.239 -3.23,-22.329 -10.31,-48.418 -15.25,-61.731 -4.4,-11.379 -7.52,-19.648 -11.17,-26.738 -5.95,-11.559 -9.14,-17.531 -14.42,-25.332 -1.39,-2.047 -2.93,-4.227 -4.69,-6.66 -9.24,-12.559 -21.91,-24.59 -33.18,-31.137 -0.03,-0.02 -0.06,-0.043 -0.09,-0.063 -0.06,-0.027 -0.12,-0.058 -0.17,-0.089 -0.05,-0.028 -0.1,-0.059 -0.15,-0.09 -0.04,-0.02 -0.08,-0.039 -0.12,-0.071 -0.02,-0.007 -0.03,-0.019 -0.05,-0.027 -5.49,-3.141 -20.01,-11.23 -38.77,-11.262 -0.04,-0.007 -0.08,-0.007 -0.12,-0.007" /><path
         id="path40"
         style="fill:#a0a19d;fill-opacity:1;fill-rule:nonzero;stroke:none"
         d="m 8662.83,658.391 h -18.58 l 0.7,0.011 h 1.12 c 2.03,0.098 4.08,0.207 6.12,0.528 10.47,1.57 20.5,6.199 29.88,13.441 6.4,4.918 12.49,11.059 18.21,18.27 22.03,27.761 38.51,71.371 45.5,122.691 10.27,0 16.84,0 18.58,0 -6.53,-47.902 -21.33,-89.09 -41.18,-116.941 -1.48,-2.059 -2.92,-3.961 -4.33,-5.75 -4.28,-5.411 -8.4,-9.789 -13.36,-14.262 -12.49,-11.09 -26.27,-17.449 -40.79,-17.957 l -1.87,-0.031" /><path
         id="path42"
         style="fill:#a0a19d;fill-opacity:1;fill-rule:nonzero;stroke:none"
         d="m 8646.07,658.402 h -50.9 c 8.81,0.317 17.29,2.789 25.45,7.188 2.47,1.18 4.83,2.691 7.19,4.41 32.65,22.652 57.87,76.441 67,143.332 h 50.9 c -7.01,-51.312 -23.47,-94.922 -45.47,-122.691 -5.71,-7.211 -11.79,-13.34 -18.17,-18.27 -9.38,-7.242 -19.41,-11.871 -29.88,-13.441 -2.04,-0.321 -4.09,-0.43 -6.12,-0.528" /><path
         id="path44"
         style="fill:#b94620;fill-opacity:1;fill-rule:nonzero;stroke:none"
         d="M 8595.17,658.402 H 8353.9 c 4.67,7.95 7.35,17.188 7.35,27.028 v 12 c 19.5,27.82 34.03,68.59 40.44,115.902 h 293.12 c -9.13,-66.891 -34.35,-120.68 -67,-143.332 -2.36,-1.719 -4.72,-3.23 -7.19,-4.41 -8.16,-4.399 -16.64,-6.871 -25.45,-7.188 v 0" /><path
         id="path46"
         style="fill:#a0a19d;fill-opacity:1;fill-rule:nonzero;stroke:none"
         d="m 8361.25,697.43 v 115.902 h 40.44 c -6.41,-47.312 -20.94,-88.082 -40.44,-115.902" /><path
         id="path48"
         style="fill:#6c767a;fill-opacity:1;fill-rule:nonzero;stroke:none"
         d="m 8213.97,631.551 c -0.28,0 -0.55,0 -0.82,0.012 -1.9,0.007 -3.76,0.085 -5.57,0.226 h 12.31 c -2.13,-0.168 -4.11,-0.238 -5.92,-0.238" /><path
         id="path50"
         style="fill:#44435a;fill-opacity:1;fill-rule:nonzero;stroke:none"
         d="m 8290.86,872.242 c 0.1,-7.832 -0.1,-15.672 -0.52,-23.293 -4.84,-100.699 -46.79,-180.277 -98.64,-182.129 -52.97,-1.859 -97.19,78.332 -102.24,182.129 -0.31,5.364 -0.52,10.821 -0.52,16.289 -0.93,111.524 43.49,203.462 99.26,205.412 55.76,1.96 101.73,-86.88 102.66,-198.408" /><path
         id="path52"
         style="fill:#ee2b3a;fill-opacity:1;fill-rule:nonzero;stroke:none"
         d="m 8290.86,872.242 -16.11,-0.172 c 0.01,-1.308 0.02,-2.629 0.02,-3.98 0,-6.102 -0.2,-12.25 -0.51,-18.301 v -0.07 c -2.29,-48.309 -13.68,-91.367 -29.8,-121.278 -8.03,-14.972 -17.2,-26.57 -26.39,-34.101 -9.26,-7.57 -18.11,-11.09 -26.94,-11.418 h 0.05 l -1.29,-0.024 c -8.86,0.032 -17.68,3.254 -27.02,10.571 -13.94,10.89 -27.84,31.32 -38.16,58.504 -10.39,27.148 -17.38,60.828 -19.17,97.757 l -0.01,0.141 c -0.29,5.149 -0.48,10.301 -0.48,15.367 v 0.352 -0.219 c -0.01,1.188 -0.03,2.301 -0.03,3.301 -0.04,52.816 10.73,100.769 27.29,134.408 8.24,16.83 17.91,29.99 27.71,38.56 9.87,8.6 19.35,12.57 28.74,12.92 l 1.24,0.03 c 9.31,-0.03 18.64,-3.6 28.48,-11.75 14.68,-12.14 29.1,-34.81 39.32,-64.59 10.29,-29.738 16.63,-66.391 16.95,-106.141 v -0.039 l 16.11,0.172 16.1,0.137 c -0.53,57.332 -12.27,109.031 -31.93,147.761 -9.87,19.36 -21.75,35.57 -35.91,47.42 -14.06,11.82 -30.97,19.27 -49.12,19.24 l -2.39,-0.05 c -18.18,-0.62 -34.92,-8.64 -48.83,-20.9 -20.95,-18.5 -36.95,-46.47 -48.29,-80.37 -11.27,-33.929 -17.67,-73.949 -17.68,-116.808 0,-1.281 0.02,-2.473 0.02,-3.57 v 0.136 c 0,-5.867 0.22,-11.636 0.54,-17.207 v 0.141 c 2.63,-53.371 15.02,-100.961 34.49,-136.531 9.77,-17.77 21.37,-32.621 35.04,-43.45 13.6,-10.8 29.76,-17.531 46.99,-17.5 l 2.33,0.039 h 0.05 c 17.09,0.59 32.93,7.711 46.26,18.731 20.08,16.621 35.67,41.801 47.22,72.441 11.5,30.668 18.78,66.989 20.68,106.278 l -0.01,-0.071 c 0.34,6.5 0.56,13.2 0.56,19.981 0,1.422 -0.01,2.859 -0.02,4.32 v -0.031 l -16.1,-0.137" /><path
         id="path54"
         style="fill:#ee2b3a;fill-opacity:1;fill-rule:nonzero;stroke:none"
         d="m 1821.36,642.52 c 0,35.441 -28.98,64.429 -64.42,64.429 h -330.02 c -35.44,0 -64.42,-28.988 -64.42,-64.429 v -22.43 c 0,-35.43 28.98,-64.418 64.42,-64.418 h 330.02 c 35.44,0 64.42,28.988 64.42,64.418 v 22.43" /><path
         id="path56"
         style="fill:#f9e21d;fill-opacity:1;fill-rule:nonzero;stroke:none"
         d="m 4013.16,696.66 c 0,35.442 -28.99,64.43 -64.43,64.43 h -614.07 c -35.43,0 -64.42,-28.988 -64.42,-64.43 v -22.43 c 0,-35.429 28.99,-64.417 64.42,-64.417 h 614.07 c 35.44,0 64.43,28.988 64.43,64.417 v 22.43" /><path
         id="path58"
         style="fill:#bedd15;fill-opacity:1;fill-rule:nonzero;stroke:none"
         d="m 4614.67,2802.31 v 5363.17 c 0,35.43 28.99,64.42 64.43,64.42 h 47.28 c 35.43,0 64.42,-28.99 64.42,-64.42 v -77.3 c 0,-35.43 28.99,-64.42 64.43,-64.42 h 58.4 c 35.43,0 64.42,22.22 64.42,49.38 0,27.16 27.9,49.39 62,49.39 34.1,0 62,-28.99 62,-64.42 V 7947.94 L 4614.67,2802.31" /><path
         id="path60"
         style="fill:#f9e21d;fill-opacity:1;fill-rule:nonzero;stroke:none"
         d="m 2986.98,4398.53 v 568.85 c 0,35.43 28.99,64.42 64.42,64.42 h 47.28 c 35.44,0 64.43,-28.99 64.43,-64.42 v -77.3 c 0,-35.43 28.99,-64.42 64.42,-64.42 h 230.21 c 35.44,0 64.43,22.22 64.43,49.39 0,27.16 28.98,49.38 64.42,49.38 h 38.1 c 35.43,0 64.42,-28.99 64.42,-64.42 v -24.27 c 0,-35.43 20.91,-64.42 46.47,-64.42 25.55,0 46.46,0 46.46,0" /><path
         id="path62"
         style="fill:#e42630;fill-opacity:1;fill-rule:nonzero;stroke:none"
         d="m 524.203,1138.93 c -35.433,0 -64.422,28.99 -64.422,64.42 v 652.98 c 0,35.43 28.989,64.42 64.422,64.42 h 806.087 c 35.43,0 64.42,-28.99 64.42,-64.42 v -652.98 c 0,-35.43 -28.99,-64.42 -64.42,-64.42 H 524.203" /><path
         id="path64"
         style="fill:#fbcc1e;fill-opacity:1;fill-rule:nonzero;stroke:none"
         d="m 1787.8,1136.61 c -35.43,0 -64.42,28.99 -64.42,64.42 v 2694.79 c 0,35.43 28.99,64.42 64.42,64.42 h 806.08 c 35.44,0 64.43,-28.99 64.43,-64.42 V 1201.03 c 0,-35.43 -28.99,-64.42 -64.43,-64.42 H 1787.8" /><path
         id="path66"
         style="fill:#f4692d;fill-opacity:1;fill-rule:nonzero;stroke:none"
         d="m 6384.72,3395.22 c 35.44,0 64.43,-28.99 64.43,-64.42 V 1190.24 c 0,-35.43 -28.99,-64.42 -64.43,-64.42 h -806.14 c -35.43,0 -64.42,28.99 -64.42,64.42 V 3330.8 c 0,35.43 28.99,64.42 64.42,64.42 h 806.14" /><path
         id="path68"
         style="fill:#d95a2b;fill-opacity:1;fill-rule:nonzero;stroke:none"
         d="m 6199.19,2367.25 v 2.36 c 0.53,34.36 1.5,66.46 3.11,95.88 l 0.33,0.87 c 2.57,0.32 5.04,0.75 7.4,1.06 -3.22,27.39 0.76,104.48 0.76,104.48 l 21.36,418.32 c 37.58,34.04 87.72,78.7 129.28,111.77 45.31,36.19 48.64,97.82 39.08,156.01 v 0.32 c -0.64,4.94 -1.61,9.99 -2.79,14.93 l -0.32,2.04 c -7.31,35.43 -18.47,68.4 -26.42,92.23 -3.11,9.13 -6.33,18.36 -9.66,27.7 h -717.03 c 2.26,-16.85 3.23,-35.43 3.11,-56.47 l -1.71,-245.35 c -1.93,-277.66 -34.14,-470.5 -3.44,-499.92 l -0.32,-42.73 v -7.84 l -0.32,-46.6 -0.11,-7.73 c -0.96,-194.13 -24.91,-880.56 -42.41,-1362.76 h 240.94 c 16,401.46 39.08,905.68 57.01,999.84 7.85,40.69 30.39,66.14 60.02,86.22 0.11,-7.62 0.33,-15.24 0.54,-22.87 6.44,-258.01 28.46,-708.97 53.58,-1063.19 h 237.19 c -24.27,351.53 -45.2,815.7 -49.07,1097.87 l 132.82,-412.73 c 3.32,-10.42 11.16,-16.65 19.43,-16.65 2.79,0 5.58,0.65 8.27,2.15 10.84,5.8 15.99,21.8 11.59,35.54 l -172.22,535.25" /><path
         id="path70"
         style="fill:#f9e21d;fill-opacity:1;fill-rule:nonzero;stroke:none"
         d="m 3051.4,1125.87 c -35.43,0 -64.42,28.99 -64.42,64.42 v 3522.79 c 0,35.44 28.99,64.43 64.42,64.43 h 806.08 c 35.44,0 64.43,-28.99 64.43,-64.43 V 1190.29 c 0,-35.43 -28.99,-64.42 -64.43,-64.42 H 3051.4" /><path
         id="path72"
         style="fill:#bedd15;fill-opacity:1;fill-rule:nonzero;stroke:none"
         d="m 4330.69,1018.49 c -35.44,0 -64.43,28.99 -64.43,64.42 v 5646.01 c 0,35.44 28.99,64.43 64.43,64.43 h 47.28 c 35.43,0 64.42,-28.99 64.42,-64.43 v -199.07 c 0,-35.43 28.99,-64.42 64.42,-64.42 h 37.57 c 35.43,0 64.42,28.99 64.42,64.42 v 199.07 c 0,35.44 28.99,64.43 64.42,64.43 h 463.55 c 35.43,0 64.42,-28.99 64.42,-64.43 V 1082.91 c 0,-35.43 -28.99,-64.42 -64.42,-64.42 h -806.08" /><path
         id="path74"
         style="fill:#bedd15;fill-opacity:1;fill-rule:nonzero;stroke:none"
         d="M 5201.17,7925.98 V 2173.34 l -595.05,139.58 v 5613.06 h 595.05" /><path
         id="path76"
         style="fill:#9dc021;fill-opacity:1;fill-rule:nonzero;stroke:none"
         d="m 4981.7,7925.98 h -26.75 l 0.13,11.27 c 7.4,0 14.59,-2.36 21.14,-6.87 1.83,-1.29 3.66,-2.69 5.48,-4.4" /><path
         id="path78"
         style="fill:#9dc021;fill-opacity:1;fill-rule:nonzero;stroke:none"
         d="m 5201.17,3866.58 c -38.55,43.71 -47.67,68.18 -52.72,92.24 -4.94,22.97 -35.33,68.6 52.72,347.77 v -440.01 m 0,1800.73 -355.72,1753.59 c -1.61,4.83 -1.94,9.99 -1.29,14.82 -1.18,1.82 -2.25,3.97 -3.01,6.44 l -28.88,93.84 c -5.15,16.86 0.64,36.94 13.21,45.53 l 170.19,117.03 -12.68,28.57 c -2.58,-2.69 -5.26,-5.05 -8.16,-6.99 -6.66,-4.4 -13.85,-6.97 -21.37,-6.97 l -0.42,0.11 h -0.32 l -0.11,-0.11 2.34,212.81 h 26.75 v 0 c 3.98,-3.44 7.74,-7.84 11.06,-12.78 11.17,-16.21 19.01,-39.41 21.69,-65.93 0.75,-7.08 1.07,-14.39 1.07,-22.01 0,-3.97 -0.21,-7.94 -0.43,-11.81 -0.21,-2.9 -0.42,-5.9 -0.85,-8.8 -0.33,-3.76 -0.86,-7.41 -1.5,-10.85 -0.22,-1.71 -0.55,-3.43 -0.86,-5.04 -0.43,-2.26 -0.87,-4.4 -1.4,-6.55 -0.33,-1.51 -0.76,-2.9 -1.07,-4.19 -0.43,-1.94 -0.98,-3.65 -1.4,-5.37 l -0.43,-1.29 -0.43,-1.18 -0.54,-1.5 25.56,-57.56 c 3.65,-8.15 4.51,-17.71 2.36,-26.73 -2.04,-9.12 -6.76,-16.53 -13.31,-21.04 l -172.44,-118.54 26.3,-85.25 c 0.43,-1.61 0.76,-3.23 0.97,-4.94 3.76,-2.79 6.87,-7.2 8.7,-12.78 l 316.42,-1530.69 v -243.84" /><path
         id="path80"
         style="fill:#ddd3e9;fill-opacity:1;fill-rule:nonzero;stroke:none"
         d="m 6290.56,690.641 h -239.33 c -12.99,90.73 -26.95,249.64 -40.05,435.179 h 201.4 c 9.83,-14.04 22.93,-25.65 38.16,-33.7 13.17,-183.85 27.17,-332.628 39.82,-401.479" /><path
         id="path82"
         style="fill:#da5826;fill-opacity:1;fill-rule:nonzero;stroke:none"
         d="m 6250.74,1092.12 c -15.23,8.05 -28.33,19.66 -38.16,33.7 h 35.79 c 0.79,-11.36 1.58,-22.59 2.37,-33.7" /><path
         id="path84"
         style="fill:#8c78b3;fill-opacity:1;fill-rule:nonzero;stroke:none"
         d="m 6295.61,593.469 h -232.67 c 1.17,10.953 3.33,21.051 6.76,28.672 -5.48,7.191 -9.77,16.422 -12.03,28.558 -2.14,11.274 -4.29,24.59 -6.44,39.942 v 0 h 239.33 v 0 l 0.43,-2.469 c 4.4,-23.402 0.86,-39.621 -7.52,-51.32 7.63,-5.153 12.25,-13.641 12.14,-26.743 v -16.64" /><path
         id="path86"
         style="fill:#ddd3e9;fill-opacity:1;fill-rule:nonzero;stroke:none"
         d="m 5581.59,651.77 c 0.32,9.992 0.75,22.98 1.4,38.871 3.11,83.32 9.12,242.988 16.1,435.179 h 240.94 c -7.3,-182.32 -13.09,-343.371 -16.32,-435.179 H 5634.2 c -25.88,0 -47.57,-16.75 -52.61,-38.871" /><path
         id="path88"
         style="fill:#8c78b3;fill-opacity:1;fill-rule:nonzero;stroke:none"
         d="M 5826.18,593.469 H 5634.2 c -27.59,0 -50.47,19.113 -53.36,43.273 0.21,3.758 0.42,8.699 0.75,14.821 v 0.207 0 c 5.04,22.121 26.73,38.871 52.61,38.871 h 189.51 v 0 c -1.82,-50.891 -2.79,-80.532 -2.79,-80.532 l -3.54,0.332 c 3.21,-5.371 6.11,-11.07 8.8,-16.972" /><path
         id="path90"
         style="fill:#ddd3e9;fill-opacity:1;fill-rule:nonzero;stroke:none"
         d="m 6361.32,3395.22 h -717.03 c -7.41,53.47 -27.92,89.01 -66.03,128.31 l -0.32,0.43 -0.11,0.11 c -2.9,3.01 -5.9,6.01 -9.02,9.02 l -0.11,0.11 c -0.96,0.96 -1.93,1.82 -2.79,2.68 -2.04,1.94 -3.97,3.86 -6.01,5.8 -2.26,2.04 -4.51,4.19 -6.76,6.23 -0.86,0.85 -1.72,1.71 -2.69,2.57 -2.47,2.25 -5.05,4.62 -7.73,6.98 l -2.04,1.83 c -2.9,2.57 -5.8,5.15 -8.81,7.83 l -1.18,0.97 c -17.18,15.14 -36.5,31.57 -58.19,50.14 -3.55,3.12 -7.2,6.34 -10.96,9.56 l -2.47,2.04 c -3.64,3.22 -7.5,6.55 -11.38,9.88 -1.07,0.96 -2.14,1.93 -3.21,2.79 -3.76,3.33 -7.63,6.66 -11.5,10.09 -1.28,1.08 -2.57,2.26 -3.86,3.44 -3.86,3.33 -7.73,6.76 -11.6,10.2 -1.61,1.4 -3.22,2.79 -4.72,4.19 -3.87,3.32 -7.63,6.76 -11.49,10.2 -2.04,1.82 -4.19,3.75 -6.22,5.58 -3.55,3.22 -7.09,6.44 -10.74,9.77 -5.8,5.26 -11.6,10.63 -17.62,16.1 -60.34,51.11 -103.5,90.3 -134.53,121.55 l -0.43,0.43 c -11.8,11.91 -22,22.64 -30.58,32.51 v 440.09 c 2.14,6.85 4.28,13.81 6.64,20.98 48.85,151.29 93.95,289.05 94.05,290.34 2.05,22.44 10.64,38.44 22.98,49.39 l 1.61,22.01 c 4.19,3.54 8.81,6.87 13.75,9.77 0.64,14.5 -0.43,29.1 -5.15,44.24 -22.34,72.16 -29,91.59 -18.48,153.65 12.89,76.34 -16.31,124.76 10.1,142.48 l 1.72,0.54 -127.22,627.17 v 243.85 l 185.62,-897.97 c 8.75,5.82 16.94,8.44 24.6,8.44 57.5,0 84.53,-147.97 83.96,-202.35 -0.22,-30.72 -10.95,-42.85 -35.44,-45.96 l 175.02,-948.74 c 2.26,8.49 10.52,34.79 25.88,42.31 2.14,1.07 4.5,1.82 6.97,2.04 1.59,0.13 3.25,0.2 5,0.2 34.57,0 99.16,-26.41 133.3,-41.54 10.85,6.44 22.44,12.88 34.79,18.68 l 8.8,48.64 1.61,8.7 c 1.07,8.05 -2.14,14.6 -8.69,21.15 -27.27,9.13 -47.57,19.65 -62.6,34.9 -1.72,1.72 -3.44,3.33 -4.94,5.15 -7.52,8.8 -12.77,18.47 -16.32,29.31 -9.99,30.71 -5.69,70.44 2.36,124.23 0,0 1.07,7.41 2.69,18.26 -8.59,7.19 -15.57,17.07 -16.76,24.58 -3.64,23.09 3.88,35.22 28.25,47.57 1.72,10.09 3.33,18.79 4.61,24.38 3.54,15.78 13.75,61.3 26.85,93.09 -3.66,1.92 -6.98,4.39 -9.88,7.4 -13.43,13.85 -18.25,36.72 -18.25,36.72 1.99,-0.91 4.51,-1.38 7.6,-1.38 4.57,0 10.39,1.03 17.63,3.21 -34.68,25.25 -48.41,58.2 -47.13,82.08 15.69,-23.47 43.99,-52.66 99.6,-96.03 v 0 l 0.51,-0.43 c 43.92,-34.22 104.88,-77.21 190.01,-133.22 v 0 c 46.07,-33.01 87.4,-61.23 124.37,-86.04 -3.44,-5.61 -5.63,-8.48 -5.63,-8.48 -7.84,-3.12 -16.64,-4.62 -26.09,-4.83 -0.22,-6.23 -0.22,-11.92 -0.22,-17.19 0.11,-24.8 2.58,-39.51 6.67,-46.38 0,0 -0.42,-0.02 -1.18,-0.02 -4.29,0 -19.48,0.77 -31.79,11.08 -40.58,-78.06 -72.58,-115.1 -111.67,-130.03 l -17.71,-98.46 c 16.1,-10.3 70.32,-23.62 75.91,-37.15 12.99,-9.34 20.19,-20.08 24.91,-29.95 2.47,-0.65 4.94,-1.4 7.41,-2.26 44.67,-17.07 151.71,-85.04 167.28,-137.11 3.97,-5.48 7.73,-11.6 10.74,-18.47 22.01,-48.74 61.1,-138.51 91.48,-223.98 m -924.04,1232.84 c 0.75,-6.98 0.64,-14.81 -0.11,-23.51 -20.18,-225.91 -101.89,-425.3 -127.24,-525.16 20.3,-25.34 58.63,-124.55 120.59,-178.02 52.93,-35.97 110.59,-56.69 150.96,-67.85 l -7.84,24.15 c -1.82,5.58 -1.93,11.49 -0.86,16.96 l -135.5,753.43 m 13.96,28.35 -0.1,-2.04 c 0.74,-1.4 1.49,-2.9 2.14,-4.41 l -2.04,6.45 m 753.85,-256.6 c -23.51,9.22 -47.35,19.87 -70.57,32.13 v 0 c -87.51,58.58 -155.1,107.44 -183.88,135.19 -0.33,7.28 -0.46,15.92 -0.42,25.8 8.9,2.16 17.9,3.51 26.93,4.1 3.59,0.24 7.17,0.36 10.77,0.36 94.71,0 190.18,-80.68 214.49,-185.36 0.96,-4.12 1.85,-8.18 2.68,-12.22" /><path
         id="path92"
         style="fill:#a0b820;fill-opacity:1;fill-rule:nonzero;stroke:none"
         d="m 5201.19,3866.56 c -0.01,0.01 -0.01,0.02 -0.02,0.02 v 440.01 c 0.01,0.02 0.01,0.04 0.02,0.06 v -440.09 m 0,1800.66 -0.02,0.09 v 243.84 l 0.02,-0.08 v -243.85" /><path
         id="path94"
         style="fill:#557b2b;fill-opacity:1;fill-rule:nonzero;stroke:none"
         d="m 4604.5,7903.68 h 532.27 c 35.43,0 64.42,-28.99 64.42,-64.42 v -60.21 c 0,-35.44 -28.99,-64.43 -64.42,-64.43 H 4604.5" /><path
         id="path96"
         style="fill:none;stroke:#e8e7e6;stroke-width:51.11930084;stroke-linecap:round;stroke-linejoin:round;stroke-miterlimit:10;stroke-dasharray:none;stroke-opacity:1"
         d="m 5070.59,7493.35 -41.38,102.83 c -2.63,6.52 0.29,14.58 6.48,17.92 l 249.6,134.6 c 6.19,3.34 8.38,11.05 4.87,17.14 l -97.93,170.06" /><path
         id="path98"
         style="fill:#493226;fill-opacity:1;fill-rule:nonzero;stroke:none"
         d="m 7028.08,757.68 c 19.11,0 15.87,40.519 53.91,46.691 80.88,13.121 61.57,-38.601 97.91,-39.019 33.67,-0.383 60.65,-8.512 60.65,-37.602 0,-27.82 2.44,-63.93 -4.38,-93.629 -6.59,-28.711 -51.43,-32.641 -116.93,-32.641 -56.41,0 -123.42,11.122 -125.53,36.211 -3.03,35.969 -15.94,119.989 34.37,119.989" /><path
         id="path100"
         style="fill:#8b2f23;fill-opacity:1;fill-rule:nonzero;stroke:none"
         d="m 7136.83,4607.48 c 0,0 -25.96,-1.19 -46.31,12.09 -7.74,4.94 -14.64,12 -18.98,21.96 l -0.94,2.47 c -9.96,29.37 38.56,47.16 53.38,51.84 2.63,0.85 4.17,1.28 4.17,1.28 -1.02,-14.89 -1.36,-27.75 -1.11,-38.82 0.35,-27.15 4.01,-43.33 9.79,-50.82" /><path
         id="path102"
         style="fill:#8b2f23;fill-opacity:1;fill-rule:nonzero;stroke:none"
         d="m 6618.4,4945.77 c 0,0 6.97,-25.04 25.93,-40.24 7.11,-5.82 15.97,-10.18 26.79,-11.2 0.91,-0.06 1.83,-0.12 2.64,-0.12 31.02,-0.33 32.81,51.32 32.64,66.85 -0.02,2.77 -0.08,4.36 -0.08,4.36 -13.85,-5.6 -25.96,-9.93 -36.56,-13.13 -25.92,-8.13 -42.43,-9.68 -51.36,-6.52" /><path
         id="path104"
         style="fill:#f8a478;fill-opacity:1;fill-rule:nonzero;stroke:none"
         d="m 5986.99,5176.82 c -0.25,-4.25 -0.77,-8.42 -1.36,-12.43 -13.45,-84.61 -178.09,-24.68 -174.08,-16.93 4.08,7.74 4.93,50.65 4.93,50.65 4.94,48.69 22.99,88.19 4.86,133.05 -32.02,79 -41.64,100.29 -27.42,168.39 17.37,83.6 -24.18,136.63 12.77,156.04 10.64,5.62 26.73,-20.6 43.5,-57.12 29.71,-64.95 61.63,-162.6 69.04,-173.15 11.15,-15.67 73.56,-161.49 67.76,-248.5" /><path
         id="path106"
         style="fill:#e6624f;fill-opacity:1;fill-rule:nonzero;stroke:none"
         d="m 5986.99,5176.82 c -51.58,0.68 -117.9,10.39 -117.9,10.39 0,0 25.28,80.28 29.79,130.59 4.52,50.4 -2.12,54.74 -23.4,110.07 -21.29,55.33 -27.67,102.15 -37.55,155.36 0,0 4.77,5.96 12.26,15.24 29.71,-64.95 61.63,-162.6 69.04,-173.15 11.15,-15.67 73.56,-161.49 67.76,-248.5" /><path
         id="path108"
         style="fill:#ece5ea;fill-opacity:1;fill-rule:nonzero;stroke:none"
         d="m 5809.85,5271.89 c 49.31,33.96 147.92,40.35 177.52,-4.12 l -3.35,-50.59 c -4.26,-21.29 -180.19,-18.45 -180.19,-18.45 l 6.02,73.16" /><path
         id="path110"
         style="fill:#f8a478;fill-opacity:1;fill-rule:nonzero;stroke:none"
         d="M 5080.57,7472.02 6722.75,3552.9 5080.57,7472.02" /><path
         id="path112"
         style="fill:#969797;fill-opacity:1;fill-rule:nonzero;stroke:none"
         d="M 5053.09,7460.51 6695.27,3541.39 c 6.35,-15.18 23.81,-22.32 38.99,-15.96 15.17,6.35 22.32,23.81 15.96,38.99 L 5108.05,7483.54 c -6.36,15.17 -23.81,22.32 -38.99,15.96 -15.18,-6.35 -22.33,-23.81 -15.97,-38.99" /><path
         id="path114"
         style="fill:#f8a478;fill-opacity:1;fill-rule:nonzero;stroke:none"
         d="M 6363.23,4395.59 7307.45,2152.7 6363.23,4395.59" /><path
         id="path116"
         style="fill:#969797;fill-opacity:1;fill-rule:nonzero;stroke:none"
         d="m 6335.76,4384.03 944.23,-2242.9 c 6.38,-15.16 23.85,-22.28 39.02,-15.9 15.17,6.39 22.29,23.86 15.9,39.03 l -944.22,2242.89 c -6.39,15.17 -23.86,22.29 -39.02,15.9 -15.17,-6.38 -22.29,-23.86 -15.91,-39.02" /><path
         id="path118"
         style="fill:#f8a478;fill-opacity:1;fill-rule:nonzero;stroke:none"
         d="m 5970.56,5635.49 c -52.55,-11.23 -84.99,-57.22 -85.83,-90.33 -0.85,-33.11 22.56,-33.13 28.95,-89.52 6.38,-56.39 34.05,-94.7 74.49,-92.57 40.43,2.13 57.37,14.84 57.46,51.08 0.16,67.62 -44.69,131.01 -44.69,131.01 17.02,22.22 9.47,98.84 -30.38,90.33" /><path
         id="path120"
         style="fill:#e6624f;fill-opacity:1;fill-rule:nonzero;stroke:none"
         d="m 6648.91,4780.11 c -60.97,-18.54 -79.57,-31.23 -72.77,-63.6 3.33,-15.83 37.04,-41.58 58.32,-35.91 75.41,20.09 14.45,99.51 14.45,99.51" /><path
         id="path122"
         style="fill:#493226;fill-opacity:1;fill-rule:nonzero;stroke:none"
         d="m 6689.74,600.262 h -245.81 l -14.05,45.398 h 259.86 v -45.398" /><path
         id="path124"
         style="fill:#f8a478;fill-opacity:1;fill-rule:nonzero;stroke:none"
         d="m 6705.98,4349.12 c 0,0 -11.75,-44.78 61.84,-61.09 73.6,-16.31 129.44,18.71 129.44,18.71 l 49.66,224.12 -188.93,52.98 -52.01,-234.72" /><path
         id="path126"
         style="fill:#e6624f;fill-opacity:1;fill-rule:nonzero;stroke:none"
         d="m 6722.75,4424.79 c 169.43,-37.54 162.81,-164.43 170.11,-131.51 7.29,32.93 64.6,285.17 64.6,285.17 l -191.56,41.09 -43.15,-194.75" /><path
         id="path128"
         style="fill:#ffffff;fill-opacity:1;fill-rule:nonzero;stroke:none"
         d="m 6631.35,4336.72 c 51.57,23.32 117.16,60.16 202.3,52.43 115.47,-10.5 135.65,-71.98 130.42,-105.45 -5.21,-33.32 -279.16,37.53 -278.6,41.75 0.56,4.22 -56.98,11.78 -56.98,11.78" /><path
         id="path130"
         style="fill:#e6624f;fill-opacity:1;fill-rule:nonzero;stroke:none"
         d="m 6616.83,4729.19 c -9.75,-44.05 6.14,-154.08 23.23,-189.73 7.29,-15.21 14.8,-47.74 44.89,-64.67 27.38,-15.4 43.36,-25.52 39.85,-41.37 -2.3,-10.36 12.58,-5.28 27.47,-0.2 9.82,3.35 19.66,6.7 24.56,5.61 146.61,-32.48 242.62,111.92 266.46,219.51 l -13.91,151.14 c 26.1,117.78 -21.87,217.22 -135.84,241.56 -113.96,24.34 -191.81,-38.12 -217.91,-155.9 l -58.8,-165.95" /><path
         id="path132"
         style="fill:#f8a478;fill-opacity:1;fill-rule:nonzero;stroke:none"
         d="m 7009.82,4829.07 c -0.68,-4.17 -13.03,-6.04 -13.96,-10.29 l -5.02,-33.81 -10.48,-69.97 c -3.06,-16.52 -3.74,-34.9 -5.95,-53.46 -0.6,-4.94 -1.28,-9.88 -2.13,-14.81 -1.79,-10.05 -4.26,-19.93 -8.18,-29.54 -23.15,-57.38 -58.31,-112.8 -106.49,-143.19 -33.12,-21.03 -72.36,-30.13 -118.08,-20.18 -57.12,12.52 -96.02,23.76 -122.24,47.51 -10.56,9.7 -18.05,20.26 -23.07,32.09 -14.38,33.71 -8.77,77.3 2.04,136.21 0,0 17.45,97.89 25.29,125.82 5.19,18.47 20.77,74.74 40.86,109.56 10.3,17.96 21.79,30.22 33.62,28.69 50.68,-6.45 63.63,33.36 78.56,73.18 16.2,43.19 34.73,86.37 106.26,70.52 110.08,-24.35 159.87,-94.33 128.97,-248.33" /><path
         id="path134"
         style="fill:#e6624f;fill-opacity:1;fill-rule:nonzero;stroke:none"
         d="m 6964.07,4617.18 c -39.19,-176.87 -112.34,-190.65 -224.62,-166.13 -57.14,12.48 -95.87,26.51 -122.11,50.33 -10.58,9.67 -18.09,20.21 -23.08,32.07 22.61,-40.97 222.88,-98.84 259.64,67.08 12.52,56.53 60.42,46.76 110.17,16.65" /><path
         id="path136"
         style="fill:#8b2f23;fill-opacity:1;fill-rule:nonzero;stroke:none"
         d="m 6946.85,4542.95 c 6.74,8.34 7.91,-3.98 7.77,-16.3 -0.13,-10.79 -1.25,-21.58 -0.5,-18.48 28.26,116.9 15.57,15.87 52.3,144.1 18,62.88 46.68,53.67 71.12,44.47 18.05,-6.8 33.79,-13.6 41.19,8.68 85.5,257.16 21.6,334.43 -207.48,383.35 -127.53,27.23 -188.01,-37.52 -209.46,-106.91 -24.98,-80.81 -57.5,-205.34 -11.73,-215.48 14.27,-3.16 42.8,-5.49 42.8,-5.49 l 213.99,-217.94" /><path
         id="path138"
         style="fill:#8b2f23;fill-opacity:1;fill-rule:nonzero;stroke:none"
         d="m 6962.43,4616.55 c 5.97,7.55 7.36,-3.45 7.56,-14.45 0.17,-9.61 -0.57,-19.23 0.03,-16.45 11.23,51.51 17.3,43.77 25.13,36.02 8.09,-7.99 18.06,-15.99 37.52,41.14 20.23,59.39 39.61,46.6 56.65,33.8 12.41,-9.31 23.56,-18.62 32.9,-0.11 122.68,243.21 -37.61,390.8 -205.85,402.17 -135.53,9.16 -179.16,-48.85 -214.62,-80.05 -15.64,-13.76 -23.74,-12.76 -25.67,-11.76 -2.09,1.08 3.17,2.17 14.06,-15.92 46.05,-76.52 32.93,-170.58 32.93,-170.58 l 239.36,-203.81" /><path
         id="path140"
         style="fill:#8b2f23;fill-opacity:1;fill-rule:nonzero;stroke:none"
         d="m 7121.75,5025.57 c -78.61,17.42 -138.1,9.95 -187,-1.46 -105.93,-24.71 -130.55,4.27 -150.58,-36.11 -31.48,-63.47 42,-138.47 74.46,-144.54 61.91,-11.56 79.65,74.74 102.87,84.62 23.22,9.87 160.25,97.49 160.25,97.49" /><path
         id="path142"
         style="fill:#8b2f23;fill-opacity:1;fill-rule:nonzero;stroke:none"
         d="m 7130.45,4724.62 c -1.96,-9.62 -4.09,-19.24 -6.47,-28.78 -4.08,-15.91 -9.03,-31.58 -15.84,-46.05 -1.27,-2.98 -2.72,-5.87 -4.26,-8.68 -1.87,-3.49 -3.91,-6.9 -6.04,-10.22 -2.47,-3.83 -4.94,-7.66 -7.32,-11.32 -75.17,-114.16 -129.22,-148.38 -214.95,-151.36 -6.55,-0.25 -12.26,3.66 -17.96,5.79 -25.2,9.62 -44.01,23.49 -57.63,40.35 -46.74,57.63 -33.63,150.08 -16.69,226.02 1.79,7.83 3.58,15.4 5.36,22.81 4.26,17.88 8.43,34.39 11.58,48.78 l 190.61,-26.99 11.15,-1.61 c 0,0 2.46,-15.41 4.94,-39.16 9.02,-2.89 19.23,-5.45 29.79,-7.58 43.76,-8.94 93.73,-12 93.73,-12" /><path
         id="path144"
         style="fill:#f8a478;fill-opacity:1;fill-rule:nonzero;stroke:none"
         d="m 6685.94,4769.49 c -12.83,-43.2 1.13,-85.85 31.19,-95.25 30.06,-9.41 64.85,17.99 77.68,61.2 12.84,43.2 3.33,81.16 -25.82,93.3 -29.14,12.14 -70.21,-16.04 -83.05,-59.25" /><path
         id="path146"
         style="fill:#344655;fill-opacity:1;fill-rule:nonzero;stroke:none"
         d="m 6650.54,4330.38 c 0,0 41.43,-23.82 91.9,-40.69 86.73,-28.97 279.44,-59.54 258,-12.46 -10.03,22.02 -25.21,59.98 -118.46,73.91 -93.25,13.93 -153.34,-10.03 -212.85,-17.12" /><path
         id="path148"
         style="fill:#18222d;fill-opacity:1;fill-rule:nonzero;stroke:none"
         d="m 7308.45,3555.97 c -106.75,-66.91 -255.13,-176.99 -256.66,-178.09 -19.83,-14.73 -42.91,-21.88 -65.89,-21.88 -33.8,0 -67.17,15.49 -88.88,44.69 -36.52,49.04 -26.22,118.42 22.82,154.85 5.36,4.01 114.41,84.88 216.99,152.98 -19.84,54.31 -67.59,156.81 -152.89,302.46 -30.9,52.7 -13.11,120.46 39.58,151.36 36.18,21.2 79.43,19.5 112.97,-0.77 15.41,-9.1 28.77,-22.21 38.48,-38.81 34.65,-59.25 99.51,-173.84 144.38,-275.9 11.41,-26.06 27.32,-62.24 37.88,-101.05 l 0.59,-2.22 c 1.45,-5.36 2.82,-10.81 4.01,-16.34 l 0.08,-0.34 c 13.88,-63.76 9.79,-131.27 -53.46,-170.94" /><path
         id="path150"
         style="fill:#212e3d;fill-opacity:1;fill-rule:nonzero;stroke:none"
         d="m 7343.27,3674.81 c -24.86,-8.43 -68.1,8.6 -93.64,80.96 -25.54,72.35 -105.05,248.32 -160.38,346.21 0,0 20.08,29.38 47.24,59.59 15.41,-9.1 28.77,-22.21 38.48,-38.81 34.65,-59.25 99.51,-173.84 144.38,-275.9 11.41,-26.06 27.32,-62.24 37.88,-101.05 l 0.59,-2.22 c 1.71,-5.45 3.08,-10.98 4.01,-16.34 l 0.08,-0.34 c 4.26,-23.93 1.03,-45.38 -18.64,-52.1" /><path
         id="path152"
         style="fill:#a0443a;fill-opacity:1;fill-rule:nonzero;stroke:none"
         d="m 7028.08,855.152 c 19.11,0 15.87,40.52 53.91,46.688 80.88,13.121 61.57,-38.61 97.91,-39.031 33.67,-0.379 60.65,-8.508 60.65,-37.59 0,-27.828 2.44,-85.418 -4.38,-115.11 -6.59,-28.707 -51.43,-32.64 -116.93,-32.64 -56.41,0 -123.42,11.121 -125.53,36.211 -3.03,35.972 -15.94,141.472 34.37,141.472" /><path
         id="path154"
         style="fill:#a0443a;fill-opacity:1;fill-rule:nonzero;stroke:none"
         d="m 6689.48,650.34 c -0.34,-9.36 -0.77,-18.559 -1.36,-27.578 0,0 -73.98,-8.512 -210.36,19.41 -159.19,32.687 -194.94,-19.41 -277.26,-19.41 -82.32,0 -170.26,0 -170.26,0 0,0 -6.56,20.09 -9.11,43.758 -3.74,33.972 0.51,75.421 43.67,75.421 162.18,0 171.03,35.418 266.2,75 83.94,34.911 98.88,112.489 98.88,179.739 0,0 94.96,-83.461 176.94,-134.528 73.29,-45.632 84.96,-132.98 82.66,-211.812" /><path
         id="path156"
         style="fill:#c4bea8;fill-opacity:1;fill-rule:nonzero;stroke:none"
         d="m 6429.88,860.699 c 52.14,-40.437 134.28,-86.386 196.43,-33.617 0,0 -59.16,97.469 -82.57,91.078 -23.41,-6.39 -113.86,-57.461 -113.86,-57.461" /><path
         id="path158"
         style="fill:#18222d;fill-opacity:1;fill-rule:nonzero;stroke:none"
         d="m 7124.74,820.25 c -58.57,-8.508 -125.73,-10.469 -140.72,49.461 -56.43,224.569 -136.8,1230.039 -155.44,1685.739 -6.13,149.31 -5.53,283.22 4.6,383.59 2.21,21.79 9.61,41.79 20.85,58.91 26.05,39.92 72.96,64.27 123.7,59.08 47.67,-4.85 86.74,-34.4 105.9,-74.66 h 0.08 c 9.96,-21.03 14.56,-45.04 12,-69.89 -6.29,-61.97 -8.59,-139.53 -7.83,-227.13 4.01,-441.73 87.52,-1544.16 145.4,-1774.612 C 7251.07,840 7183.31,828.77 7124.74,820.25" /><path
         id="path160"
         style="fill:#212e3d;fill-opacity:1;fill-rule:nonzero;stroke:none"
         d="m 6623.67,3999.15 c -1.19,-1.96 -2.38,-3.83 -3.66,-5.7 -21.02,-31.42 -56.01,-48.7 -91.77,-48.7 -3.49,0 -6.98,0.17 -10.55,0.51 25.88,-113.48 76.02,-410.83 -31.41,-192.3 -14.2,28.89 -24.49,28.74 -31.32,28.59 -7.22,-0.15 -10.57,-0.31 -10.57,33.81 0,182.17 -100.11,196.05 -397.55,409.13 -85.13,56.01 -146.09,99 -190.01,133.22 l -0.51,0.43 c -91.68,71.51 -109.14,104.45 -118.25,136.8 -7.23,25.71 -19.4,68.79 8.61,410.15 13.11,160.13 29.19,287.14 29.36,288.59 6.47,60.78 69.47,79.34 130.25,72.87 60.78,-6.39 96.29,-26.82 89.9,-87.6 -26.22,-247.55 -49.46,-525.58 -45.55,-611.82 28.78,-27.75 96.37,-76.61 183.88,-135.19 127.02,-85.04 296.17,-190.43 450.08,-281.18 52.61,-31.07 70.15,-98.92 39.07,-151.61" /><path
         id="path162"
         style="fill:#212e3d;fill-opacity:1;fill-rule:nonzero;stroke:none"
         d="m 7095.71,2912.48 c -1.1,-10.98 -2.12,-20.35 -2.97,-28.77 -3.07,-30.14 -4.6,-48.78 -4.86,-88.45 -0.08,-12.01 -0.08,-25.89 0.09,-42.57 8.42,-97.9 -181.92,-130.76 -259.39,-171.7 -41.8,-22.05 -73.72,-50.06 -84.36,-95.01 -41.38,-175.96 -91.94,-1660.781 -91.94,-1660.781 l -275.23,19.922 c 0,0 68.11,1700.449 67.34,2038.589 0,0 41.12,16.68 103.52,37.62 11.49,3.83 23.75,7.92 36.52,11.92 77.12,24.6 175.96,51.76 269.6,64.7 88.79,12.26 172.9,11.83 229.6,-15.58 h 0.08 c 9.96,-21.03 14.56,-45.04 12,-69.89" /><path
         id="path164"
         style="fill:#212e3d;fill-opacity:1;fill-rule:nonzero;stroke:none"
         d="m 7166.55,4108.88 -64.28,-1133.92 -5.19,-91.42 c -0.52,-8.6 -2.05,-16.18 -4.6,-22.82 -13.62,-36.61 -55.68,-45.12 -103.26,-45.12 0,0 -79.17,1.7 -177.24,6.98 h -0.34 c -158.94,8.6 -367.25,26.39 -367.25,61.13 v 1069.56 c 0,56.18 -28.94,137.9 -64.18,181.57 -2.73,3.41 -7.75,8.86 -14.65,16.01 -81.3,85.38 -423.09,412.88 -292.16,318.64 19.41,-13.96 40.01,-26.48 61.12,-37.55 126,-66.57 269.95,-85.38 285.19,-87.17 l 1.36,-0.17 c 0,0 11.24,39.5 36.94,49.46 3.07,1.2 6.3,1.96 9.79,2.21 63.85,4.35 226.02,-56.52 226.02,-56.52 53.89,-15.92 165.49,-32.6 199.88,-36.1 34.39,-3.48 73.13,-0.25 107.69,-10.47 76.62,-22.81 168.31,-128.2 165.16,-184.3" /><path
         id="path166"
         style="fill:#6b4743;fill-opacity:1;fill-rule:nonzero;stroke:none"
         d="m 7092.48,2860.72 c -13.62,-36.61 -55.68,-36.6 -103.26,-36.6 0,0 -79.17,1.7 -177.24,6.97 h -0.34 c -158.94,8.6 -367.25,26.4 -367.25,61.13 v 59.59 c 0,-34.73 208.31,-52.52 367.25,-61.12 h 0.34 c 98.07,-5.28 177.24,-6.98 177.24,-6.98 47.58,0 93.57,4.83 107.19,41.43 2.55,6.64 -1.38,-57.78 -3.93,-64.42" /><path
         id="path168"
         style="fill:#f3ebea;fill-opacity:1;fill-rule:nonzero;stroke:none"
         d="m 6647.59,2893.92 c -26.13,2.56 -51.41,5.28 -74.65,8.43 -74.32,9.87 -128.55,23.24 -128.55,40.95 v 55.33 c 32.27,-23.84 75.26,-50.74 127.18,-71.77 21.29,-11.23 46.57,-22.55 76.02,-32.94" /><path
         id="path170"
         style="fill:#212e3d;fill-opacity:1;fill-rule:nonzero;stroke:none"
         d="m 6639.51,3137.9 c -25.54,-129.83 148.17,-282.67 47.49,-256.37 -282.13,73.68 -413.94,200.06 -413.94,200.06 0,0 168.53,380.84 168.53,685.17 0,176.64 295.81,-243.65 310.71,-286.22 14.9,-42.56 -112.79,-342.64 -112.79,-342.64" /><path
         id="path172"
         style="fill:#1d2a38;fill-opacity:1;fill-rule:nonzero;stroke:none"
         d="m 7008.78,2789.92 c -68.68,0 -172.33,7.49 -273.33,37.33 25.93,-1.8 51.65,-3.34 76.19,-4.67 h 0.34 c 98.07,-5.28 177.24,-6.98 177.24,-6.98 45.08,0 85.19,7.64 100.87,39.56 -1.33,-17.04 -2.04,-33.98 -2.21,-59.9 v 0 h -0.08 c -5.34,-2.25 -34.99,-5.33 -79.02,-5.34" /><path
         id="path174"
         style="fill:#1d2a38;fill-opacity:1;fill-rule:nonzero;stroke:none"
         d="m 6989.22,2815.6 c 0,0 -79.17,1.7 -177.24,6.98 h -0.34 c -24.54,1.33 -50.26,2.87 -76.19,4.67 -11.44,3.38 -22.85,7.04 -34.16,11.02 37.34,-2.91 75.06,-5.27 110.35,-7.18 h 0.34 c 98.07,-5.27 177.24,-6.97 177.24,-6.97 0.01,0 0.01,0 0.02,0 45.07,0 85.18,0 100.86,31.12 0,-0.02 -0.01,-0.05 -0.01,-0.08 v 0 c -15.68,-31.92 -55.79,-39.56 -100.87,-39.56" /><path
         id="path176"
         style="fill:#4d3b3d;fill-opacity:1;fill-rule:nonzero;stroke:none"
         d="m 6989.24,2824.12 c -0.01,0 -0.01,0 -0.02,0 0,0 -79.17,1.7 -177.24,6.97 h -0.34 c -35.29,1.91 -73.01,4.27 -110.35,7.18 -45.39,15.93 -89.36,36.83 -128.35,64.08 v 0 0 c 20.99,-2.85 43.64,-5.34 67.08,-7.68 14.75,-4.41 29.97,-8.68 45.65,-12.79 62.19,-17.69 139.76,-30.28 234.3,-30.27 1.21,0 2.48,0 3.7,0 h 5.28 v 0 c 18.39,0.17 36.34,0.43 53.54,0.94 v 0 0 c 41.62,1.26 78.85,3.58 107.93,6.65 -0.11,-1.32 -0.22,-2.64 -0.32,-3.96 -15.68,-31.12 -55.79,-31.12 -100.86,-31.12" /><path
         id="path178"
         style="fill:#ababaf;fill-opacity:1;fill-rule:nonzero;stroke:none"
         d="m 6640.02,2894.67 c -23.44,2.34 -46.09,4.83 -67.08,7.68 v 0 c -8.6,6.04 -16.95,12.34 -25.03,18.98 -3.31,2.72 -6.58,5.49 -9.79,8.32 31.11,-12.16 65.07,-23.98 101.9,-34.98" /><path
         id="path180"
         style="fill:#1d2a38;fill-opacity:1;fill-rule:nonzero;stroke:none"
         d="m 6685.67,2881.88 c -15.68,4.11 -30.9,8.38 -45.65,12.79 -36.83,11 -70.79,22.82 -101.9,34.98 -9.15,8.05 -17.88,16.55 -26.14,25.56 18.35,-10.11 38.41,-19.86 60.02,-28.6 29.84,-15.67 67.5,-31.61 113.67,-44.73" /><path
         id="path182"
         style="fill:#212e3d;fill-opacity:1;fill-rule:nonzero;stroke:none"
         d="m 7102.27,2860.55 c -30.48,-3.75 -72.27,-6.56 -119.78,-8 -17.2,-0.51 -35.15,-0.77 -53.54,-0.94 h -5.28 c -294.81,-1.02 -426.07,120.2 -440.46,139.53 -13.79,18.47 -18.81,19.07 -38.82,48.94 -0.94,1.37 -1.87,2.73 -2.8,4.18 0,0 0.93,0.42 2.8,1.19 27.41,11.32 246.71,102.75 253.68,112.63 4.95,7.23 246.45,-107.27 404.2,-183.12 0,0 -4.77,-84.45 0,-114.41" /><path
         id="path184"
         style="fill:#1a2533;fill-opacity:1;fill-rule:nonzero;stroke:none"
         d="m 6928.95,2851.61 21.96,102.58 31.58,-101.64 c -17.2,-0.51 -35.15,-0.77 -53.54,-0.94" /><path
         id="path186"
         style="fill:#18222d;fill-opacity:1;fill-rule:nonzero;stroke:none"
         d="m 6528.37,4239.26 c -2.13,57.2 -52.85,102.9 -107.3,105.34 0,0 11.24,39.5 36.95,49.46 88.91,-29.24 70.35,-154.8 70.35,-154.8" /><path
         id="path188"
         style="fill:#52606e;fill-opacity:1;fill-rule:nonzero;stroke:none"
         d="m 6356.46,4008.92 c -0.99,0.83 -1.97,1.66 -2.94,2.47 0.99,-0.82 1.96,-1.64 2.94,-2.47 m -4.4,3.68 c -0.66,0.55 -1.33,1.09 -1.99,1.62 -1.62,1.36 -3.32,2.72 -5.02,4.08 l -1.73,1.39 c 2.99,-2.38 5.9,-4.73 8.74,-7.09 m -11.88,9.56 c -0.5,0.39 -1.01,0.78 -1.52,1.17 -0.54,0.43 -1.09,0.86 -1.63,1.29 1.06,-0.82 2.1,-1.64 3.15,-2.46 m -7.72,5.97 -0.52,0.39 c -34.33,26.08 -77.5,54.41 -130.87,89.97 53.64,-35.73 96.99,-64.15 131.39,-90.36" /><path
         id="path190"
         style="fill:#1a2533;fill-opacity:1;fill-rule:nonzero;stroke:none"
         d="m 6444.39,3915.91 c -28.4,38.56 -59.67,69.15 -86.83,92.09 -0.37,0.31 -0.73,0.62 -1.1,0.92 -0.98,0.83 -1.95,1.65 -2.94,2.47 -0.49,0.41 -0.97,0.82 -1.46,1.21 -2.84,2.36 -5.75,4.71 -8.74,7.09 l -0.4,0.32 c -0.89,0.71 -1.81,1.43 -2.74,2.15 -1.05,0.82 -2.09,1.64 -3.15,2.46 -1.5,1.18 -2.98,2.33 -4.41,3.39 l -0.16,0.12 c -34.4,26.21 -77.75,54.63 -131.39,90.36 -44.17,29.43 -95.32,63.82 -154.23,106 v 0 c -85.13,56.01 -146.09,99 -190.01,133.22 l -0.51,0.43 v 0 c -30.3,25.05 -19.96,46.45 7.53,46.45 14.46,0 33.65,-5.91 54.19,-20.31 45.79,-32.1 255.04,-145.15 447.52,-233.43 v 0 c 6.9,-7.15 11.92,-12.6 14.65,-16.01 35.24,-43.67 64.18,-125.39 64.18,-181.57 v -37.36" /><path
         id="path192"
         style="fill:#1a2533;fill-opacity:1;fill-rule:nonzero;stroke:none"
         d="m 6472.91,3872.4 c -8.95,15.49 -18.56,29.99 -28.52,43.51 v 37.36 c 0,56.18 -28.94,137.9 -64.18,181.57 -2.73,3.41 -7.75,8.86 -14.65,16.01 31.5,-14.39 63,-27.16 92.28,-40.86 59.68,-27.84 80.71,-77.04 63.34,-125.06 -13.71,-37.71 -32.69,-79.76 -48.27,-112.53" /><path
         id="path194"
         style="fill:#493226;fill-opacity:1;fill-rule:nonzero;stroke:none"
         d="m 6689.65,660.313 c -0.26,-11.333 -0.85,-48.024 -1.53,-58.833 0,0 -70.62,27.239 -209.83,27.239 -166,0 -195.47,-27.239 -277.79,-27.239 -82.32,0 -170.26,0 -170.26,0 0,0 -4.77,14.809 -7.75,34.051 h 178.01 c 82.32,0 122.96,27.918 294.29,27.918 108.19,0 158.55,-3.136 194.86,-3.136" /><path
         id="path196"
         style="fill:#61241d;fill-opacity:1;fill-rule:nonzero;stroke:none"
         d="m 7108.14,4649.79 v 0 c 6.81,14.47 11.76,30.14 15.84,46.05 v 0 0 0 c 2.63,0.85 4.17,1.28 4.17,1.28 -0.81,-11.75 -1.19,-22.23 -1.19,-31.57 0,-2.5 0.03,-4.91 0.08,-7.25 -5.96,-3.57 -12.26,-6.38 -18.9,-8.51 v 0" /><path
         id="path198"
         style="fill:#b4795a;fill-opacity:1;fill-rule:nonzero;stroke:none"
         d="m 6675.83,4884.68 c -5.27,7.55 -9.74,14.38 -13.42,20.33 7.77,13.56 16.23,23.87 25,27.45 -4.27,-15.78 -8.27,-31.98 -11.58,-47.78" /><path
         id="path200"
         style="fill:#61241d;fill-opacity:1;fill-rule:nonzero;stroke:none"
         d="m 6723.61,4825.2 c -20.1,22.05 -35.96,42.55 -47.78,59.48 3.31,15.8 7.31,32 11.58,47.78 2.19,0.89 4.4,1.37 6.63,1.37 0.66,0 1.33,-0.04 1.99,-0.13 3.67,-0.47 7.14,-0.69 10.43,-0.69 2.74,0 5.36,0.15 7.86,0.46 13.36,-48.76 10.67,-93.78 9.29,-108.27" /><path
         id="path202"
         style="fill:#61241d;fill-opacity:1;fill-rule:nonzero;stroke:none"
         d="m 6990.84,4784.97 v 0 l -190.61,26.99 c -1.06,-4.83 -2.23,-9.9 -3.48,-15.17 -4.76,14.9 -14.1,26.26 -27.76,31.95 -4.61,1.92 -9.53,2.84 -14.58,2.84 -9.39,0 -19.26,-3.15 -28.59,-8.79 -0.74,0.81 -1.48,1.61 -2.21,2.41 1.38,14.49 4.07,59.51 -9.29,108.27 35.86,4.35 47.32,38.88 60.27,73.41 13.85,36.93 29.41,73.87 78.37,73.87 8.29,0 17.53,-1.06 27.89,-3.35 39.47,-8.74 71.2,-23.34 94.22,-45.57 -14.25,-2.07 -27.64,-4.76 -40.32,-7.72 -105.93,-24.71 -130.55,4.27 -150.58,-36.11 -31.48,-63.47 42,-138.47 74.46,-144.54 3.87,-0.72 7.58,-1.06 11.12,-1.06 53.03,0 69.98,76.42 91.75,85.68 7.83,3.33 28.61,15.5 52.71,30.18 7.29,-34.4 6.09,-76.96 -4.39,-129.19 -0.68,-4.17 -13.03,-6.04 -13.96,-10.29 l -5.02,-33.81" /><path
         id="path204"
         style="fill:#61241d;fill-opacity:1;fill-rule:nonzero;stroke:none"
         d="m 6869.75,4842.4 c -3.54,0 -7.25,0.34 -11.12,1.06 -32.46,6.07 -105.94,81.07 -74.46,144.54 20.03,40.38 44.65,11.4 150.58,36.11 12.68,2.96 26.07,5.65 40.32,7.72 19.42,-18.75 32.65,-42.91 39.14,-73.57 -24.1,-14.68 -44.88,-26.85 -52.71,-30.18 -21.77,-9.26 -38.72,-85.68 -91.75,-85.68" /><path
         id="path206"
         style="fill:#61241d;fill-opacity:1;fill-rule:nonzero;stroke:none"
         d="m 7068.09,4643.98 c -34.46,0 -69.83,10.16 -93.68,17.56 -12.43,3.92 -23.5,7.66 -31.67,10.81 -56.39,21.71 -104.17,51.08 -143.62,82.33 2.32,15.62 1.48,30.03 -2.37,42.11 1.25,5.27 2.42,10.34 3.48,15.17 l 190.61,-26.99 11.15,-1.61 c 0,0 2.46,-15.41 4.94,-39.16 9.02,-2.89 19.23,-5.45 29.79,-7.58 43.76,-8.94 93.73,-12 93.73,-12 -1.96,-9.62 -4.09,-19.24 -6.47,-28.78 v 0 c -4.08,-15.91 -9.03,-31.58 -15.84,-46.05 v 0 c -11.92,-3.91 -24.6,-5.53 -37.54,-5.79 -0.83,-0.01 -1.67,-0.02 -2.51,-0.02" /><path
         id="path208"
         style="fill:#b4795a;fill-opacity:1;fill-rule:nonzero;stroke:none"
         d="m 6799.12,4754.68 c -3.55,2.82 -7.04,5.66 -10.47,8.5 -24.22,20.08 -45.13,40.4 -62.83,59.61 9.33,5.64 19.2,8.79 28.59,8.79 5.05,0 9.97,-0.92 14.58,-2.84 13.66,-5.69 23,-17.05 27.76,-31.95 3.85,-12.08 4.69,-26.49 2.37,-42.11" /><path
         id="path210"
         style="fill:#e0a712;fill-opacity:1;fill-rule:nonzero;stroke:none"
         d="m 6659.71,4942.15 c -83.35,41.47 -94.18,106.45 -63.34,126.49 27.58,17.92 212.03,-22.22 354.88,-152.56 59.3,-54.1 25.3,32.55 102.76,-40.01 177.7,-166.21 -394.3,66.08 -394.3,66.08" /><path
         id="path212"
         style="fill:#f9ef46;fill-opacity:1;fill-rule:nonzero;stroke:none"
         d="m 7168.5,4677.61 c -43.63,-13.14 -106.63,-1.45 -173.86,24.62 -72.84,28.41 -150.63,73.76 -214.01,123.25 -89.18,69.69 -149.89,147.49 -128.03,196.97 1.01,2.19 1.93,4.38 3.13,6.56 v 0.09 c 32.23,69.86 78.24,115.53 130.32,141.78 34.26,17.34 71.18,26.34 108.47,28.23 140.16,7.25 286.66,-85.23 323.85,-206.55 61.36,-199.84 -49.87,-314.95 -49.87,-314.95" /><path
         id="path214"
         style="fill:#fbcc1e;fill-opacity:1;fill-rule:nonzero;stroke:none"
         d="m 7042.67,4707.42 c -14.05,-4.25 -30.31,-5.87 -48.03,-5.19 -72.84,28.41 -150.63,73.76 -214.01,123.25 -89.18,69.69 -149.89,147.49 -128.03,196.97 1.01,2.19 1.93,4.38 3.13,6.56 v 0.09 c 32.23,69.86 78.24,115.53 130.32,141.78 34.26,17.34 71.18,26.34 108.47,28.23 92.31,-31.15 171.11,-100.7 196.83,-184.42 59.88,-195.01 -48.68,-307.27 -48.68,-307.27" /><path
         id="path216"
         style="fill:#fddec7;fill-opacity:1;fill-rule:nonzero;stroke:none"
         d="m 6920.66,5131.42 c -54.63,4.49 -107.25,-9.51 -147.77,-47.4 -40.92,-38.28 20.54,-99.49 61.34,-61.33 23.94,22.38 55.18,24.56 86.43,21.99 23.59,-1.94 43.37,21.19 43.37,43.37 0,25.1 -19.82,41.43 -43.37,43.37" /><path
         id="path218"
         style="fill:#c38260;fill-opacity:1;fill-rule:nonzero;stroke:none"
         d="m 5285.95,7903.71 c 0,-52.83 -23.3,-97.92 -56.07,-115.21 -9.32,-4.83 -19.39,-7.62 -29.84,-7.62 -47.5,0 -85.98,54.97 -85.98,122.83 0,8.27 0.53,16.32 1.66,24.05 1.27,9.24 3.3,18.04 5.93,26.42 5.72,18.03 14.36,33.71 25.11,45.84 14.58,16.54 33.14,26.42 53.28,26.42 10.45,0 20.52,-2.69 29.84,-7.63 8.49,-4.51 16.39,-10.84 23.37,-18.79 10.75,-12.13 19.39,-27.81 25.11,-45.84 2.63,-8.38 4.66,-17.18 5.93,-26.42 1.13,-7.73 1.66,-15.78 1.66,-24.05" /><path
         id="path220"
         style="fill:#bedd15;fill-opacity:1;fill-rule:nonzero;stroke:none"
         d="m 5287.83,7903.71 c 0,-4.4 -0.15,-8.8 -0.53,-12.99 -0.22,-3.22 -0.53,-6.44 -0.97,-9.67 -0.53,-4.07 -1.21,-8.05 -2.04,-11.91 -0.29,-1.83 -0.75,-3.76 -1.2,-5.48 -0.6,-2.47 -1.2,-4.83 -1.95,-7.19 -0.38,-1.61 -0.9,-3.12 -1.36,-4.62 -0.67,-2.04 -1.34,-3.97 -2.02,-5.8 l -0.53,-1.39 -0.6,-1.4 c -0.53,-1.39 -1.06,-2.68 -1.66,-3.97 -0.37,-1.07 -0.82,-2.04 -1.35,-3.01 -0.6,-1.39 -1.27,-2.9 -1.95,-4.19 -1.66,-3.33 -3.39,-6.44 -5.26,-9.44 -9.32,-15.25 -21.12,-27.06 -34.65,-34.15 -9.32,-4.83 -19.39,-7.62 -29.84,-7.62 l -0.82,0.1 -0.46,-0.1 h -532.28 c 10.45,0 20.52,2.79 29.76,7.62 13.53,7.09 25.33,18.9 34.65,34.15 1.88,3 3.61,6.11 5.26,9.44 0.68,1.4 1.36,2.8 1.96,4.19 0.52,0.97 0.97,1.94 1.35,3.01 0.83,1.72 1.58,3.54 2.25,5.37 l 0.53,1.39 c 0.68,1.93 1.35,3.87 2.03,5.8 0.45,1.5 0.98,3.01 1.35,4.62 0.75,2.36 1.35,4.72 1.96,7.19 0.45,1.83 0.83,3.65 1.2,5.48 0.83,3.86 1.5,7.84 2.03,11.91 0.37,3.12 0.75,6.45 0.97,9.67 0.38,4.19 0.53,8.59 0.53,12.99 0,8.27 -0.53,16.32 -1.65,24.05 -3.38,24.48 -11.95,46.28 -23.83,63.14 -2.33,3.22 -4.65,6.22 -7.21,9.12 -6.99,7.95 -14.89,14.28 -23.38,18.79 -8.71,4.62 -18.11,7.31 -27.81,7.52 l -2.03,0.11 h 533.64 c 10.45,0 20.52,-2.69 29.84,-7.63 8.49,-4.51 16.38,-10.84 23.37,-18.79 15.71,-17.71 26.99,-43.16 31.04,-72.26 1.13,-7.73 1.66,-15.78 1.66,-24.05" /><path
         id="path222"
         style="fill:#87b727;fill-opacity:1;fill-rule:nonzero;stroke:none"
         d="m 5276.63,7843.26 c -0.53,-1.39 -1.06,-2.68 -1.66,-3.97 -0.37,-1.07 -0.82,-2.04 -1.35,-3.01 -0.6,-1.39 -1.27,-2.9 -1.95,-4.19 -1.66,-3.33 -3.39,-6.44 -5.26,-9.44 -9.32,-15.25 -21.12,-27.06 -34.65,-34.15 -9.32,-4.83 -19.39,-7.62 -29.84,-7.62 l -0.82,0.1 -0.46,-0.1 h -532.28 c 10.45,0 20.52,2.79 29.76,7.62 13.53,7.09 25.33,18.9 34.65,34.15 1.88,3 3.61,6.11 5.26,9.44 0.68,1.4 1.36,2.8 1.96,4.19 0.52,0.97 0.97,1.94 1.35,3.01 0.83,1.72 1.58,3.54 2.25,5.37 l 0.53,1.39 c 0.68,1.93 1.35,3.87 2.03,5.8 0.45,1.5 0.98,3.01 1.35,4.62 0.75,2.36 1.35,4.72 1.96,7.19 0.45,1.83 0.83,3.65 1.2,5.48 0.83,3.86 1.5,7.84 2.03,11.91 0.37,3.12 0.75,6.45 0.97,9.67 0.38,4.19 0.53,8.59 0.53,12.99 0,8.27 -0.53,16.32 -1.65,24.05 -3.38,24.48 -11.95,46.28 -23.83,63.14 70.57,-53.37 336.42,-147.64 464.49,-147.64 h 83.43" /><path
         id="path224"
         style="fill:#fbca75;fill-opacity:1;fill-rule:nonzero;stroke:none"
         d="m 4589.29,7903.68 c 0,-67.81 38.49,-122.78 85.95,-122.78 47.46,0 85.94,54.97 85.94,122.78 0,67.81 -38.48,122.78 -85.94,122.78 -47.46,0 -85.95,-54.97 -85.95,-122.78" /><path
         id="path226"
         style="fill:#402230;fill-opacity:1;fill-rule:nonzero;stroke:none"
         d="m 4642.97,7903.68 c 0,-25.46 14.44,-46.1 32.27,-46.1 17.82,0 32.27,20.64 32.27,46.1 0,25.47 -14.45,46.11 -32.27,46.11 -17.83,0 -32.27,-20.64 -32.27,-46.11" /><path
         id="path228"
         style="fill:none;stroke:#acaeab;stroke-width:51.11930084;stroke-linecap:round;stroke-linejoin:round;stroke-miterlimit:10;stroke-dasharray:none;stroke-opacity:1"
         d="m 4645.23,7905.1 h 23.52" /><path
         id="path230"
         style="fill:#efb925;fill-opacity:1;fill-rule:nonzero;stroke:none"
         d="m 4702.74,7780.91 h 1.16 l -0.78,0.05 z" /><path
         id="path232"
         style="fill:#bedd15;fill-opacity:1;fill-rule:nonzero;stroke:none"
         d="m 4369.64,6904.59 c 34.1,0 62,28.99 62,64.42 v 34.35 c 0,35.43 -27.9,64.43 -62,64.43 -34.1,0 -62,-29 -62,-64.43 v -34.35 c 0,-35.43 27.9,-64.42 62,-64.42" /><path
         id="path234"
         style="fill:#fbcc1e;fill-opacity:1;fill-rule:nonzero;stroke:none"
         d="m 2482.84,4037.77 c 34.11,0 62.01,28.99 62.01,64.42 v 34.35 c 0,35.43 -27.9,64.42 -62.01,64.42 -34.09,0 -61.99,-28.99 -61.99,-64.42 v -34.35 c 0,-35.43 27.9,-64.42 61.99,-64.42" /><path
         id="path236"
         style="fill:#bedd15;fill-opacity:1;fill-rule:nonzero;stroke:none"
         d="m 5142.57,936.891 c 34.1,0 62,28.988 62,64.419 v 356.49 c 0,35.43 -27.9,64.42 -62,64.42 -34.1,0 -62,-28.99 -62,-64.42 v -356.49 c 0,-35.431 27.9,-64.419 62,-64.419" /><path
         id="path238"
         style="fill:#e42630;fill-opacity:1;fill-rule:nonzero;stroke:none"
         d="m 1394.71,699.352 v 506.058 c 0,35.43 -23.62,64.42 -52.48,64.42 -28.86,0 -52.47,-28.99 -52.47,-64.42 V 699.352" /><path
         id="path240"
         style="fill:#f9e21d;fill-opacity:1;fill-rule:nonzero;stroke:none"
         d="m 3110.98,1058.48 c 35.43,0 64.42,28.99 64.42,64.42 v 55.83 c 0,35.43 -28.99,64.42 -64.42,64.42 h -59.58 c -35.43,0 -64.42,-28.99 -64.42,-64.42 v -55.83 c 0,-35.43 28.99,-64.42 64.42,-64.42 h 59.58" /><path
         id="path242"
         style="fill:#fbcc1e;fill-opacity:1;fill-rule:nonzero;stroke:none"
         d="m 1851.15,3846.56 c 35.43,0 64.43,28.99 64.43,64.42 v 107.69 c 0,35.43 -29,64.42 -64.43,64.42 h -59.57 c -35.43,0 -64.43,-28.99 -64.43,-64.42 v -107.69 c 0,-35.43 29,-64.42 64.43,-64.42 h 59.57" /><path
         id="path244"
         style="fill:#f8f1cd;fill-opacity:1;fill-rule:nonzero;stroke:none"
         d="m 7629.2,1272.21 c -29.51,0 -53.65,-24.14 -53.65,-53.64 V 685.43 c 0,-29.508 24.14,-53.641 53.65,-53.641 h 678.41 c 29.5,0 53.64,24.133 53.64,53.641 v 533.14 c 0,29.5 -24.14,53.64 -53.64,53.64 H 7629.2" /><path
         id="path246"
         style="fill:#c1b5b9;fill-opacity:1;fill-rule:nonzero;stroke:none"
         d="m 7575.58,1269.35 v -48.25 c 0,-14.76 12.07,-26.82 26.82,-26.81 l 732.06,0.39 c 14.75,0.01 26.82,12.09 26.82,26.84 v 48.26 l -785.7,-0.43" /><path
         id="path248"
         style="fill:#ebf8ef;fill-opacity:1;fill-rule:nonzero;stroke:none"
         d="m 7602.4,1311.94 c -14.75,-0.01 -26.82,-12.08 -26.82,-26.83 v -21.02 c 0,-14.75 12.07,-26.82 26.82,-26.82 h 732.06 c 14.75,0 26.82,12.07 26.82,26.82 v 21.44 c 0,14.75 -12.07,26.81 -26.82,26.81 l -732.06,-0.4" /><path
         id="path250"
         style="fill:#ebdfe4;fill-opacity:1;fill-rule:nonzero;stroke:none"
         d="m 7575.58,1311.93 v -47.84 c 0,-14.75 12.07,-26.82 26.82,-26.82 h 157.57 c 14.75,0 26.82,12.07 26.82,26.82 v 48.26 l -211.21,-0.42" /><path
         id="path252"
         style="fill:#bddd15;fill-opacity:1;fill-rule:nonzero;stroke:none"
         d="m 7575.58,1220.19 v 0.91 c 0,-0.22 0,-0.44 0.01,-0.66 -0.01,-0.09 -0.01,-0.17 -0.01,-0.25" /><path
         id="path254"
         style="fill:#b6ce18;fill-opacity:1;fill-rule:nonzero;stroke:none"
         d="m 7575.58,743.309 v 0 476.881 c 0,0.08 0,0.16 0.01,0.25 0.14,-5.87 2.19,-11.27 5.54,-15.63 -3.55,-7.16 -5.55,-15.21 -5.55,-23.71 V 743.309 m 237.89,56.222 h -27.08 V 1181.1 c 0,4.58 -0.58,9.03 -1.67,13.29 l 464.62,0.25 V 958.809 c 0,-14.75 -12.07,-26.821 -26.82,-26.821 h -25.92 c -14.75,0 -26.82,-12.066 -26.82,-26.816 v -45.703 c 0,-14.758 -12.07,-26.828 -26.82,-26.828 h -61.81 c -14.76,0 -26.83,12.07 -26.83,26.828 V 1025.8 c 0,14.75 -12.07,26.82 -26.82,26.82 h -55.93 c -14.76,0 -26.82,-12.07 -26.82,-26.82 V 973 c 0,-14.75 -12.07,-26.82 -26.82,-26.82 h -50.81 c -14.76,0 -26.82,-12.071 -26.82,-26.821 v -93.007 c 0,-14.75 -12.07,-26.821 -26.83,-26.821" /><path
         id="path256"
         style="fill:#8d9f25;fill-opacity:1;fill-rule:nonzero;stroke:none"
         d="m 7784.72,1194.39 c -5.95,23.13 -27.05,40.36 -51.97,40.36 h -103.53 c -21.01,0 -39.3,-12.24 -48.09,-29.94 -3.35,4.36 -5.4,9.76 -5.54,15.63 -0.01,0.22 -0.01,0.44 -0.01,0.66 v 42.99 c 0,-14.75 12.07,-26.82 26.82,-26.82 h 157.57 v 0 h 489.37 v -42.63 l -464.62,-0.25" /><path
         id="path258"
         style="fill:#bddd15;fill-opacity:1;fill-rule:nonzero;stroke:none"
         d="m 7575.58,1311.93 v 0.61 h 673.76 v -0.24 l -99.04,-0.06 -363.51,-0.2 v 0.31 l -211.21,-0.42" /><path
         id="path260"
         style="fill:#a7d81c;fill-opacity:1;fill-rule:nonzero;stroke:none"
         d="m 8249.34,1237.27 h -489.37 c 14.75,0 26.82,12.07 26.82,26.82 v 47.95 l 363.51,0.2 -90.2,-0.06 c -9.39,-0.01 -17.07,-7.7 -17.07,-17.09 v -11.08 c 0,-9.39 7.68,-17.07 17.07,-17.07 h 189.24 v -29.67" /><path
         id="path262"
         style="fill:#abc11d;fill-opacity:1;fill-rule:nonzero;stroke:none"
         d="M 7759.97,1237.27 H 7602.4 c -14.75,0 -26.82,12.07 -26.82,26.82 v 47.84 l 211.21,0.42 v -0.31 -47.95 c 0,-14.75 -12.07,-26.82 -26.82,-26.82 v 0" /><path
         id="path264"
         style="fill:#ffffff;fill-opacity:1;fill-rule:nonzero;stroke:none"
         d="m 8249.34,1312.29 v 0.01 l 52.62,0.04 c 0.29,0 0.57,-0.01 0.86,-0.02 l -53.48,-0.03" /><path
         id="path266"
         style="fill:#f6fcf9;fill-opacity:1;fill-rule:nonzero;stroke:none"
         d="m 8301.96,1266.94 h -52.62 v 45.35 l 53.48,0.03 c 9,-0.44 16.22,-7.94 16.22,-17.04 v -11.27 c 0,-9.39 -7.68,-17.07 -17.08,-17.07" /><path
         id="path268"
         style="fill:#d7e60f;fill-opacity:1;fill-rule:nonzero;stroke:none"
         d="m 8150.3,1312.24 99.04,0.06 v -0.01 l -99.04,-0.05" /><path
         id="path270"
         style="fill:#cde310;fill-opacity:1;fill-rule:nonzero;stroke:none"
         d="M 8249.34,1266.94 H 8060.1 c -9.39,0 -17.07,7.68 -17.07,17.07 v 11.08 c 0,9.39 7.68,17.08 17.07,17.09 l 90.2,0.06 99.04,0.05 v -45.35" /><path
         id="path272"
         style="fill:#957faf;fill-opacity:1;fill-rule:nonzero;stroke:none"
         d="m 7732.75,631.762 h -103.53 c -15.28,0 -29.12,6.48 -38.92,16.82 9.79,-10.332 23.63,-16.793 38.9,-16.793 h 105.24 c -0.56,-0.019 -1.12,-0.027 -1.69,-0.027" /><path
         id="path274"
         style="fill:#e2ceb4;fill-opacity:1;fill-rule:nonzero;stroke:none"
         d="M 7734.44,631.789 H 7629.2 c -15.27,0 -29.11,6.461 -38.9,16.793 -9.11,9.617 -14.72,22.598 -14.72,36.816 v 57.911 c 0,-14.758 12.07,-26.817 26.82,-26.817 h 17.72 c 14.75,0 26.82,12.059 26.82,26.817 v 29.402 c 0,14.75 12.07,26.82 26.82,26.82 h 112.63 V 685.398 c 0,-28.937 -23.22,-52.707 -51.95,-53.609" /><path
         id="path276"
         style="fill:#a6b41f;fill-opacity:1;fill-rule:nonzero;stroke:none"
         d="m 7620.12,716.492 h -17.72 c -14.75,0 -26.82,12.059 -26.82,26.817 V 1181.1 c 0,8.5 2,16.55 5.55,23.71 4.92,-6.39 12.63,-10.53 21.27,-10.52 l 182.32,0.1 c 1.09,-4.26 1.67,-8.71 1.67,-13.29 V 799.531 h -112.63 c -14.75,0 -26.82,-12.07 -26.82,-26.82 v -29.402 c 0,-14.758 -12.07,-26.817 -26.82,-26.817" /><path
         id="path278"
         style="fill:#808925;fill-opacity:1;fill-rule:nonzero;stroke:none"
         d="m 7602.4,1194.29 c -8.64,-0.01 -16.35,4.13 -21.27,10.52 8.79,17.7 27.08,29.94 48.09,29.94 h 103.53 c 24.92,0 46.02,-17.23 51.97,-40.36 l -182.32,-0.1" /><path
         id="path280"
         style="fill:#e7f7fb;fill-opacity:1;fill-rule:nonzero;stroke:none"
         d="m 3585.47,632.813 h 463.973 v 594.719 H 3585.47 Z" /><path
         id="path282"
         style="fill:#bedd15;fill-opacity:1;fill-rule:nonzero;stroke:none"
         d="m 3585.47,743.602 h 463.973 v 373.141 H 3585.47 Z" /><path
         id="path284"
         style="fill:#bec4bb;fill-opacity:1;fill-rule:nonzero;stroke:none"
         d="m 3758.94,632.813 h -173.47 v 110.789 h 173.47 V 632.813 m 0,483.927 h -173.47 v 88.5 0 -23.7 h 173.47 v -64.8" /><path
         id="path286"
         style="fill:#9fab21;fill-opacity:1;fill-rule:nonzero;stroke:none"
         d="m 3585.47,743.602 h 173.473 v 373.141 H 3585.47 Z" /><path
         id="path288"
         style="fill:#effafd;fill-opacity:1;fill-rule:nonzero;stroke:none"
         d="m 3976.26,632.813 h -99.89 v 110.789 h 99.89 V 632.813 m 0,483.927 h -99.89 v 64.8 h 99.89 v -64.8" /><path
         id="path290"
         style="fill:#cfe411;fill-opacity:1;fill-rule:nonzero;stroke:none"
         d="m 3876.37,743.602 h 99.8906 v 373.141 H 3876.37 Z" /><path
         id="path292"
         style="fill:none;stroke:#778f9a;stroke-width:53.68579865;stroke-linecap:round;stroke-linejoin:miter;stroke-miterlimit:10;stroke-dasharray:none;stroke-opacity:1"
         d="M 4049.44,632.813 H 3585.47" /><path
         id="path294"
         style="fill:#778f9a;fill-opacity:1;fill-rule:nonzero;stroke:none"
         d="m 3565.01,1225.73 c 0,-11.32 9.18,-20.49 20.49,-20.49 h 463.95 c 11.31,0 20.49,9.17 20.49,20.49 0,11.31 -9.18,20.49 -20.49,20.49 H 3585.5 c -11.31,0 -20.49,-9.18 -20.49,-20.49" /><path
         id="path296"
         style="fill:#bedd15;fill-opacity:1;fill-rule:nonzero;stroke:none"
         d="m 3781.24,1246.22 c -11.81,0 -21.47,-9.22 -21.47,-20.49 0,-11.27 9.66,-20.49 21.47,-20.49 h 22.65 c 11.82,0 21.48,9.22 21.48,20.49 0,11.27 -9.66,20.49 -21.48,20.49 h -22.65" /><path
         id="path298"
         style="fill:#bedd15;fill-opacity:1;fill-rule:nonzero;stroke:none"
         d="m 3886.82,1235.48 c 0,5.91 4.83,10.74 10.74,10.74 h 123.36 c 5.91,0 10.74,-4.83 10.74,-10.74 v -19.21 c 0,-5.9 -4.83,-10.73 -10.74,-10.73 h -123.36 c -5.91,0 -10.74,4.83 -10.74,10.73 v 19.21" /><path
         id="path300"
         style="fill:#dddecc;fill-opacity:1;fill-rule:nonzero;stroke:none"
         d="m 4049.44,1181.54 h -73.18 v 23.7 h 73.19 l -0.01,-23.7 m -173.07,0 h -117.43 v 23.7 h 22.3 v 0 h 22.65 v 0 h 72.48 v -23.7" /><path
         id="path302"
         style="fill:#b8a794;fill-opacity:1;fill-rule:nonzero;stroke:none"
         d="m 3758.94,1181.54 h -173.47 v 23.7 c 0.01,0 0.02,0 0.03,0 h 173.44 v -23.7" /><path
         id="path304"
         style="fill:#e5dccc;fill-opacity:1;fill-rule:nonzero;stroke:none"
         d="m 3876.37,1181.54 h 99.8906 v 23.6992 H 3876.37 Z" /><path
         id="path306"
         style="fill:#727b7a;fill-opacity:1;fill-rule:nonzero;stroke:none"
         d="m 4049.45,1205.24 v 0 h -245.56 c 1.26,0 2.48,0.1 3.68,0.3 h 241.87 v -0.3 m -268.2,0 h -22.3 -173.44 c -0.01,0 -0.02,0 -0.03,0 v 0.3 h 192.1 c 1.19,-0.2 2.42,-0.3 3.67,-0.3" /><path
         id="path308"
         style="fill:#babf19;fill-opacity:1;fill-rule:nonzero;stroke:none"
         d="m 3803.89,1205.24 h -22.65 v 0 c -1.25,0 -2.48,0.1 -3.67,0.3 h 30 c -1.2,-0.2 -2.42,-0.3 -3.68,-0.3 v 0" /><path
         id="path310"
         style="fill:#e7f7fb;fill-opacity:1;fill-rule:nonzero;stroke:none"
         d="m 4167.12,632.813 h 470.961 v 603.688 H 4167.12 Z" /><path
         id="path312"
         style="fill:#f9e21d;fill-opacity:1;fill-rule:nonzero;stroke:none"
         d="m 4167.12,745.27 h 470.961 v 378.762 H 4167.12 Z" /><path
         id="path314"
         style="fill:#bec4bb;fill-opacity:1;fill-rule:nonzero;stroke:none"
         d="M 4343.2,632.813 H 4167.12 V 745.27 H 4343.2 V 632.813 m 0,491.217 h -176.08 v 89.83 0 -24.04 h 176.08 v -65.79" /><path
         id="path316"
         style="fill:#d2ad15;fill-opacity:1;fill-rule:nonzero;stroke:none"
         d="m 4167.12,745.27 h 176.078 v 378.762 H 4167.12 Z" /><path
         id="path318"
         style="fill:#e9f8fc;fill-opacity:1;fill-rule:nonzero;stroke:none"
         d="M 4563.8,632.813 H 4462.4 V 745.27 h 101.4 V 632.813 m -27.6,491.217 h -73.8 v 65.79 h 73.8 v -65.79" /><path
         id="path320"
         style="fill:#f9e620;fill-opacity:1;fill-rule:nonzero;stroke:none"
         d="m 4563.8,745.27 h -101.4 v 378.76 h 73.8 v -13.63 c 0,-11.81 6.78,-21.47 15.08,-21.47 5.2,0 9.8,3.8 12.52,9.54 v -353.2" /><path
         id="path322"
         style="fill:none;stroke:#778f9a;stroke-width:53.68579865;stroke-linecap:round;stroke-linejoin:miter;stroke-miterlimit:10;stroke-dasharray:none;stroke-opacity:1"
         d="M 4638.08,632.813 H 4167.12" /><path
         id="path324"
         style="fill:#778f9a;fill-opacity:1;fill-rule:nonzero;stroke:none"
         d="m 4146.35,1234.66 c 0,-11.48 9.32,-20.8 20.8,-20.8 h 470.94 c 11.48,0 20.8,9.32 20.8,20.8 0,11.49 -9.32,20.8 -20.8,20.8 h -470.94 c -11.48,0 -20.8,-9.31 -20.8,-20.8" /><path
         id="path326"
         style="fill:#f9e81e;fill-opacity:1;fill-rule:nonzero;stroke:none"
         d="m 4365.52,1255.46 c -11.81,0 -21.47,-9.36 -21.47,-20.8 0,-11.44 9.66,-20.8 21.47,-20.8 h 23.64 c 11.81,0 21.47,9.36 21.47,20.8 0,11.44 -9.66,20.8 -21.47,20.8 h -23.64" /><path
         id="path328"
         style="fill:#f9e81e;fill-opacity:1;fill-rule:nonzero;stroke:none"
         d="m 4473.01,1244.73 c 0,5.9 4.83,10.73 10.74,10.73 h 125.55 c 5.9,0 10.73,-4.83 10.73,-10.73 v -1.88 c 0,-5.91 -4.83,-10.74 -10.73,-10.74 h -32.47 c -5.9,0 -10.73,-4.83 -10.73,-10.74 v -5.09 c 0,-5.91 -4.83,-10.74 -10.74,-10.74 h -41.97 c -5.91,0 -10.74,4.83 -10.74,10.74 v 5.09 c 0,5.91 -4.83,10.74 -10.73,10.74 h -8.17 c -5.91,0 -10.74,4.83 -10.74,10.74 v 1.88" /><path
         id="path330"
         style="fill:#f9e81e;fill-opacity:1;fill-rule:nonzero;stroke:none"
         d="M 4536.2,1214.51 V 1110.4 c 0,-11.81 6.78,-21.47 15.08,-21.47 8.29,0 15.08,9.66 15.08,21.47 v 104.11 h -30.16" /><path
         id="path332"
         style="fill:#dddecc;fill-opacity:1;fill-rule:nonzero;stroke:none"
         d="m 4638.08,1189.82 h -71.72 v 24.04 h 71.73 l -0.01,-24.04" /><path
         id="path334"
         style="fill:#727b7a;fill-opacity:1;fill-rule:nonzero;stroke:none"
         d="m 4638.09,1213.86 v 0 h -71.73 v 0.31 h 71.72 v -0.31" /><path
         id="path336"
         style="fill:#dddecc;fill-opacity:1;fill-rule:nonzero;stroke:none"
         d="m 4462.4,1189.82 h -119.2 v 24.04 h 22.32 v 0 h 23.64 v 0 h 73.24 v -24.04" /><path
         id="path338"
         style="fill:#b8a794;fill-opacity:1;fill-rule:nonzero;stroke:none"
         d="m 4343.2,1189.82 h -176.08 v 24.04 c 0.01,0 0.02,0 0.03,0 h 176.05 v -24.04" /><path
         id="path340"
         style="fill:#e0ddcd;fill-opacity:1;fill-rule:nonzero;stroke:none"
         d="m 4536.2,1189.82 h -73.8 v 24.04 h 40.53 c 1.1,-4.75 5.38,-8.32 10.46,-8.32 h 22.81 v -15.72" /><path
         id="path342"
         style="fill:#727b7a;fill-opacity:1;fill-rule:nonzero;stroke:none"
         d="m 4502.93,1213.86 h -113.77 c 1.25,0 2.48,0.11 3.67,0.31 h 110.03 c 0.02,-0.1 0.05,-0.2 0.07,-0.31 m -137.41,0 h -22.32 -176.05 c -0.01,0 -0.02,0 -0.03,0 v 0.31 h 194.73 c 1.19,-0.2 2.42,-0.31 3.67,-0.31" /><path
         id="path344"
         style="fill:#f6c619;fill-opacity:1;fill-rule:nonzero;stroke:none"
         d="m 4389.16,1213.86 h -23.64 v 0 c -1.25,0 -2.48,0.11 -3.67,0.31 h 30.98 c -1.19,-0.2 -2.42,-0.31 -3.67,-0.31 v 0" /><path
         id="path346"
         style="fill:#f6c619;fill-opacity:1;fill-rule:nonzero;stroke:none"
         d="m 4536.2,1205.54 h -22.81 c -5.08,0 -9.36,3.57 -10.46,8.32 -0.02,0.11 -0.05,0.21 -0.07,0.31 h 33.34 v -8.63" /><path
         id="path348"
         style="fill:#f6c619;fill-opacity:1;fill-rule:nonzero;stroke:none"
         d="m 4566.36,1189.82 h -30.16 v 24.35 h 30.16 v -0.31 -24.04" /><path
         id="path350"
         style="fill:#a794c7;fill-opacity:1;fill-rule:nonzero;stroke:none"
         d="m 3085,595.949 h -499.97 c 24.53,0 45.99,11.692 56.86,28.77 5.05,3.312 10.23,7.332 15.44,12.203 h 352.93 l 0.43,-0.32 c 16,-12.243 31.68,-18.039 49.6,-18.262 v 0 c 0.12,0 0.23,0 0.34,0 0.01,0 0.01,0 0.02,0 0.11,0 0.22,0 0.33,0 v 0 0 c 0.04,0 0.08,0 0.12,0 18.3,0.031 32.57,7.73 38.35,11.031 0.26,0.149 0.51,0.289 0.74,0.418 0.01,0.012 0.03,0.024 0.05,0.031 0.07,0.039 0.14,0.082 0.21,0.121 11.28,6.551 23.95,18.579 33.18,31.141 3.75,5.168 6.44,9.16 8.94,13.27 4.38,-7.301 6.85,-15.543 6.85,-24.243 0,-29.789 -28.99,-54.16 -64.42,-54.16 m -448.34,86.461 c -11.78,13.25 -30.57,21.871 -51.63,21.871 h -56.34 v 0 h 119.75 c -3.64,-7.871 -7.58,-15.179 -11.78,-21.871" /><path
         id="path352"
         style="fill:#ee2b3a;fill-opacity:1;fill-rule:nonzero;stroke:none"
         d="m 2649.45,650.109 c 0,29.793 -28.99,54.172 -64.42,54.172 h -124.88 c -35.43,0 -64.42,-24.379 -64.42,-54.172 0,-29.789 28.99,-54.16 64.42,-54.16 h 124.88 c 35.43,0 64.42,24.371 64.42,54.16" /><path
         id="path354"
         style="fill:#9dbbc3;fill-opacity:1;fill-rule:nonzero;stroke:none"
         d="m 3046.34,636.379 c -4.3,-0.098 -8.59,0.223 -12.78,1.082 -8.48,1.719 -16.64,5.469 -24.37,11.059 -32.32,22.871 -57.44,76.441 -66.47,143.339 -2.25,16.532 -3.54,33.821 -3.65,51.75 -0.86,92.981 28.56,172.981 70.12,202.291 7.73,5.58 15.78,9.34 24.26,11.06 3.01,0.64 6.12,1.07 9.24,1.18 58.19,2.04 106.18,-90.73 107.26,-207.23 0.21,-20.512 -1.08,-40.262 -3.76,-59.051 -12.03,-88.148 -51.97,-153.757 -99.85,-155.48 m 137.43,228.922 c -0.32,12.238 -2.36,40.371 -8.37,68.179 -13.32,61.95 -36.4,95.99 -53.37,113.6 -24.8,25.77 -49.28,29.31 -61.74,29.1 -9.13,-0.11 -19.64,-1.29 -34.25,-8.38 -5.05,-2.47 -10.52,-6.01 -15.78,-10.2 -2.89,-2.14 -5.69,-4.61 -8.37,-7.19 -1.83,-1.72 -3.55,-3.44 -5.16,-5.26 -7.09,-7.84 -28.67,-31.57 -44.67,-85.361 -2.9,-9.66 -5.47,-19.969 -7.51,-30.609 -2.36,-11.481 -2.36,-11.481 -5.15,-32.848 -1.19,-8.91 -1.29,-9.883 -2.58,-34.902 -0.22,-5.36 -0.11,-12.559 -0.22,-18.028 0.65,-24.703 1.08,-28.882 3.23,-49.183 0,-0.43 0.1,-1.289 0.21,-2.36 0.86,-5.91 2.9,-19.757 5.36,-30.82 9.13,-41.328 21.05,-65.707 25.78,-74.41 5.26,-9.438 15.14,-27.481 30.81,-42.508 2.58,-2.48 5.26,-4.941 8.27,-7.199 l 0.43,-0.32 c 16,-12.243 31.68,-18.039 49.6,-18.262 19.87,-0.211 35.11,8.711 40.16,11.601 11.28,6.551 23.95,18.579 33.18,31.141 8.48,11.699 11.6,17.387 19.12,32 3.64,7.078 6.76,15.348 11.16,26.731 4.94,13.316 12.03,39.406 15.25,61.738 5.69,39.73 5.26,60.019 4.61,83.75" /><path
         id="path356"
         style="fill:#e7f7fb;fill-opacity:1;fill-rule:nonzero;stroke:none"
         d="m 3067.18,641.949 -1.18,-0.508 -1.22,-0.5 -1.26,-0.48 -1.3,-0.469 -1.33,-0.441 -1.36,-0.422 -1.37,-0.379 -1.38,-0.348 -1.39,-0.312 -1.39,-0.277 -1.38,-0.231 -1.37,-0.203 -1.35,-0.16 -1.32,-0.129 -1.29,-0.09 -1.24,-0.059 1.24,0.059 1.29,0.09 1.32,0.129 1.35,0.16 1.37,0.203 1.38,0.231 1.39,0.277 1.39,0.312 1.38,0.348 1.37,0.379 1.36,0.422 1.33,0.441 1.3,0.469 1.26,0.48 1.22,0.5 1.18,0.508 m -21.11,-5.008 -1.87,-0.031 h -18.58 l 1.87,0.031 c 58.08,2.028 104.35,97.848 103.33,214.008 -1,114.922 -47.89,206.711 -105.13,206.701 h 18.58 c 6.32,0 12.51,-1.11 18.53,-3.26 l 0.83,-0.3 c 6.67,-2.49 13.12,-6.23 19.28,-11.11 6.55,-5.18 12.77,-11.64 18.61,-19.23 5.51,-7.18 10.68,-15.36 15.41,-24.43 9.85,-18.84 17.88,-41.48 23.5,-66.781 2.94,-13.5 4.82,-24.879 6.47,-39.258 1.52,-13.652 2.38,-27.801 2.5,-42.332 0.64,-72.597 -17.2,-137.258 -44.85,-176.039 -5.96,-8.262 -11.09,-14.058 -17.69,-20.008 -12.49,-11.082 -26.27,-17.453 -40.79,-17.961" /><path
         id="path358"
         style="fill:#e7f7fb;fill-opacity:1;fill-rule:nonzero;stroke:none"
         d="m 3130.84,850.91 c 0.21,-20.512 -1.07,-40.262 -3.76,-59.051 -11.49,-84.179 -48.43,-147.64 -93.52,-154.398 -2.04,-0.332 -4.08,-0.43 -6.12,-0.539 h -50.89 c 8.8,0.32 17.28,2.789 25.44,7.199 2.47,1.168 4.83,2.68 7.2,4.399 32.64,22.652 57.87,76.441 66.99,143.339 2.58,18.789 3.87,38.653 3.66,59.051 -0.76,90.731 -30.17,166.97 -70.65,194.99 -2.37,1.72 -4.84,3.22 -7.3,4.51 -8.7,4.72 -17.83,7.19 -27.17,7.19 h 51 c 2.58,0 5.16,-0.21 7.73,-0.64 53.69,-7.73 96.42,-96.21 97.39,-206.05" /><path
         id="path360"
         style="fill:#ee2b3a;fill-opacity:1;fill-rule:nonzero;stroke:none"
         d="m 3079.84,850.91 c 0.21,-20.398 -1.08,-40.262 -3.66,-59.051 -9.12,-66.898 -34.35,-120.687 -66.99,-143.339 -2.37,-1.719 -4.73,-3.231 -7.2,-4.399 -8.16,-4.41 -16.64,-6.879 -25.44,-7.199 h -293.13 c 47.78,1.719 87.73,67 99.64,154.937 2.69,18.789 3.97,38.539 3.76,59.051 -1.07,115 -47.89,206.69 -105.11,206.69 h 293.01 c 9.34,0 18.47,-2.47 27.17,-7.19 2.46,-1.29 4.93,-2.79 7.3,-4.51 40.48,-28.02 69.89,-104.259 70.65,-194.99" /><path
         id="path362"
         style="fill:#e7f7fb;fill-opacity:1;fill-rule:nonzero;stroke:none"
         d="m 2786.82,850.91 c 0.21,-20.512 -1.07,-40.262 -3.76,-59.051 -11.91,-87.937 -51.86,-153.218 -99.64,-154.937 h -63.78 c 47.78,1.719 87.62,66.898 99.64,154.719 2.58,18.789 3.98,38.757 3.76,59.269 -1.07,115 -47.89,206.69 -105.12,206.69 h 63.79 c 57.22,0 104.04,-91.69 105.11,-206.69" /><path
         id="path364"
         style="fill:#9dbbc3;fill-opacity:1;fill-rule:nonzero;stroke:none"
         d="m 2573.15,636.922 c -44.13,-1.5 -82.36,51.43 -98.67,127.879 -2.36,11.168 -4.3,22.758 -5.59,34.89 -1.72,14.071 -2.68,28.778 -2.79,43.918 -0.96,116.18 45.31,211.951 103.4,213.991 58.09,2.04 105.98,-90.51 106.94,-206.69 0.11,-11.488 -0.21,-22.762 -1.07,-33.82 -0.22,-3.442 -0.54,-6.871 -0.86,-10.309 -9.34,-95.34 -50.79,-168.14 -101.36,-169.859 m 144.52,298.277 c -8.26,38.121 -17.39,57.442 -24.8,73.021 -7.19,15.24 -20.19,34.14 -30.82,44.77 -1.39,1.39 -3.11,3 -4.83,4.61 -2.57,2.47 -5.37,4.94 -7.94,6.88 -8.16,6.22 -13.32,9.12 -16.22,10.52 -7.19,3.33 -11.16,5.15 -18.89,7.09 -9.56,2.35 -17.4,2.46 -19.55,2.46 -10.19,-0.21 -21.79,-1.4 -37.9,-9.23 -15.67,-7.63 -27.81,-20.4 -31.78,-24.59 -10.95,-11.49 -31.46,-38.22 -46.6,-88.691 -2.03,-6.547 -5.05,-17.387 -7.73,-31.25 -2.36,-11.699 -2.36,-11.699 -5.26,-33.598 -1.18,-9.019 -1.4,-12.031 -2.58,-35.429 -0.32,-5.481 -0.21,-12.891 -0.21,-18.36 0.32,-13.531 0.64,-27.492 2.58,-44.781 0.21,-1.719 0.43,-3.539 0.64,-5.371 1.72,-13.199 3.44,-23.191 5.8,-33.918 1.07,-4.941 2.25,-9.992 3.54,-15.582 3.22,-12.988 9.77,-31.129 10.2,-32.309 8.49,-21.05 10.52,-24.812 18.68,-39.3 2.69,-4.621 6.66,-10.629 9.88,-14.93 3.76,-4.832 9.02,-11.059 13.1,-15.57 1.72,-1.93 8.16,-8.59 19.54,-16.422 9.88,-6.77 26.2,-14.93 48,-15.137 9.88,-0.113 25.12,1.707 42.19,11.488 l 0.54,0.43 c 3.22,1.82 6.55,3.969 9.88,6.441 l 0.75,0.641 c 3.11,2.258 6.23,4.938 9.45,7.84 5.69,5.258 11.38,11.699 17.07,19.219 17.83,23.839 29.31,52.07 36.62,77.089 5.47,18.36 8.69,35.11 10.52,47.141 0.65,3.859 1.18,7.731 1.61,11.488 8.16,64.961 0.21,117.141 -5.48,143.34" /><path
         id="path366"
         style="fill:#b12226;fill-opacity:1;fill-rule:nonzero;stroke:none"
         d="m 2595.61,610.07 c -0.37,0 -0.73,0.012 -1.09,0.012 -21.8,0.207 -38.12,8.367 -48,15.137 -11.38,7.832 -17.82,14.492 -19.54,16.422 -4.08,4.511 -9.34,10.738 -13.1,15.57 -3.22,4.301 -7.19,10.309 -9.88,14.93 -7.13,12.679 -9.59,17.14 -15.77,32.14 v 0 c 6.18,-15 8.64,-19.461 15.77,-32.14 2.69,-4.621 6.66,-10.629 9.88,-14.93 3.76,-4.832 9.02,-11.059 13.1,-15.57 1.72,-1.93 8.16,-8.59 19.54,-16.422 9.88,-6.77 26.2,-14.93 48,-15.137 0.27,0 0.54,0 0.82,0 7.17,0 16.97,1.039 28.14,5.238 -11.03,-4.148 -20.73,-5.25 -27.87,-5.25 m 27.94,5.282 c 0.03,0.007 0.06,0.019 0.1,0.027 -0.04,-0.008 -0.07,-0.02 -0.1,-0.027 m 0.27,0.097 c 0.01,0 0.02,0 0.03,0.012 -0.01,-0.012 -0.02,-0.012 -0.03,-0.012 m 3.06,1.231 c 0.02,0.011 0.04,0.011 0.06,0.019 -0.02,-0.008 -0.04,-0.008 -0.06,-0.019 m 0.21,0.09 c 0.03,0.011 0.07,0.031 0.1,0.043 -0.03,-0.012 -0.07,-0.032 -0.1,-0.043" /><path
         id="path368"
         style="fill:#b8a39c;fill-opacity:1;fill-rule:nonzero;stroke:none"
         d="m 3118.12,696.52 c -0.14,0.07 -0.28,0.14 -0.42,0.21 13.22,25.809 23.04,58.512 28.03,95.129 0.31,0 0.46,0 0.46,0 -5,-36.679 -14.84,-69.449 -28.07,-95.339" /><path
         id="path370"
         style="fill:#735c7b;fill-opacity:1;fill-rule:nonzero;stroke:none"
         d="m 3060.98,618.34 v 0 c 0.04,0 0.08,0 0.12,0 -0.04,0 -0.08,0 -0.12,0 m -0.33,0 c -0.01,0 -0.01,0 -0.02,0 0.01,0 0.01,0 0.02,0 m -0.36,0 v 0 c -17.92,0.223 -33.6,6.019 -49.6,18.262 l -0.43,0.32 h -352.93 c -5.21,-4.871 -10.39,-8.891 -15.44,-12.203 0.02,0.051 0.05,0.101 0.08,0.14 1.71,1.11 3.44,2.301 5.16,3.582 l 0.75,0.641 c 3.11,2.258 6.23,4.938 9.45,7.84 v 0 h 26.09 v 0 h 293.13 v 0 h 33.71 l 0.43,-0.32 c 16,-12.243 31.68,-18.039 49.6,-18.262 v 0 m 39.16,11.031 c 0.26,0.149 0.51,0.289 0.74,0.418 -0.23,-0.129 -0.48,-0.269 -0.74,-0.418 m 0.79,0.449 c 0.07,0.039 0.14,0.082 0.21,0.121 11.28,6.551 23.95,18.579 33.18,31.141 3.75,5.168 6.44,9.16 8.94,13.27 v 0 c -2.5,-4.11 -5.19,-8.102 -8.94,-13.27 -9.23,-12.562 -21.9,-24.59 -33.18,-31.141 -0.07,-0.039 -0.14,-0.082 -0.21,-0.121 m -55.48,6.539 c -2.7,0 -5.38,0.18 -8.04,0.551 h 7.48 l 1.87,0.031 c 14.52,0.508 28.3,6.879 40.79,17.961 6.6,5.95 11.73,11.746 17.69,20.008 4.68,6.57 9.08,13.871 13.15,21.82 0.14,-0.07 0.28,-0.14 0.42,-0.21 -18.56,-36.348 -43.82,-59.129 -71.78,-60.141 -0.53,-0.008 -1.05,-0.02 -1.58,-0.02" /><path
         id="path372"
         style="fill:#b12226;fill-opacity:1;fill-rule:nonzero;stroke:none"
         d="m 2627.26,616.84 c 3.07,1.32 6.23,2.879 9.45,4.73 l 0.54,0.43 c 1.55,0.879 3.13,1.832 4.72,2.859 -0.03,-0.039 -0.06,-0.089 -0.08,-0.14 -5.03,-3.278 -9.93,-5.86 -14.63,-7.879" /><path
         id="path374"
         style="fill:#6c767a;fill-opacity:1;fill-rule:nonzero;stroke:none"
         d="m 3060.98,618.34 c -0.11,0 -0.22,0 -0.33,0 -0.01,0 -0.01,0 -0.02,0 -0.11,0 -0.22,0 -0.34,0 v 0 c -17.92,0.223 -33.6,6.019 -49.6,18.262 l -0.43,0.32 h 16.11 l -0.75,-0.012 h 11.1 c 2.66,-0.371 5.34,-0.551 8.04,-0.551 0.53,0 1.05,0.012 1.58,0.02 27.96,1.012 53.22,23.793 71.78,60.141 13.23,25.89 23.07,58.66 28.07,95.339 v 0 c 0,0 18.75,-10.558 30.18,-10.558 0.99,0 1.92,0.078 2.79,0.25 -3.22,-22.332 -10.31,-48.422 -15.25,-61.738 -4.4,-11.383 -7.52,-19.653 -11.16,-26.731 -4.2,-8.16 -7.03,-13.531 -10.18,-18.73 -2.5,-4.11 -5.19,-8.102 -8.94,-13.27 -9.23,-12.562 -21.9,-24.59 -33.18,-31.141 -0.07,-0.039 -0.14,-0.082 -0.21,-0.121 -0.02,-0.007 -0.04,-0.019 -0.05,-0.031 -0.23,-0.129 -0.48,-0.269 -0.74,-0.418 -5.78,-3.301 -20.05,-11 -38.35,-11.031 -0.04,0 -0.08,0 -0.12,0" /><path
         id="path376"
         style="fill:#b8a39c;fill-opacity:1;fill-rule:nonzero;stroke:none"
         d="m 2494.13,704.281 v 0 c -8.09,17.438 -14.72,37.641 -19.51,59.84 4.79,-22.199 11.42,-42.402 19.51,-59.84" /><path
         id="path378"
         style="fill:#b12226;fill-opacity:1;fill-rule:nonzero;stroke:none"
         d="m 2571.18,636.891 c -30.38,0.07 -57.82,25.941 -77.05,67.39 v 0 c 19.23,-41.441 46.68,-67.308 77.05,-67.39 m 1.97,0.031 c 14.43,0.508 28.11,6.777 40.53,17.707 -12.42,-10.938 -26.1,-17.219 -40.53,-17.707" /><path
         id="path380"
         style="fill:#b8a39c;fill-opacity:1;fill-rule:nonzero;stroke:none"
         d="m 3101.91,702.379 c -0.02,0 -0.04,0 -0.06,0.012 11.8,24.859 20.59,55.468 25.23,89.468 v 0 c 0.03,0 0.05,0 0.07,0 -4.63,-34.007 -13.43,-64.617 -25.24,-89.48" /><path
         id="path382"
         style="fill:#735c7b;fill-opacity:1;fill-rule:nonzero;stroke:none"
         d="m 3064.2,651.48 c 14.39,11.36 27.2,28.879 37.65,50.911 0.02,-0.012 0.04,-0.012 0.06,-0.012 -10.47,-22.027 -23.31,-39.547 -37.71,-50.899" /><path
         id="path384"
         style="fill:#b8a39c;fill-opacity:1;fill-rule:nonzero;stroke:none"
         d="m 2671.47,783.152 c 1.75,10.95 3.06,22.297 3.9,33.938 -0.22,-3.442 -0.54,-6.871 -0.86,-10.309 -0.79,-8.051 -1.8,-15.929 -3.04,-23.629" /><path
         id="path386"
         style="fill:#a0a19d;fill-opacity:1;fill-rule:nonzero;stroke:none"
         d="m 3044.2,636.91 h -18.58 l 0.75,0.012 h 1.07 c 2.04,0.109 4.08,0.207 6.12,0.539 10.73,1.609 20.99,6.418 30.56,13.961 0.01,0.008 0.03,0.019 0.04,0.027 0.01,0.012 0.03,0.02 0.04,0.031 14.4,11.352 27.24,28.872 37.71,50.899 11.81,24.863 20.61,55.473 25.24,89.48 10.27,0 16.84,0 18.58,0 -4.99,-36.617 -14.81,-69.32 -28.03,-95.129 -4.07,-7.949 -8.47,-15.25 -13.15,-21.82 -5.96,-8.262 -11.09,-14.058 -17.69,-20.008 -12.49,-11.082 -26.27,-17.453 -40.79,-17.961 l -1.87,-0.031" /><path
         id="path388"
         style="fill:#a0a19d;fill-opacity:1;fill-rule:nonzero;stroke:none"
         d="m 3027.44,636.922 h -50.89 c 8.8,0.32 17.28,2.789 25.44,7.199 2.47,1.168 4.83,2.68 7.2,4.399 32.64,22.652 57.87,76.441 66.99,143.339 h 50.9 c -4.64,-34 -13.43,-64.609 -25.23,-89.468 -10.45,-22.032 -23.26,-39.551 -37.65,-50.911 -0.01,-0.011 -0.03,-0.019 -0.04,-0.031 -0.01,-0.008 -0.03,-0.019 -0.04,-0.027 -9.57,-7.543 -19.83,-12.352 -30.56,-13.961 -2.04,-0.332 -4.08,-0.43 -6.12,-0.539" /><path
         id="path390"
         style="fill:#b12226;fill-opacity:1;fill-rule:nonzero;stroke:none"
         d="m 2976.55,636.922 h -293.13 c 47.78,1.719 87.73,67 99.64,154.937 h 293.12 c -9.12,-66.898 -34.35,-120.687 -66.99,-143.339 -2.37,-1.719 -4.73,-3.231 -7.2,-4.399 -8.16,-4.41 -16.64,-6.879 -25.44,-7.199 v 0" /><path
         id="path392"
         style="fill:#a0a19d;fill-opacity:1;fill-rule:nonzero;stroke:none"
         d="m 2683.42,636.922 h -26.09 c 5.69,5.258 11.38,11.699 17.07,19.219 17.83,23.839 29.31,52.07 36.62,77.089 5.47,18.36 8.69,35.11 10.52,47.141 0.65,3.859 1.18,7.731 1.61,11.488 h 59.91 c -11.91,-87.937 -51.86,-153.218 -99.64,-154.937 v 0" /><path
         id="path394"
         style="fill:#6c767a;fill-opacity:1;fill-rule:nonzero;stroke:none"
         d="m 2595.34,610.082 c -0.28,0 -0.55,0 -0.82,0 -21.8,0.207 -38.12,8.367 -48,15.137 -11.38,7.832 -17.82,14.492 -19.54,16.422 -4.08,4.511 -9.34,10.738 -13.1,15.57 -3.22,4.301 -7.19,10.309 -9.88,14.93 -7.13,12.679 -9.59,17.14 -15.77,32.14 -0.88,2.149 -1.85,4.52 -2.91,7.16 -0.43,1.18 -6.98,19.321 -10.2,32.309 -1.29,5.59 -2.47,10.641 -3.54,15.582 l 2.9,5.469 c 0.04,-0.231 0.09,-0.449 0.14,-0.68 4.79,-22.199 11.42,-42.402 19.51,-59.84 19.23,-41.449 46.67,-67.32 77.05,-67.39 0.05,0 0.09,0 0.13,0 v 0 0 0 c 0.61,0 1.22,0.011 1.84,0.031 v 0 c 14.43,0.488 28.11,6.769 40.53,17.707 27.43,24.152 48.62,71.023 57.79,128.523 1.24,7.7 2.25,15.578 3.04,23.629 0.32,3.438 0.64,6.867 0.86,10.309 v 0 c 0.75,-3.328 1.18,-6.871 1.18,-10.52 0,-13.8 12.84,-16.961 24.61,-16.961 8.01,0 15.51,1.473 18.12,2.032 l 0.97,0.218 h 2.9 c -0.43,-3.757 -0.96,-7.629 -1.61,-11.488 -1.83,-12.031 -5.05,-28.781 -10.52,-47.141 -7.31,-25.019 -18.79,-53.25 -36.62,-77.089 -5.69,-7.52 -11.38,-13.961 -17.07,-19.219 v 0 c -3.22,-2.902 -6.34,-5.582 -9.45,-7.84 l -0.75,-0.641 c -1.72,-1.281 -3.45,-2.472 -5.16,-3.582 -1.59,-1.027 -3.17,-1.98 -4.72,-2.859 l -0.54,-0.43 c -3.22,-1.851 -6.38,-3.41 -9.45,-4.73 -0.02,-0.008 -0.05,-0.02 -0.07,-0.027 -0.03,-0.012 -0.07,-0.032 -0.1,-0.043 -0.05,-0.02 -0.1,-0.051 -0.15,-0.071 -0.02,-0.008 -0.04,-0.008 -0.06,-0.019 -1.02,-0.43 -2.03,-0.84 -3.03,-1.219 -0.01,-0.012 -0.02,-0.012 -0.03,-0.012 -0.06,-0.027 -0.12,-0.051 -0.17,-0.07 -0.04,-0.008 -0.07,-0.02 -0.1,-0.027 -0.02,-0.012 -0.04,-0.02 -0.07,-0.032 -11.17,-4.199 -20.97,-5.238 -28.14,-5.238" /><path
         id="path396"
         style="fill:#ee2b3a;fill-opacity:1;fill-rule:nonzero;stroke:none"
         d="m 2711.02,733.23 c -7.31,-25.019 -18.79,-53.25 -36.62,-77.089 -5.69,-7.512 -11.38,-13.961 -17.07,-19.219 -3.22,-2.902 -6.34,-5.582 -9.45,-7.84 l -0.75,-0.641 c -3.33,-2.152 -6.66,-4.3 -9.88,-6.441 l -0.54,-0.43 c -17.07,-9.781 -32.31,-11.601 -42.19,-11.488 -21.8,0.207 -38.12,8.367 -48,15.129 -11.38,7.84 -17.82,14.5 -19.54,16.437 -4.08,4.504 -9.34,10.731 -13.1,15.563 -3.22,4.301 -7.19,10.309 -9.88,14.93 -8.16,14.488 -10.19,18.25 -18.68,39.3 -0.43,1.18 -6.98,19.321 -10.2,32.309 -1.29,5.59 -2.47,10.641 -3.55,15.582 -2.35,10.727 -4.07,20.719 -5.79,33.918 -0.21,1.832 -0.43,3.652 -0.64,5.371 1.18,0.43 2.46,0.75 3.75,1.07 78.92,20.829 189.19,9.028 205.62,7.09 1.29,-0.109 2.04,-0.211 2.04,-0.211 22.01,-27.488 32.32,-51.75 34.47,-73.34" /><path
         id="path398"
         style="fill:#44435a;fill-opacity:1;fill-rule:nonzero;stroke:none"
         d="m 2672.23,850.762 c 0.11,-7.832 -0.1,-15.66 -0.51,-23.293 -4.85,-100.699 -46.8,-180.27 -98.65,-182.129 -52.97,-1.848 -97.19,78.34 -102.24,182.129 -0.31,5.363 -0.52,10.82 -0.52,16.293 -0.92,111.519 43.5,203.458 99.26,205.418 55.76,1.96 101.74,-86.891 102.66,-198.418" /><path
         id="path400"
         style="fill:none;stroke:#ee2b3a;stroke-width:32.21139908;stroke-linecap:butt;stroke-linejoin:miter;stroke-miterlimit:10;stroke-dasharray:none;stroke-opacity:1"
         d="m 2672.23,850.762 c 0.11,-7.832 -0.1,-15.66 -0.51,-23.293 -4.85,-100.699 -46.8,-180.27 -98.65,-182.129 -52.97,-1.848 -97.19,78.34 -102.24,182.129 -0.31,5.363 -0.52,10.82 -0.52,16.293 -0.92,111.519 43.5,203.458 99.26,205.418 55.76,1.96 101.74,-86.891 102.66,-198.418 z" /><path
         id="path402"
         style="fill:#e7f7fb;fill-opacity:1;fill-rule:nonzero;stroke:none"
         d="m 3823.65,343.879 -0.51,0.801 -0.5,0.832 -0.48,0.859 -0.47,0.879 -0.44,0.902 -0.41,0.918 -0.39,0.93 -0.35,0.941 -0.31,0.95 -0.27,0.941 -0.24,0.938 -0.2,0.929 -0.16,0.922 -0.12,0.891 -0.1,0.879 -0.05,0.851 0.05,-0.851 0.1,-0.879 0.12,-0.891 0.16,-0.922 0.2,-0.929 0.24,-0.938 0.27,-0.941 0.31,-0.95 0.35,-0.941 0.39,-0.93 0.41,-0.918 0.44,-0.902 0.47,-0.879 0.48,-0.859 0.5,-0.832 0.51,-0.801" /><path
         id="path404"
         style="fill:#ee2b3a;fill-opacity:1;fill-rule:nonzero;stroke:none"
         d="m 1645.35,585.672 c 0,66.707 -57.98,121.277 -128.85,121.277 H 770.27 c -70.868,0 -128.848,-54.57 -128.848,-121.277 0,-66.703 57.98,-121.27 128.848,-121.27 h 746.23 c 70.87,0 128.85,54.567 128.85,121.27" /></g></g></svg>