<svg xmlns="http://www.w3.org/2000/svg" xmlns:xlink="http://www.w3.org/1999/xlink" version="1.1" width="256" height="256" viewBox="0 0 256 256" xml:space="preserve">

<defs>
</defs>
<g style="stroke: none; stroke-width: 0; stroke-dasharray: none; stroke-linecap: butt; stroke-linejoin: miter; stroke-miterlimit: 10; fill: none; fill-rule: nonzero; opacity: 1;" transform="translate(1.4065934065934016 1.4065934065934016) scale(2.81 2.81)" >
	<path d="M 61.287 73.713 c -15.833 0 -28.714 -12.881 -28.714 -28.713 c 0 -15.833 12.881 -28.713 28.714 -28.713 C 77.119 16.287 90 29.167 90 45 C 90 60.832 77.119 73.713 61.287 73.713 z M 61.287 18.287 c -14.73 0 -26.714 11.983 -26.714 26.713 c 0 14.729 11.983 26.713 26.714 26.713 C 76.017 71.713 88 59.729 88 45 C 88 30.27 76.017 18.287 61.287 18.287 z" style="stroke: none; stroke-width: 1; stroke-dasharray: none; stroke-linecap: butt; stroke-linejoin: miter; stroke-miterlimit: 10; fill: rgb(0,0,0); fill-rule: nonzero; opacity: 1;" transform=" matrix(1 0 0 1 0 0) " stroke-linecap="round" />
	<path d="M 71.978 55.721 c -5.245 0 -9.513 -4.81 -9.513 -10.721 c 0 -5.912 4.268 -10.721 9.513 -10.721 S 81.49 39.088 81.49 45 C 81.49 50.911 77.223 55.721 71.978 55.721 z M 71.978 36.279 c -4.143 0 -7.513 3.912 -7.513 8.721 s 3.37 8.721 7.513 8.721 S 79.49 49.809 79.49 45 S 76.12 36.279 71.978 36.279 z" style="stroke: none; stroke-width: 1; stroke-dasharray: none; stroke-linecap: butt; stroke-linejoin: miter; stroke-miterlimit: 10; fill: rgb(0,0,0); fill-rule: nonzero; opacity: 1;" transform=" matrix(1 0 0 1 0 0) " stroke-linecap="round" />
	<path d="M 51.804 55.721 c -5.912 0 -10.721 -4.81 -10.721 -10.721 c 0 -5.912 4.809 -10.721 10.721 -10.721 c 2.043 0 4.033 0.58 5.754 1.677 c 0.466 0.297 0.603 0.915 0.307 1.381 c -0.298 0.466 -0.915 0.604 -1.381 0.306 c -1.399 -0.892 -3.018 -1.363 -4.68 -1.363 c -4.809 0 -8.721 3.912 -8.721 8.721 s 3.912 8.721 8.721 8.721 c 1.481 0 2.928 -0.375 4.217 -1.089 V 46 H 50.92 c -0.553 0 -1 -0.448 -1 -1 s 0.447 -1 1 -1 h 6.101 c 0.553 0 1 0.448 1 1 v 8.2 c 0 0.342 -0.175 0.66 -0.463 0.844 C 55.836 55.141 53.847 55.721 51.804 55.721 z" style="stroke: none; stroke-width: 1; stroke-dasharray: none; stroke-linecap: butt; stroke-linejoin: miter; stroke-miterlimit: 10; fill: rgb(0,0,0); fill-rule: nonzero; opacity: 1;" transform=" matrix(1 0 0 1 0 0) " stroke-linecap="round" />
	<path d="M 23.947 47.025 H 1 c -0.552 0 -1 -0.447 -1 -1 c 0 -0.552 0.448 -1 1 -1 h 22.947 c 0.552 0 1 0.448 1 1 C 24.947 46.578 24.499 47.025 23.947 47.025 z" style="stroke: none; stroke-width: 1; stroke-dasharray: none; stroke-linecap: butt; stroke-linejoin: miter; stroke-miterlimit: 10; fill: rgb(0,0,0); fill-rule: nonzero; opacity: 1;" transform=" matrix(1 0 0 1 0 0) " stroke-linecap="round" />
	<path d="M 28.614 31.467 H 5.667 c -0.552 0 -1 -0.448 -1 -1 s 0.448 -1 1 -1 h 22.947 c 0.552 0 1 0.448 1 1 S 29.167 31.467 28.614 31.467 z" style="stroke: none; stroke-width: 1; stroke-dasharray: none; stroke-linecap: butt; stroke-linejoin: miter; stroke-miterlimit: 10; fill: rgb(0,0,0); fill-rule: nonzero; opacity: 1;" transform=" matrix(1 0 0 1 0 0) " stroke-linecap="round" />
	<path d="M 28.614 62.583 H 5.667 c -0.552 0 -1 -0.447 -1 -1 s 0.448 -1 1 -1 h 22.947 c 0.552 0 1 0.447 1 1 S 29.167 62.583 28.614 62.583 z" style="stroke: none; stroke-width: 1; stroke-dasharray: none; stroke-linecap: butt; stroke-linejoin: miter; stroke-miterlimit: 10; fill: rgb(0,0,0); fill-rule: nonzero; opacity: 1;" transform=" matrix(1 0 0 1 0 0) " stroke-linecap="round" />
</g>
</svg>