<?xml version="1.0" encoding="UTF-8" standalone="no"?>
<!-- Created with Inkscape (http://www.inkscape.org/) -->

<svg
   version="1.1"
   id="svg2"
   xml:space="preserve"
   width="579.69336"
   height="552.8667"
   viewBox="0 0 579.69336 552.8667"
   sodipodi:docname="3659703.eps"
   xmlns:inkscape="http://www.inkscape.org/namespaces/inkscape"
   xmlns:sodipodi="http://sodipodi.sourceforge.net/DTD/sodipodi-0.dtd"
   xmlns="http://www.w3.org/2000/svg"
   xmlns:svg="http://www.w3.org/2000/svg"><defs
     id="defs6"><clipPath
       clipPathUnits="userSpaceOnUse"
       id="clipPath78"><path
         d="m 2407.33,2084.84 c -21.11,19.98 -39.71,42.65 -46.65,64.94 0.15,0.02 0.33,0.04 0.48,0.06 7.23,-21.32 23.37,-43.12 46.17,-65"
         id="path76" /></clipPath></defs><sodipodi:namedview
     id="namedview4"
     pagecolor="#ffffff"
     bordercolor="#666666"
     borderopacity="1.0"
     inkscape:pageshadow="2"
     inkscape:pageopacity="0.0"
     inkscape:pagecheckerboard="0" /><g
     id="g8"
     inkscape:groupmode="layer"
     inkscape:label="ink_ext_XXXXXX"
     transform="matrix(1.3333333,0,0,-1.3333333,0,552.86667)"><g
       id="g10"
       transform="scale(0.1)"><path
         d="M 3063.15,7.94922 C 2684.56,30.1797 2305.99,60.9883 1927.41,83.2305 c -56.09,3.3008 -113.45,6.8789 -165.26,28.6675 -48.54,20.43 -89.17,55.59 -133.93,83.332 -44.77,27.75 -98.43,48.598 -149.47,35.649 -51.04,-12.949 -91.82,-71.949 -69.48,-119.68 -26.52,85.11 -55.02,173.582 -117.12,237.469 -62.09,63.891 -168.63,94.004 -241.67,43 -81.406,-56.84 -81.554,-175.227 -73.207,-274.238 -25.796,74.218 -52.847,150.621 -105.5,208.898 -52.652,58.281 -138.058,94.313 -211.363,66.211 -53.457,-20.508 -90.926,-71.328 -108.426,-125.91 -17.496,-54.57 -17.668,-113.07 -15.57,-170.3399 L 534.656,5.01172 3063.15,7.94922"
         style="fill:#dadbd8;fill-opacity:1;fill-rule:nonzero;stroke:none"
         id="path12" /><path
         d="m 2170.01,3508.1 c 9.56,69.46 -88.46,126.6 -162.12,132.53 -35.12,2.83 -71.61,-2.54 -104.89,9.06 -72.1,25.13 -100.9,118.28 -171.26,147.95 -52.59,22.18 -113.14,2.44 -164.13,-23.23 -50.99,-25.66 -101.38,-57.96 -158.34,-61.6 -49.56,-3.17 -103.36,15.2 -146.71,-9 -32.31,-18.04 -49.23,-55.27 -79.01,-77.22 -29.13,-21.49 -67.13,-26.04 -103.27,-28.01 -36.14,-1.96 -73.56,-2.33 -106.475,-17.4 -32.91,-15.06 -60.137,-49.87 -53.305,-85.41 l 1249.51,12.33"
         style="fill:#e7e8e5;fill-opacity:1;fill-rule:nonzero;stroke:none"
         id="path14" /><path
         d="m 4000.19,3982.58 c 4.63,33.62 -42.82,61.29 -78.48,64.16 -17.01,1.37 -34.67,-1.23 -50.78,4.39 -34.9,12.16 -48.85,57.25 -82.9,71.62 -25.47,10.73 -54.78,1.18 -79.46,-11.25 -24.68,-12.42 -49.08,-28.05 -76.65,-29.82 -23.99,-1.54 -50.04,7.36 -71.03,-4.36 -15.63,-8.73 -23.83,-26.75 -38.24,-37.38 -14.1,-10.4 -32.5,-12.6 -49.99,-13.55 -17.5,-0.96 -35.62,-1.13 -51.55,-8.43 -15.93,-7.29 -29.12,-24.14 -25.81,-41.35 l 604.89,5.97"
         style="fill:#f3f2f1;fill-opacity:1;fill-rule:nonzero;stroke:none"
         id="path16" /><path
         d="m 1150.61,3867.78 c 5.89,42.77 -54.49,77.95 -99.85,81.61 -21.63,1.75 -44.1,-1.56 -64.592,5.58 -44.398,15.48 -62.137,72.84 -105.465,91.12 -32.387,13.66 -69.676,1.5 -101.078,-14.31 -31.402,-15.8 -62.43,-35.69 -97.516,-37.94 -30.511,-1.95 -63.648,9.37 -90.351,-5.54 -19.891,-11.11 -30.313,-34.03 -48.653,-47.56 -17.937,-13.22 -41.335,-16.03 -63.597,-17.24 -22.254,-1.21 -45.301,-1.44 -65.57,-10.72 -20.27,-9.28 -37.032,-30.71 -32.829,-52.6 l 769.501,7.6"
         style="fill:#e7e8e5;fill-opacity:1;fill-rule:nonzero;stroke:none"
         id="path18" /><path
         d="m 3999.77,3235.02 c -154.68,251.7 -412.52,425.3 -705.32,464.62 -113.77,15.28 -229.91,11.95 -342.36,-11.82 -335.47,-70.91 -627.36,-321.41 -748.36,-642.23 -71.15,-188.69 -91.03,-405.93 -226.06,-555.69 -175.74,-194.92 -474.1,-201.04 -736.41,-192.96 -262.322,8.07 -560.877,1.18 -735.76,-194.5 C 395.973,1979.89 361.164,1805.61 369.996,1641.49 393.383,1206.97 700,818.449 1089.95,625.328 1479.9,432.219 1939.02,414.918 2365.8,499.871 c 597.86,119.008 1166.42,445.82 1508.17,950.619 325.6,480.93 419.5,1127.93 191.16,1659.19 -18.63,43.35 -40.66,85.15 -65.36,125.34"
         style="fill:#e7e8e5;fill-opacity:1;fill-rule:nonzero;stroke:none"
         id="path20" /><path
         d="M 4347.69,5.01172 C 4347.69,3.57031 3374.35,2.39844 2173.95,2.39844 973.133,2.39844 0,3.57031 0,5.01172 c 0,1.42969 973.133,2.59766 2173.95,2.59766 1200.4,0 2173.74,-1.16797 2173.74,-2.59766"
         style="fill:#17282f;fill-opacity:1;fill-rule:nonzero;stroke:none"
         id="path22" /><path
         d="m 103.836,2781.21 c 0,0 788.715,-388.1 1007.804,-463.21 179.1,-61.41 466.97,-80.98 641.32,-62.14 38.92,4.2 72.19,10.33 97.32,18.32 137.71,43.82 832.53,187.79 832.53,187.79 l 831.21,45.38 -18.53,113.09 -953.32,-57.79 c 0,0 -551.02,-76.36 -628.09,-167.26 0,0 -65.5,-90.92 -181.11,-106.33 -115.59,-15.41 -628.08,107.89 -685.88,165.69 -57.797,57.8 -73.211,84.77 -238.899,123.31 -165.695,38.53 -539.461,300.55 -539.461,300.55 l -184.9605,-92.48 20.0665,-4.92"
         style="fill:#f03d5f;fill-opacity:1;fill-rule:nonzero;stroke:none"
         id="path24" /><path
         d="m 1609.19,2248.98 c -163.85,0 -361.91,22.51 -497.55,69.02 -219.089,75.11 -1007.804,463.21 -1007.804,463.21 l -20.0665,4.92 184.9605,92.48 c 0,0 373.766,-262.02 539.461,-300.55 165.688,-38.54 181.102,-65.51 238.899,-123.31 54.45,-54.45 512.36,-167.02 661.91,-167.01 9.21,0 17.27,0.43 23.97,1.32 115.61,15.41 181.11,106.33 181.11,106.33 77.07,90.9 628.09,167.26 628.09,167.26 l 226.73,13.74 c -24.15,-41.01 -47.99,-81.28 -67.29,-113.39 l -18.8,-1.03 c 0,0 -694.82,-143.97 -832.53,-187.79 -25.13,-7.99 -58.4,-14.12 -97.32,-18.32 -42.31,-4.57 -91.27,-6.88 -143.77,-6.88"
         style="fill:#7e1c2c;fill-opacity:1;fill-rule:nonzero;stroke:none"
         id="path26" /><path
         d="m 3507.91,2544.67 -3.12,19.05 v -0.01 l 2.14,-13.02 0.98,-6.01 v -0.01 m -4.96,30.22 -0.08,0.51 c 0,0.01 0,0.01 0,0.01 l 0.09,-0.51 -0.01,-0.01"
         style="fill:#65696b;fill-opacity:1;fill-rule:nonzero;stroke:none"
         id="path28" /><path
         d="m 3473.37,2505.72 c 2.87,6.5 5.65,12.93 8.34,19.28 5.02,11.31 9.9,22.62 14.58,33.83 2.42,5.78 4.6,11.26 6.58,16.57 l 0.08,-0.51 -1.87,-5.93 v 0 c 1.47,-1.68 2.7,-3.44 3.71,-5.24 l 3.12,-19.05 c -1.91,-11.97 -10.13,-23.54 -20.37,-30.36 -4.16,-2.77 -8.89,-5.63 -14.17,-8.59"
         style="fill:#7e1c2c;fill-opacity:1;fill-rule:nonzero;stroke:none"
         id="path30" /><path
         d="m 3328.31,3075.58 -1085.36,-4.68 c 0,0 -33.72,-0.19 -78.6,20.95 -37.74,17.79 -117.58,66.5 -142,81.53 -6.17,3.8 -13.52,5.5 -20.61,4.05 -4.52,-0.92 -8,-3.01 -6.08,-7.54 2.61,-6.16 70.28,-64.19 70.28,-64.19 l -120.01,37.81 c -6.73,2.12 -14.21,1.6 -20.15,-2.22 -2.74,-1.76 -4.72,-4.03 -4.26,-6.81 0.84,-5.16 72.61,-39.18 72.61,-39.18 l -91.09,15.55 c -8.61,1.47 -17.6,-3.89 -18.86,-12.54 l -0.11,-2.53 c 0.51,-8.49 130.45,-50.31 130.45,-50.31 l -119.68,0.02 c -13.34,0 -22.04,-14.01 -16.12,-25.96 6.82,-13.45 187.43,-18.13 189.23,-38.36 1.8,-20.22 -51.37,-24.42 -69.37,-51.77 -18.01,-27.34 11.25,-38.2 11.25,-38.2 18.42,22.03 89.02,39.94 89.02,39.94 l 109.69,-5.83 1027.67,-146.32 158.31,100.57 60.94,110.36 -127.15,85.66"
         style="fill:#f8a58d;fill-opacity:1;fill-rule:nonzero;stroke:none"
         id="path32" /><path
         d="m 3061.1,3079.15 -1108.24,-220 c 0,0 -34.43,-6.88 -84.48,5.83 -42.09,10.7 -133.34,44.64 -161.29,55.17 -7.04,2.65 -14.9,2.93 -21.85,0.04 -4.44,-1.84 -7.59,-4.66 -4.73,-8.9 3.9,-5.78 84.56,-51.67 84.56,-51.67 l -130.14,14.85 c -7.3,0.83 -14.85,-1.19 -20.15,-6.27 -2.45,-2.34 -4.03,-5.05 -3.01,-7.81 1.88,-5.11 81.98,-25.64 81.98,-25.64 l -96.18,-2.17 c -9.09,-0.2 -17.22,-7.46 -16.78,-16.55 l 0.38,-2.61 c 2.21,-8.57 143.29,-25.55 143.29,-25.55 l -122.31,-23.71 c -13.63,-2.64 -19.74,-18.68 -11.32,-29.72 9.64,-12.4 195.13,18.63 200.98,-1.68 5.85,-20.31 -47.65,-35.14 -60.63,-66.66 -12.98,-31.51 19.07,-36.81 19.07,-36.81 14.46,26.16 83.06,58.47 83.06,58.47 l 113.25,15.79 1079.22,54.24 141.85,134.17 40.39,124.87 -146.92,62.32"
         style="fill:#f8a58d;fill-opacity:1;fill-rule:nonzero;stroke:none"
         id="path34" /><path
         d="m 2665.51,3002.19 c 0.04,-0.17 -2.43,-0.85 -7.17,-1.97 -5.23,-1.17 -12.14,-2.71 -20.75,-4.64 -18.64,-3.9 -44.66,-9.33 -76.56,-16 -65.27,-12.94 -154.5,-30.63 -253.08,-50.18 -98.6,-19.57 -187.83,-37.28 -253.09,-50.23 -31.95,-6.43 -57.99,-11.67 -76.66,-15.42 -8.67,-1.66 -15.61,-2.99 -20.88,-4.01 -4.79,-0.86 -7.32,-1.23 -7.36,-1.05 -0.04,0.18 2.42,0.89 7.14,2.08 5.22,1.25 12.09,2.9 20.67,4.96 17.98,4.22 44.06,10.05 76.34,17.05 64.54,14.01 153.92,32.36 252.83,51.73 98.7,18.97 188.03,36.13 253.37,48.69 32.05,5.98 58.16,10.87 76.88,14.37 8.7,1.53 15.66,2.76 20.95,3.68 4.8,0.79 7.34,1.12 7.37,0.94"
         style="fill:#f68260;fill-opacity:1;fill-rule:nonzero;stroke:none"
         id="path36" /><path
         d="m 3389.56,3582.66 c -2.81,-20.09 -17.88,-37.95 -37.2,-44.1 -11.03,-3.51 -23,-3.43 -33.84,-7.44 -10.85,-4.02 -20.96,-14.48 -18.62,-25.8 1.76,-8.48 9.57,-14.03 15.96,-19.87 6.39,-5.84 12.14,-14.86 8.4,-22.67 -4.11,-8.59 -16.49,-9.21 -22.97,-16.19 -6.84,-7.36 -4.79,-19.7 1.31,-27.68 6.11,-7.96 15.23,-12.91 23.47,-18.67 8.23,-5.76 16.23,-13.32 17.93,-23.22"
         style="fill:#17282f;fill-opacity:1;fill-rule:nonzero;stroke:none"
         id="path38" /><path
         d="m 3784.3,3406.32 c 29.83,61.84 8.98,139.39 -36.4,190.91 -45.38,51.53 -110.82,80.99 -176.65,100.5 -9.46,2.8 -21.21,4.86 -27.89,-2.4 -5.88,-6.38 -4.11,-17.14 1.5,-23.76 5.61,-6.62 13.98,-10.11 22.03,-13.37 -26.81,13.34 -55.84,23.36 -85.78,24.09 -10.45,0.26 -21.39,-0.77 -30.28,-6.28 -8.89,-5.51 -15.05,-16.54 -12.09,-26.57 2.96,-10.04 17.1,-15.73 24.81,-8.66 -28.27,3.35 -57.6,-3.3 -81.65,-18.5 -17.23,-10.89 -32.9,-29.64 -28.93,-49.64 2.33,-11.73 11,-21.22 14.76,-32.58 6.85,-20.76 -3.6,-42.74 -11.65,-63.06 -12.52,-31.6 -19.67,-66.08 -14.73,-99.71 4.95,-33.63 23.21,-66.23 52.53,-83.41"
         style="fill:#17282f;fill-opacity:1;fill-rule:nonzero;stroke:none"
         id="path40" /><path
         d="m 3657.95,3603.43 -9.59,3.55 c -105.6,32.2 -216.97,-29.1 -246.25,-135.57 l -125.59,-414.14 218.97,-185.26 66.94,173.96 c 0,0 105.1,-21.32 143.08,77.59 18.36,47.79 48.15,149.29 74.04,241.44 27.81,99.01 -25.15,202.75 -121.6,238.43"
         style="fill:#f8a58d;fill-opacity:1;fill-rule:nonzero;stroke:none"
         id="path42" /><path
         d="m 3563.13,3047.34 c 0,0 -64.69,18.13 -115.92,84.74 0,0 4.16,-82.84 106.62,-110.57 l 9.3,25.83"
         style="fill:#f68260;fill-opacity:1;fill-rule:nonzero;stroke:none"
         id="path44" /><path
         d="m 3547.94,3547.38 c -8.03,17.99 -18.03,57.1 -31.8,71.18 -13.78,14.1 -36.34,9.63 -55.36,4.41 -19.79,-5.44 -35.67,-20.28 -42.84,-39.52 -26.69,-71.61 -30.44,-139.31 -50.49,-209.77 -1.33,-4.67 -2.65,-9.65 -1.27,-14.3 3.61,-12.02 16.72,-16.35 29.12,-18.26 30.56,-4.69 46.36,17.5 60.99,44.26 3.25,5.95 10.28,42.75 10.97,49.56 4.76,47.65 32.54,89.9 75.9,110.2 l 4.78,2.24"
         style="fill:#17282f;fill-opacity:1;fill-rule:nonzero;stroke:none"
         id="path46" /><path
         d="m 3418.98,3414.06 c -1.43,1.37 -60.8,45.45 -83.76,-23.28 -22.97,-68.73 50.78,-77.61 51.55,-75.68 0.78,1.94 32.21,98.96 32.21,98.96"
         style="fill:#f8a58d;fill-opacity:1;fill-rule:nonzero;stroke:none"
         id="path48" /><path
         d="m 3374.47,3348.16 c -0.22,0.32 -1.48,-0.44 -3.8,-0.7 -2.28,-0.23 -5.88,0.27 -9.02,2.81 -6.37,5.09 -8.63,18.66 -4.82,31.16 1.9,6.32 5.21,11.84 9.07,16.02 3.78,4.34 8.2,6.76 12.08,6.19 3.92,-0.37 5.77,-3.43 5.97,-5.64 0.28,-2.23 -0.62,-3.46 -0.3,-3.7 0.14,-0.23 1.87,0.66 2.26,3.69 0.18,1.45 -0.09,3.35 -1.26,5.21 -1.2,1.89 -3.4,3.38 -6.04,3.96 -5.42,1.4 -11.82,-1.88 -16.07,-6.48 -4.54,-4.53 -8.4,-10.68 -10.55,-17.77 -4.19,-14 -1.42,-29.33 7.55,-35.52 4.42,-2.88 8.94,-2.77 11.56,-1.84 2.7,0.99 3.57,2.4 3.37,2.61"
         style="fill:#f68260;fill-opacity:1;fill-rule:nonzero;stroke:none"
         id="path50" /><path
         d="m 3521.26,3532.1 c 34.09,22.98 68.97,11.26 92.22,-2.5 23.24,-13.76 42.93,-33.12 66.83,-45.71 23.92,-12.57 55.2,-17.09 76.72,-0.75 15.95,12.1 22.86,32.89 24.71,52.82 3.53,38.29 -9.07,77.81 -34.13,106.96 -6.54,7.62 -16.57,15.12 -25.77,11.08 -11.39,-4.99 -9.75,-21.47 -6.18,-33.39 0,0 -115.56,43.65 -186.46,19.5 -70.91,-24.16 -7.94,-108.01 -7.94,-108.01"
         style="fill:#17282f;fill-opacity:1;fill-rule:nonzero;stroke:none"
         id="path52" /><path
         d="m 3566.08,3699.07 c 0.62,0.11 1.3,-4.96 4.8,-13.28 3.48,-8.31 10.57,-19.47 21.84,-31 11.37,-11.37 26.78,-23.34 45.96,-32.64 9.57,-4.73 20,-8.36 31.4,-10.82 11.35,-2.59 23.47,-4.45 35.73,-7.95 12.21,-3.45 24.13,-8.86 33.31,-17.15 9.14,-8.18 16.02,-18.18 19.98,-28.73 4.09,-10.51 5.27,-21.5 3.97,-31.46 -1.46,-9.99 -5.26,-18.79 -10.17,-25.68 -9.79,-14.01 -22.66,-20.66 -31.55,-23.16 -4.53,-1.22 -8.16,-1.63 -10.6,-1.65 -2.45,0.02 -3.72,0.12 -3.73,0.33 -0.04,0.58 5.14,0.58 13.61,3.55 8.27,3.06 20.04,9.94 28.73,23.32 4.36,6.57 7.6,14.8 8.73,23.89 0.97,9.15 -0.28,19.19 -4.18,28.83 -3.78,9.67 -10.25,18.84 -18.69,26.31 -8.46,7.52 -19.32,12.45 -31.08,15.78 -11.77,3.36 -23.8,5.27 -35.39,8 -11.63,2.58 -22.77,6.58 -32.53,11.59 -19.7,9.9 -35.26,22.56 -46.6,34.69 -11.23,12.28 -18.02,24.24 -20.94,33.09 -1.35,4.47 -2.28,7.95 -2.45,10.41 -0.3,2.43 -0.36,3.7 -0.15,3.73"
         style="fill:#33535f;fill-opacity:1;fill-rule:nonzero;stroke:none"
         id="path54" /><path
         d="m 3489.39,3678.93 c 0.51,0.11 1.64,-5.11 5.49,-13.74 3.95,-8.55 11.17,-20.42 23.56,-31.87 12.28,-11.5 29.78,-21.93 50.91,-29.29 21.07,-7.58 45.46,-12.13 71.13,-17.08 25.65,-5.18 50.4,-10.26 71.28,-21.03 10.26,-5.51 19.18,-13.76 23.14,-23.91 4.04,-10.04 3.68,-20.4 1.4,-28.98 -4.97,-17.55 -17.01,-27.26 -24.92,-32.42 -4.1,-2.64 -7.52,-4.24 -9.88,-5.2 -2.37,-0.95 -3.68,-1.27 -3.74,-1.1 -0.25,0.48 4.69,2.6 12.28,8.23 7.3,5.56 18.15,15.41 22.11,31.53 1.85,7.93 1.86,17.32 -1.87,26.01 -3.64,8.72 -11.51,15.9 -21.17,20.93 -19.65,9.85 -44.35,14.91 -69.79,20.01 -25.59,4.94 -50.34,9.71 -71.88,17.77 -21.56,7.83 -39.6,19.09 -51.96,31.44 -12.47,12.29 -19.39,24.99 -22.77,34.06 -1.64,4.58 -2.57,8.23 -3,10.74 -0.42,2.52 -0.53,3.85 -0.32,3.9"
         style="fill:#33535f;fill-opacity:1;fill-rule:nonzero;stroke:none"
         id="path56" /><path
         d="m 3737.35,3303.33 c -2.64,-1.33 -11.28,11.52 -27.96,17.4 -16.58,6.11 -31.85,1.89 -32.92,4.57 -0.57,1.22 2.68,4.17 9.38,6.15 6.61,2 16.89,2.57 27.25,-1.16 10.35,-3.75 17.72,-10.68 21.35,-16.37 3.73,-5.75 4.16,-10.02 2.9,-10.59"
         style="fill:#17282f;fill-opacity:1;fill-rule:nonzero;stroke:none"
         id="path58" /><path
         d="m 3578.1,3352.15 c -2.65,-1.34 -11.3,11.52 -27.96,17.39 -16.57,6.12 -31.85,1.9 -32.93,4.58 -0.57,1.22 2.66,4.17 9.38,6.15 6.62,2 16.89,2.57 27.25,-1.16 10.36,-3.75 17.73,-10.68 21.36,-16.37 3.71,-5.75 4.16,-10.02 2.9,-10.59"
         style="fill:#17282f;fill-opacity:1;fill-rule:nonzero;stroke:none"
         id="path60" /><path
         d="m 3594.1,3236.16 c 0.26,0.98 11.25,-0.92 28.79,-4.74 4.42,-1.07 8.74,-1.66 10.49,0.99 2.09,2.72 1.94,7.93 1.64,13.61 -0.34,11.72 -0.68,24 -1.05,36.87 -1.08,52.34 -0.24,94.75 1.87,94.78 2.11,0.03 4.69,-42.37 5.75,-94.71 0.16,-12.86 0.34,-25.14 0.47,-36.87 -0.12,-5.41 0.71,-11.87 -3.74,-17.48 -2.27,-2.77 -6.21,-3.97 -9.2,-3.73 -3.02,0.14 -5.44,0.94 -7.59,1.57 -17.2,5.09 -27.7,8.74 -27.43,9.71"
         style="fill:#17282f;fill-opacity:1;fill-rule:nonzero;stroke:none"
         id="path62" /><path
         d="m 3540.97,3242.07 c 2.76,-0.8 -3.62,-18.9 7.28,-37.24 10.87,-18.37 30.87,-23.19 30.11,-25.77 -0.15,-1.22 -5.54,-1.99 -13.75,0.69 -8.09,2.56 -18.82,9.27 -25.5,20.49 -6.65,11.23 -6.97,23.17 -4.95,30.81 2,7.81 5.61,11.57 6.81,11.02"
         style="fill:#17282f;fill-opacity:1;fill-rule:nonzero;stroke:none"
         id="path64" /><path
         d="m 3605.1,3444.96 c -3.25,-3.94 -19.13,4.13 -39.5,8.72 -20.3,5 -38.1,4.89 -39.24,9.87 -0.47,2.36 3.8,5.64 11.73,7.76 7.87,2.13 19.43,2.71 31.63,-0.15 12.19,-2.9 22.26,-8.58 28.36,-14.01 6.14,-5.44 8.49,-10.29 7.02,-12.19"
         style="fill:#17282f;fill-opacity:1;fill-rule:nonzero;stroke:none"
         id="path66" /><path
         d="m 3753.46,3376.47 c -4.28,-2.74 -14.36,5.27 -28.09,10.36 -13.55,5.58 -26.39,6.52 -27.67,11.44 -0.5,2.34 2.69,5.47 9.07,7.24 6.3,1.78 15.75,1.7 25.14,-1.96 9.37,-3.67 16.37,-10.02 19.79,-15.61 3.5,-5.62 3.71,-10.08 1.76,-11.47"
         style="fill:#17282f;fill-opacity:1;fill-rule:nonzero;stroke:none"
         id="path68" /><path
         d="m 3519.09,2928.96 c 5.13,-27.38 12.59,-218.07 -1.58,-295.37 -26.33,-143.66 -224.48,-460.22 -237.39,-485.34 -7.61,-14.8 -171.64,-390.49 -171.64,-390.49 0,0 -714.43,221.91 -750.21,402.79 0,0 241.31,179.56 300.88,234.84 11.79,10.94 230.52,387.56 230.52,387.56 l 131.92,227.99 c 0,0 101.94,99.6 154.57,99.6 52.64,0 115.81,0 115.81,0 l 227.12,-181.58"
         style="fill:#f03d5f;fill-opacity:1;fill-rule:nonzero;stroke:none"
         id="path70" /><g
         id="g72"><g
           id="g74"
           clip-path="url(#clipPath78)"><path
             d="m 2360.68,2084.84 h 46.6523 v 65 H 2360.68 Z"
             style="fill:#7e8182;fill-opacity:1;fill-rule:nonzero;stroke:none"
             id="path80" /></g></g><path
         d="m 2974.02,1852.43 -331.82,116.22 -147.19,80.4 -9.26,-23.88 c -14.18,8.88 -48.77,31.62 -78.42,59.67 -22.8,21.88 -38.94,43.68 -46.17,65 9.44,1.36 18.8,2.68 28.13,3.97 42.53,-11.84 131.99,-44.15 287.92,-131.57 234.88,-131.68 296.81,-169.81 296.81,-169.81"
         style="fill:#9c2438;fill-opacity:1;fill-rule:nonzero;stroke:none"
         id="path82" /><path
         d="m 3163.83,3110.54 -131.35,-11.7 -377.34,-77.33 163.04,-303.7 416.06,40.32 c 0,0 100.8,198.72 63.36,241.93 -37.44,43.2 -133.77,110.48 -133.77,110.48"
         style="fill:#f03d5f;fill-opacity:1;fill-rule:nonzero;stroke:none"
         id="path84" /><path
         d="m 2797.59,2625.21 57.12,96.14 h 0.01 l 279.31,27.07 -336.44,-123.21"
         style="fill:#9c2438;fill-opacity:1;fill-rule:nonzero;stroke:none"
         id="path86" /><path
         d="m 2854.72,2721.35 283.75,28.7 -4.44,-1.63 -279.31,-27.07"
         style="fill:#9c2438;fill-opacity:1;fill-rule:nonzero;stroke:none"
         id="path88" /><path
         d="m 3218.37,2752.06 c 0.14,-1.43 -74.22,-9.54 -166.05,-18.1 -91.87,-8.57 -166.43,-14.35 -166.57,-12.92 -0.12,1.43 74.21,9.54 166.08,18.1 91.83,8.57 166.4,14.35 166.54,12.92"
         style="fill:#17282f;fill-opacity:1;fill-rule:nonzero;stroke:none"
         id="path90" /><path
         d="m 3291.73,2928.2 c -0.93,-0.1 -1.99,11.01 -6.75,28.15 -4.7,17.13 -14.01,40.13 -29.57,62.34 -15.66,22.14 -34.17,38.68 -48.7,48.87 -14.53,10.27 -24.63,15.02 -24.23,15.86 0.16,0.33 2.79,-0.61 7.43,-2.61 4.7,-1.9 11.2,-5.35 18.86,-10.19 15.35,-9.61 34.82,-26.19 50.9,-48.94 15.99,-22.8 25.02,-46.73 28.88,-64.42 1.97,-8.85 3.02,-16.13 3.24,-21.19 0.3,-5.05 0.3,-7.84 -0.06,-7.87"
         style="fill:#17282f;fill-opacity:1;fill-rule:nonzero;stroke:none"
         id="path92" /><path
         d="m 2735.62,2383.76 c -0.04,0.36 5.2,1.39 14.69,2.92 9.51,1.44 23.19,4 39.94,7.68 16.77,3.6 36.51,8.93 58.1,15.82 21.51,7.15 44.83,16.01 68.59,26.95 23.69,11.11 45.49,23.21 64.83,35.05 19.2,12.05 36,23.71 49.57,34.21 13.61,10.43 24.39,19.23 31.61,25.57 7.3,6.26 11.46,9.61 11.71,9.35 0.24,-0.26 -3.45,-4.11 -10.34,-10.85 -6.83,-6.82 -17.3,-16.1 -30.71,-26.97 -13.36,-10.94 -30.07,-23 -49.28,-35.38 -19.36,-12.15 -41.3,-24.49 -65.2,-35.71 -23.97,-11.03 -47.55,-19.84 -69.31,-26.79 -21.85,-6.7 -41.84,-11.69 -58.82,-14.85 -16.97,-3.25 -30.8,-5.26 -40.42,-6.08 -9.6,-0.93 -14.92,-1.27 -14.96,-0.92"
         style="fill:#17282f;fill-opacity:1;fill-rule:nonzero;stroke:none"
         id="path94" /><path
         d="m 2775.32,2452.78 c -0.05,1.65 35.34,2.06 77.45,12 42.19,9.65 74.13,24.87 74.8,23.37 0.28,-0.58 -7.34,-5.14 -20.46,-10.92 -13.09,-5.8 -31.82,-12.55 -53.16,-17.52 -21.35,-4.95 -41.14,-7.14 -55.44,-7.71 -14.33,-0.59 -23.19,0.13 -23.19,0.78"
         style="fill:#17282f;fill-opacity:1;fill-rule:nonzero;stroke:none"
         id="path96" /><path
         d="m 3174.11,2130.97 c 0.14,-0.33 -4.69,-2.62 -13.56,-6.47 -8.85,-3.92 -21.87,-9.07 -38.14,-14.94 -32.51,-11.79 -78.42,-25.6 -130.3,-35.65 -51.91,-9.97 -99.68,-14.22 -134.24,-15.37 -17.28,-0.6 -31.29,-0.67 -40.94,-0.32 -9.67,0.28 -15,0.61 -15,0.97 0,0.36 5.34,0.72 14.98,1.06 9.64,0.28 23.58,0.91 40.78,1.97 34.38,2.08 81.8,6.9 133.43,16.81 51.6,9.99 97.4,23.16 130.09,34.01 16.36,5.41 29.54,10.01 38.6,13.34 9.07,3.27 14.17,4.92 14.3,4.59"
         style="fill:#17282f;fill-opacity:1;fill-rule:nonzero;stroke:none"
         id="path98" /><path
         d="m 3521.03,2655.59 -208.62,71.09 c -29.75,-117.36 -109.98,-214.06 -211.02,-302.23 l 258.3,-139.39 c 0,0 82.36,143.78 136.6,273.77 14,33.56 20.22,56.77 24.74,96.76"
         style="fill:#f3f2f1;fill-opacity:1;fill-rule:nonzero;stroke:none"
         id="path100" /><path
         d="m 3358.6,2750.05 -17.58,-55.74 28.55,-13.42 16.66,59.04 -27.63,10.12"
         style="fill:#dadbd8;fill-opacity:1;fill-rule:nonzero;stroke:none"
         id="path102" /><path
         d="m 3315.38,2466.09 c 12.41,1.32 25.27,1.67 38.26,1.36 l 48.78,97.51 -56.05,28.03 -12.07,-24.13 25.98,-13 -44.9,-89.77"
         style="fill:#f03d5f;fill-opacity:1;fill-rule:nonzero;stroke:none"
         id="path104" /><path
         d="m 3469.12,2498.89 1.43,0.29 c 4.1,11.59 8.65,23 13.69,34.21 -4.18,3.37 -8.93,6.49 -14.39,9.21 -23.38,11.69 -46.3,11.32 -63.67,1.68 l 14.86,-25.07 c 10.67,5.57 22.26,5.11 33.4,-0.46 10.67,-5.34 15.44,-12.26 14.68,-19.86"
         style="fill:#f03d5f;fill-opacity:1;fill-rule:nonzero;stroke:none"
         id="path106" /><path
         d="m 3373.3,2472.59 c -13.44,-2.2 -24.49,-1.57 -37.7,-4.8 l -8.11,-16.02 30.07,-15.03 18.25,36.5 -2.51,-0.65"
         style="fill:#f03d5f;fill-opacity:1;fill-rule:nonzero;stroke:none"
         id="path108" /><path
         d="m 3454.13,2464.6 h -1.77 l -63.51,-19.15 -9.75,-19.49 43.7,-21.86 c 0.47,1.36 0.9,2.73 1.51,4.05 3.24,7.07 7.31,13.6 11.44,20.11 l -2.08,1.04 3.37,1.02 17.09,34.28"
         style="fill:#f03d5f;fill-opacity:1;fill-rule:nonzero;stroke:none"
         id="path110" /><path
         d="m 3435.62,2485.96 c 0.08,-0.35 -2.88,-1.41 -8.32,-3.03 -5.44,-1.65 -13.4,-3.71 -23.3,-5.99 -19.79,-4.58 -47.46,-9.64 -78.31,-12.85 -30.87,-3.17 -58.99,-3.89 -79.3,-3.47 -10.15,0.21 -18.36,0.6 -24.03,1.1 -5.66,0.47 -8.77,0.9 -8.76,1.26 0.02,0.78 12.56,0.8 32.78,1.33 20.21,0.51 48.1,1.81 78.78,4.96 30.64,3.19 58.21,7.64 78.1,11.28 19.9,3.62 32.17,6.17 32.36,5.41"
         style="fill:#17282f;fill-opacity:1;fill-rule:nonzero;stroke:none"
         id="path112" /><path
         d="m 2945.17,1803.15 c -5.5,-16.52 -434.93,-661.03 -803.86,-793.18 l -159.68,24.77 -847.98,250.54 93.61,236.77 792.91,-170.69 364.44,412.91 110.4,284.78 450.16,-245.9"
         style="fill:#f8a58d;fill-opacity:1;fill-rule:nonzero;stroke:none"
         id="path114" /><path
         d="m 1183.22,1270.34 353.29,-104.08 83.29,271.29 -388.83,91.96 -47.75,-259.17"
         style="fill:#33535f;fill-opacity:1;fill-rule:nonzero;stroke:none"
         id="path116" /><path
         d="m 1197.02,1273.21 -6.44,-1.1 c 0,0 -206.346,-217.23 -255.275,-199.73 l 213.805,499.15 130.81,-55.24 -12.06,-16.54 c -48.3,-66.27 -68.82,-144.57 -70.84,-226.54"
         style="fill:#f03d5f;fill-opacity:1;fill-rule:nonzero;stroke:none"
         id="path118" /><path
         d="m 1209.01,1450.82 c -0.37,0 -0.74,0.01 -1.1,0.04 -10.87,0.73 -20.06,14.63 -18.38,25.39 1.52,9.67 11.04,17.15 20.73,17.15 1.09,0 2.18,-0.1 3.27,-0.3 10.02,-1.8 17.67,-11.83 17.4,-21.95 0.89,-10.47 -11.29,-20.33 -21.92,-20.33"
         style="fill:#f89db4;fill-opacity:1;fill-rule:nonzero;stroke:none"
         id="path120" /><path
         d="m 944.555,1069.77 c -3.145,0 -6.289,0.74 -9.25,2.61 v 0 c 1.894,-0.68 4.023,-1 6.371,-1 6.398,0 14.402,2.42 23.574,6.74 -4.562,-3.4 -12.602,-8.35 -20.695,-8.35"
         style="fill:#f6f6f4;fill-opacity:1;fill-rule:nonzero;stroke:none"
         id="path122" /><path
         d="m 941.676,1071.38 c -2.348,0 -4.477,0.32 -6.371,1 l 213.805,499.15 39.85,-18.7 -219.89,-471.58 c 0,0 -1.437,-1.35 -3.82,-3.13 -9.172,-4.32 -17.176,-6.74 -23.574,-6.74"
         style="fill:#f89db4;fill-opacity:1;fill-rule:nonzero;stroke:none"
         id="path124" /><path
         d="m 1189.65,1262.93 c -2.4,1.12 1.71,13.78 -0.99,29.13 -2.3,15.42 -10.21,26.12 -8.28,27.96 1.43,2.04 14.45,-7.83 17.39,-26.48 3.11,-18.61 -6.11,-32.1 -8.12,-30.61"
         style="fill:#17282f;fill-opacity:1;fill-rule:nonzero;stroke:none"
         id="path126" /><path
         d="m 1145.57,1219.85 c -2.6,0.45 -2.22,12.79 -8.99,25.48 -6.38,12.89 -16.64,19.76 -15.49,22.14 0.6,2.45 15.6,-1.97 23.7,-17.92 8.25,-15.87 3.13,-30.64 0.78,-29.7"
         style="fill:#17282f;fill-opacity:1;fill-rule:nonzero;stroke:none"
         id="path128" /><path
         d="m 1070.18,1216.95 c 0.42,2.44 14.06,0.62 24.72,-11.36 10.76,-11.9 11.1,-25.65 8.63,-25.82 -2.6,-0.51 -6.59,9.96 -15.5,19.66 -8.67,9.9 -18.65,15 -17.85,17.52"
         style="fill:#17282f;fill-opacity:1;fill-rule:nonzero;stroke:none"
         id="path130" /><path
         d="m 1193.38,1267.74 c -1.02,0.41 1.6,10.69 10.84,24.95 4.6,7.09 10.98,15.04 19.23,22.71 4.13,3.83 8.73,7.59 13.77,11.09 2.46,1.67 5.12,3.76 9.11,5.03 3.7,1.62 10.82,0.38 13.45,-4.43 2.74,-4.2 2.46,-9.43 1,-13.07 -1.46,-3.73 -3.48,-6.39 -5.31,-8.82 -3.73,-4.98 -7.81,-9.4 -12,-13.26 -8.42,-7.67 -17.22,-13.07 -25,-16.57 -15.69,-6.98 -26.48,-7.03 -26.59,-6 -0.34,1.45 9.71,3.81 23.61,11.81 6.92,3.98 14.69,9.54 22.11,16.91 3.69,3.71 7.28,7.86 10.58,12.46 3.65,4.69 5.61,9.18 3.84,11.54 -0.69,0.88 -1.02,1.09 -3.03,0.64 -1.92,-0.52 -4.24,-2.07 -6.67,-3.71 -4.77,-3.17 -9.18,-6.55 -13.21,-9.97 -8.05,-6.85 -14.56,-13.91 -19.62,-20.19 -10.11,-12.6 -14.81,-21.72 -16.11,-21.12"
         style="fill:#17282f;fill-opacity:1;fill-rule:nonzero;stroke:none"
         id="path132" /><path
         d="m 1191.25,1272.42 c -0.01,1.03 10.8,2.12 26.96,-3.75 8.01,-2.94 17.15,-7.81 25.91,-15.14 4.36,-3.68 8.59,-7.96 12.45,-12.86 3.68,-5.05 8.76,-11.43 5.79,-21.35 -1.93,-5.02 -7.54,-7.48 -11.44,-7.46 -4.08,-0.2 -7.12,0.71 -10.26,1.36 -6.23,1.58 -11.9,4.14 -16.84,7.2 -9.96,6.12 -16.93,14.26 -21.25,21.73 -8.76,15.3 -7.32,26.72 -6.41,26.57 1.58,0.29 2.64,-10.23 11.87,-23.02 4.55,-6.3 11.24,-13.04 20.11,-17.96 4.41,-2.47 9.34,-4.5 14.64,-5.73 5.63,-1.49 10.77,-1.34 11.08,0.89 1.1,2.46 -1.09,8.39 -4.44,12.25 -3.38,4.48 -7.09,8.47 -10.9,11.99 -7.68,6.99 -15.74,12.06 -22.87,15.52 -14.36,6.97 -24.6,8.28 -24.4,9.76"
         style="fill:#17282f;fill-opacity:1;fill-rule:nonzero;stroke:none"
         id="path134" /><path
         d="m 1577.59,1440.14 c 0.34,-0.12 -0.49,-3.76 -2.28,-10.25 -2.21,-7.58 -4.87,-16.69 -7.98,-27.35 -7.32,-24.28 -16.72,-55.47 -27.11,-89.95 -10.33,-34.52 -19.66,-65.74 -26.92,-90.03 -3.28,-10.62 -6.09,-19.69 -8.41,-27.22 -2.08,-6.41 -3.39,-9.9 -3.74,-9.8 -0.35,0.08 0.31,3.77 1.78,10.34 1.47,6.57 3.8,16.02 6.82,27.67 6.03,23.3 14.92,55.35 25.48,90.53 10.56,35.17 20.8,66.81 28.59,89.58 3.9,11.39 7.17,20.56 9.56,26.86 2.39,6.3 3.87,9.72 4.21,9.62"
         style="fill:#fafaf9;fill-opacity:1;fill-rule:nonzero;stroke:none"
         id="path136" /><path
         d="m 1545.05,1440.14 c 0.34,-0.12 -0.49,-3.76 -2.28,-10.25 -2.21,-7.58 -4.87,-16.69 -7.98,-27.35 -7.32,-24.28 -16.72,-55.47 -27.11,-89.95 -10.32,-34.52 -19.66,-65.74 -26.92,-90.03 -3.28,-10.62 -6.09,-19.69 -8.41,-27.22 -2.08,-6.41 -3.39,-9.9 -3.74,-9.8 -0.35,0.08 0.31,3.77 1.78,10.34 1.47,6.57 3.8,16.02 6.82,27.67 6.03,23.3 14.92,55.35 25.48,90.53 10.56,35.17 20.8,66.81 28.6,89.58 3.89,11.39 7.16,20.56 9.55,26.86 2.39,6.3 3.87,9.72 4.21,9.62"
         style="fill:#fafaf9;fill-opacity:1;fill-rule:nonzero;stroke:none"
         id="path138" /><path
         d="m 3012.35,1827.23 c 16.52,-11.02 582.62,-586 593.64,-630.05 11.01,-44.05 209.24,-925.059 209.24,-925.059 l -192.72,-55.062 c 0,0 -269.81,528.601 -269.81,545.121 0,16.519 -91.37,259.96 -91.37,259.96 l -343.63,301.69 -357.91,324.87 452.56,178.53"
         style="fill:#f8a58d;fill-opacity:1;fill-rule:nonzero;stroke:none"
         id="path140" /><path
         d="M 3881.13,208.41 3759.58,556.07 3490.65,465.469 3642.77,96.0117 3881.13,208.41"
         style="fill:#33535f;fill-opacity:1;fill-rule:nonzero;stroke:none"
         id="path142" /><path
         d="m 3870.75,217.941 4.66,-4.582 c 0,0 296.8,-40.879 311.12,-90.839 L 3656.4,5.01172 3624.96,143.488 l 20.47,-0.148 c 81.99,-0.578 157.56,28.43 225.32,74.601"
         style="fill:#f03d5f;fill-opacity:1;fill-rule:nonzero;stroke:none"
         id="path144" /><path
         d="m 3701.72,91.4688 c -7.84,0 -15.8,4.4492 -19.21,11.6092 -4.37,9.203 -0.69,21.274 7.69,26.942 2.77,2.371 6.4,3.421 10.21,3.421 7.57,0 15.88,-4.132 19.7,-10.293 5.75,-9.238 -0.18,-24.8199 -9.9,-29.7183 -2.65,-1.3399 -5.56,-1.9609 -8.49,-1.9609"
         style="fill:#f89db4;fill-opacity:1;fill-rule:nonzero;stroke:none"
         id="path146" /><path
         d="m 4186.53,122.52 c -2.06,7.21 -10.03,14.242 -22.14,20.98 7.53,-2.379 21.41,-8.461 22.14,-20.98"
         style="fill:#ffffff;fill-opacity:1;fill-rule:nonzero;stroke:none"
         id="path148" /><path
         d="m 3656.4,5.01172 v 0 l -8.06,43.27738 511.3,96.4809 c 0,0 1.93,-0.372 4.75,-1.27 12.11,-6.738 20.08,-13.77 22.14,-20.98 v 0 L 3656.4,5.01172"
         style="fill:#f89db4;fill-opacity:1;fill-rule:nonzero;stroke:none"
         id="path150" /><path
         d="m 3883.4,217.961 c 0.49,-2.609 -12.2,-6.652 -23.09,-17.801 -11.18,-10.859 -15.26,-23.531 -17.87,-23.031 -2.5,-0.027 -2.07,16.312 11.36,29.57 13.3,13.379 29.64,13.762 29.6,11.262"
         style="fill:#17282f;fill-opacity:1;fill-rule:nonzero;stroke:none"
         id="path152" /><path
         d="m 3944.1,207.281 c 1.16,-2.371 -9.08,-9.261 -15.45,-22.152 -6.74,-12.719 -6.33,-25.051 -8.94,-25.508 -2.34,-0.941 -7.49,13.828 0.73,29.707 8.08,15.953 23.06,20.41 23.66,17.953"
         style="fill:#17282f;fill-opacity:1;fill-rule:nonzero;stroke:none"
         id="path154" /><path
         d="m 3990.44,147.73 c -2.24,-1.07 -8.7,11.071 -5.19,26.719 3.38,15.68 14.35,23.981 15.92,22.063 1.94,-1.801 -4.23,-11.153 -6.91,-24.051 -2.99,-12.82 -1.31,-23.902 -3.82,-24.731"
         style="fill:#17282f;fill-opacity:1;fill-rule:nonzero;stroke:none"
         id="path156" /><path
         d="m 3877.32,218.18 c 0.26,-1.071 -9.61,-4.942 -26.59,-5.75 -8.44,-0.399 -18.62,0.14 -29.67,2.371 -5.51,1.129 -11.24,2.668 -17.04,4.711 -2.79,1.039 -6.04,1.968 -9.4,4.468 -3.47,2.059 -6.62,8.571 -4.24,13.508 1.82,4.68 6.22,7.5 10.03,8.442 3.88,0.98 7.22,0.898 10.27,0.832 6.22,-0.133 12.18,-0.864 17.76,-2.024 11.15,-2.347 20.66,-6.347 28.05,-10.629 14.81,-8.66 21.16,-17.41 20.39,-18.109 -0.99,-1.109 -8.77,5.668 -23.37,12.301 -7.28,3.289 -16.33,6.367 -26.64,8.09 -5.16,0.839 -10.63,1.328 -16.28,1.32 -5.95,0.23 -10.73,-0.793 -11.62,-3.602 -0.31,-1.07 -0.3,-1.461 1.24,-2.851 1.55,-1.238 4.16,-2.227 6.91,-3.246 5.36,-2.024 10.67,-3.641 15.8,-4.91 10.27,-2.532 19.81,-3.711 27.84,-4.153 16.14,-0.871 26.29,0.641 26.56,-0.769"
         style="fill:#17282f;fill-opacity:1;fill-rule:nonzero;stroke:none"
         id="path158" /><path
         d="m 3874.77,213.719 c -0.83,-0.61 -8.03,7.539 -12.69,24.09 -2.29,8.211 -3.66,18.492 -2.82,29.871 0.45,5.691 1.45,11.629 3.18,17.621 1.95,5.929 4.18,13.777 13.97,17.16 5.2,1.359 10.47,-1.77 12.73,-4.953 2.55,-3.188 3.58,-6.188 4.88,-9.117 2.35,-5.981 3.58,-12.082 3.98,-17.879 0.84,-11.66 -1.7,-22.071 -5.25,-29.942 -7.32,-16.039 -17.44,-21.531 -17.85,-20.699 -1.15,1.109 6.76,8.109 11.76,23.07 2.47,7.368 4.04,16.727 2.87,26.797 -0.56,5.032 -1.79,10.223 -3.88,15.242 -2.08,5.45 -5.2,9.532 -7.19,8.489 -2.64,-0.551 -6.18,-5.789 -7.35,-10.77 -1.67,-5.347 -2.76,-10.687 -3.39,-15.847 -1.2,-10.313 -0.62,-19.801 0.73,-27.622 2.72,-15.73 7.64,-24.812 6.32,-25.511"
         style="fill:#17282f;fill-opacity:1;fill-rule:nonzero;stroke:none"
         id="path160" /><path
         d="m 3513.18,429.691 c -0.12,0.34 3.33,1.778 9.64,4.118 7.44,2.613 16.4,5.781 26.87,9.472 23.99,8.219 54.8,18.778 88.88,30.449 34.06,11.758 64.86,22.379 88.82,30.649 10.54,3.531 19.55,6.551 27.02,9.051 6.41,2.05 10.02,3.019 10.14,2.679 0.13,-0.328 -3.24,-1.949 -9.43,-4.578 -6.2,-2.64 -15.25,-6.269 -26.47,-10.613 -22.44,-8.68 -53.65,-20.168 -88.38,-32.109 -34.73,-11.938 -66.4,-22.079 -89.45,-29.039 -11.51,-3.469 -20.88,-6.168 -27.38,-7.899 -6.51,-1.73 -10.16,-2.543 -10.26,-2.18"
         style="fill:#fafaf9;fill-opacity:1;fill-rule:nonzero;stroke:none"
         id="path162" /><path
         d="m 3532.15,403.25 c -0.11,0.34 3.34,1.801 9.66,4.121 7.43,2.629 16.38,5.777 26.86,9.481 23.99,8.218 54.81,18.769 88.88,30.449 34.06,11.75 64.85,22.379 88.83,30.648 10.53,3.531 19.53,6.539 27.01,9.051 6.42,2.051 10.02,3.02 10.15,2.691 0.12,-0.351 -3.25,-1.961 -9.45,-4.589 -6.19,-2.641 -15.23,-6.262 -26.45,-10.614 -22.45,-8.687 -53.66,-20.16 -88.4,-32.117 -34.73,-11.93 -66.39,-22.07 -89.43,-29.019 -11.53,-3.481 -20.88,-6.172 -27.4,-7.911 -6.5,-1.73 -10.15,-2.531 -10.26,-2.191"
         style="fill:#fafaf9;fill-opacity:1;fill-rule:nonzero;stroke:none"
         id="path164" /><path
         d="m 2495.01,2049.05 c 0,0 -302.42,-379.47 -374.74,-409.61 -23.15,-9.65 59.8,-106.91 59.8,-106.91 l 41.08,46.5 c 130.62,-68.66 231.65,-158.64 335.71,-285.2 l 180.43,169.44 151.59,-200.73 431.45,266.97 -211.85,228.25 c 0,0 -285.57,257.25 -543.15,326.28 0,0 -29.76,0.19 -70.32,-34.99"
         style="fill:#17282f;fill-opacity:1;fill-rule:nonzero;stroke:none"
         id="path166" /><path
         d="m 2958.04,1706.74 c 0.13,-0.12 -1.08,-1.75 -3.5,-4.73 -2.84,-3.38 -6.41,-7.63 -10.81,-12.85 -9.49,-11.07 -23.38,-26.95 -40.73,-46.4 -34.69,-38.91 -83.2,-92.16 -138.13,-149.71 -54.9,-57.61 -105.95,-108.49 -144.2,-143.97 -19.22,-17.63 -34.82,-31.86 -46.12,-41.1 -5.26,-4.35 -9.55,-7.89 -12.95,-10.7 -2.99,-2.4 -4.63,-3.59 -4.74,-3.45 -0.11,0.13 1.29,1.59 4.06,4.25 3.23,2.99 7.29,6.78 12.29,11.42 10.87,9.69 26.06,24.32 44.93,42.26 37.54,36.1 88.11,87.32 142.97,144.88 54.88,57.51 103.78,110.33 139.16,148.59 17.35,18.73 31.56,34.08 41.95,45.29 4.69,4.95 8.5,8.98 11.54,12.18 2.68,2.76 4.14,4.15 4.28,4.04"
         style="fill:#33535f;fill-opacity:1;fill-rule:nonzero;stroke:none"
         id="path168" /><path
         d="m 2560.42,1299.82 c -0.14,-0.11 -1.55,1.23 -4.13,3.92 -2.93,3.13 -6.59,7.06 -11.07,11.86 -9.45,10.45 -23.47,25.26 -41.14,43.18 -17.61,17.99 -39.3,38.68 -64.06,60.9 -24.92,22.03 -53.01,45.48 -83.55,68.73 -30.67,23.1 -60.86,43.78 -88.83,61.79 -28.11,17.81 -53.92,33.07 -76,45.15 -22.04,12.15 -40.1,21.62 -52.71,27.88 -5.84,3.01 -10.61,5.47 -14.43,7.43 -3.27,1.76 -4.95,2.76 -4.88,2.92 0.07,0.17 1.91,-0.51 5.33,-1.96 3.92,-1.74 8.84,-3.91 14.86,-6.56 12.91,-5.72 31.26,-14.71 53.58,-26.48 22.37,-11.69 48.46,-26.68 76.82,-44.32 28.21,-17.86 58.61,-38.51 89.4,-61.7 30.67,-23.34 58.78,-47 83.62,-69.31 24.67,-22.5 46.17,-43.54 63.49,-61.9 17.38,-18.3 31.02,-33.53 40.02,-44.41 4.19,-5.07 7.61,-9.21 10.34,-12.52 2.33,-2.9 3.48,-4.48 3.34,-4.6"
         style="fill:#33535f;fill-opacity:1;fill-rule:nonzero;stroke:none"
         id="path170" /><path
         d="m 2726.73,2031.09 c 0.14,-0.12 -1.25,-1.93 -3.99,-5.26 -3.15,-3.71 -7.19,-8.5 -12.21,-14.42 -11.11,-12.92 -26.48,-30.78 -45.29,-52.64 -38.21,-44.48 -90.51,-106.32 -146.89,-175.76 -56.38,-69.5 -106.12,-133.42 -141.79,-179.96 -17.53,-22.9 -31.84,-41.63 -42.19,-55.15 -4.77,-6.13 -8.62,-11.07 -11.6,-14.91 -2.69,-3.38 -4.17,-5.1 -4.32,-4.99 -0.15,0.1 1.05,2.03 3.48,5.6 2.78,3.99 6.36,9.13 10.81,15.5 9.45,13.41 23.41,32.61 40.88,56.17 34.94,47.13 84.26,111.47 140.68,181.02 56.42,69.5 109.23,131.01 148.16,174.89 19.47,21.95 35.38,39.56 46.56,51.58 5.32,5.66 9.6,10.23 12.93,13.76 3,3.12 4.64,4.69 4.78,4.57"
         style="fill:#fafaf9;fill-opacity:1;fill-rule:nonzero;stroke:none"
         id="path172" /><path
         d="m 2693.75,2033.08 c 0.13,-0.13 -1.27,-1.87 -4.03,-5.07 -3.19,-3.58 -7.26,-8.16 -12.31,-13.83 -11.22,-12.41 -26.7,-29.53 -45.65,-50.49 -38.51,-42.66 -91.28,-101.95 -148.24,-168.58 -56.97,-66.68 -107.33,-128.06 -143.45,-172.75 -17.74,-21.98 -32.25,-39.94 -42.75,-52.95 -4.82,-5.88 -8.71,-10.61 -11.75,-14.3 -2.73,-3.25 -4.23,-4.89 -4.38,-4.78 -0.13,0.11 1.09,1.97 3.55,5.41 2.84,3.86 6.47,8.8 10.97,14.91 9.6,12.9 23.76,31.36 41.48,54.01 35.41,45.3 85.36,107.1 142.36,173.83 57.02,66.68 110.28,125.65 149.49,167.69 19.61,21.03 35.65,37.88 46.89,49.38 5.34,5.41 9.66,9.77 13.02,13.17 3.01,2.97 4.66,4.47 4.8,4.35"
         style="fill:#fafaf9;fill-opacity:1;fill-rule:nonzero;stroke:none"
         id="path174" /><path
         d="m 3035.75,1366.48 c -1.17,-0.83 -38.78,50.11 -83.99,113.76 -45.23,63.67 -80.93,115.95 -79.76,116.78 1.18,0.83 38.77,-50.1 84.01,-113.77 45.2,-63.64 80.92,-115.93 79.74,-116.77"
         style="fill:#33535f;fill-opacity:1;fill-rule:nonzero;stroke:none"
         id="path176" /><path
         d="m 3546.21,2475.22 c -1.05,-11.5 -21,-39.15 -45.54,-53.57 -24.18,-14.2 -33.01,-20.55 -85.01,-45.78 -55.52,-26.94 -489.23,-182.43 -489.23,-182.43 l 38.24,85.11 -9.4,55.56 c 119.49,25.98 447.67,123.86 532.27,180.2 17.43,11.61 29.02,36.99 13.54,54.65 l 1.9,6.01 c 0,0 8.07,1.8 33.75,-42.05 12.69,-21.67 10.78,-43.6 9.48,-57.7"
         style="fill:#f03d5f;fill-opacity:1;fill-rule:nonzero;stroke:none"
         id="path178" /><path
         d="m 2926.43,2193.44 38.24,85.11 -9.4,55.56 c 119.49,25.98 447.67,123.86 532.27,180.2 11.71,7.8 20.79,21.82 20.79,35.53 -0.01,4.76 -1.1,9.47 -3.54,13.88 -1.01,1.8 -2.24,3.56 -3.71,5.24 l 1.9,6.01 c 0,0 0.05,0.01 0.14,0.01 1.18,0 9.87,-1.53 33.61,-42.06 8.42,-14.39 10.41,-28.89 10.42,-41.14 0,-6.2 -0.5,-11.82 -0.94,-16.56 -1.05,-11.5 -21,-39.15 -45.54,-53.57 -24.18,-14.2 -33.01,-20.55 -85.01,-45.78 -2.28,-1.1 -5.19,-2.42 -8.67,-3.93 -21.98,-9.55 -66.94,-26.89 -120.93,-47.14 -146.57,-54.98 -359.63,-131.36 -359.63,-131.36"
         style="fill:#ba2c42;fill-opacity:1;fill-rule:nonzero;stroke:none"
         id="path180" /><path
         d="m 2293.89,2275.76 420.62,51.69 51.5,-27.92 -98.2,-114.42 c 0,0 -532.32,-44.57 -660.25,-120.72 -122.37,-72.84 -156.87,-256.39 -351.04,-274.4 -91.39,-8.48 -248.41,32.25 -399.19,72.97 -169.57,45.8 -331.26,91.6 -382.857,67.41 l -57.871,152.3 c 0,0 292.418,-5.39 508.668,-83.41 216.27,-78.03 284.52,-95.6 395.08,0 110.55,95.59 204.97,186.97 396.87,232.66 117.41,27.95 176.67,43.84 176.67,43.84"
         style="fill:#f03d5f;fill-opacity:1;fill-rule:nonzero;stroke:none"
         id="path182" /><path
         d="m 1630.24,1788.86 c -93.39,0 -235.72,37.05 -372.91,74.1 -137.16,37.05 -269.189,74.1 -341.939,74.1 -17.192,0 -31.055,-2.07 -40.918,-6.69 l -57.871,152.3 c 0,0 292.418,-5.39 508.668,-83.41 113.56,-40.97 186.32,-65.28 245.81,-65.28 53.81,0 96.76,19.88 149.27,65.28 110.55,95.59 204.97,186.97 396.87,232.66 117.41,27.95 176.67,43.84 176.67,43.84 l 420.62,51.69 51.5,-27.92 -98.2,-114.42 c 0,0 -130.93,-10.96 -278.52,-31.3 -9.33,-1.29 -18.69,-2.61 -28.13,-3.97 -0.15,-0.02 -0.33,-0.04 -0.48,-0.06 -142.12,-20.51 -292.7,-49.43 -353.12,-85.39 -122.37,-72.84 -156.87,-256.39 -351.04,-274.4 -8.24,-0.77 -17.03,-1.13 -26.28,-1.13"
         style="fill:#ba2c42;fill-opacity:1;fill-rule:nonzero;stroke:none"
         id="path184" /><path
         d="m 1925.53,3267.54 c 0,-1.44 -161.68,-2.61 -361.09,-2.61 -199.47,0 -361.12,1.17 -361.12,2.61 0,1.43 161.65,2.6 361.12,2.6 199.41,0 361.09,-1.17 361.09,-2.6"
         style="fill:#33535f;fill-opacity:1;fill-rule:nonzero;stroke:none"
         id="path186" /><path
         d="m 1459.04,3095.59 c 0,-1.44 -78.85,-2.6 -176.09,-2.6 -97.28,0 -176.12,1.16 -176.12,2.6 0,1.44 78.84,2.61 176.12,2.61 97.24,0 176.09,-1.17 176.09,-2.61"
         style="fill:#33535f;fill-opacity:1;fill-rule:nonzero;stroke:none"
         id="path188" /><path
         d="m 1696.89,3179.08 c 0,-1.44 -323.48,-2.61 -722.406,-2.61 -399.074,0 -722.476,1.17 -722.476,2.61 0,1.44 323.402,2.6 722.476,2.6 398.926,0 722.406,-1.16 722.406,-2.6"
         style="fill:#33535f;fill-opacity:1;fill-rule:nonzero;stroke:none"
         id="path190" /><path
         d="m 2987.58,734.129 c 0,-1.438 -161.68,-2.609 -361.08,-2.609 -199.48,0 -361.13,1.171 -361.13,2.609 0,1.441 161.65,2.609 361.13,2.609 199.4,0 361.08,-1.168 361.08,-2.609"
         style="fill:#33535f;fill-opacity:1;fill-rule:nonzero;stroke:none"
         id="path192" /><path
         d="m 2758.94,645.668 c 0,-1.43 -323.48,-2.598 -722.41,-2.598 -399.07,0 -722.47,1.168 -722.47,2.598 0,1.441 323.4,2.613 722.47,2.613 398.93,0 722.41,-1.172 722.41,-2.613"
         style="fill:#33535f;fill-opacity:1;fill-rule:nonzero;stroke:none"
         id="path194" /><path
         d="m 429.367,185.531 c 6.516,25.231 -10.035,50.559 -28.582,68.867 -18.543,18.301 -40.719,34.711 -50.371,58.911 -15.633,39.222 5.391,90 -21.293,122.711 -15.691,19.261 -43.832,25.699 -57.758,46.261 -7.304,10.789 -9.668,24.047 -12.539,36.75 -14.644,64.821 -47.078,125.508 -92.828,173.699 -3.18,-57.71 9.547,-116.23 36.422,-167.41 10.801,-20.558 24.066,-40.621 27.648,-63.582 5.817,-37.289 -14.996,-75.687 -5.836,-112.297 10.473,-41.863 57.5,-69.882 59.727,-112.98 1.891,-36.43 -29.867,-68.41 -27.5,-104.82 1.008,-15.5 8.203,-29.891 16.203,-43.1996 C 300.836,41.6016 342.219,9.35156 404.949,10.3906 L 481.777,7.69922 429.367,185.531"
         style="fill:#f03d5f;fill-opacity:1;fill-rule:nonzero;stroke:none"
         id="path196" /><path
         d="m 481.777,7.69922 -76.828,2.69138 c -0.992,-0.0195 -1.969,-0.0195 -2.949,-0.0195 -61.078,0 -101.609,31.9687 -129.34,78.0703 -8,13.3086 -15.195,27.6996 -16.203,43.1996 -0.082,1.277 -0.125,2.55 -0.125,3.82 -0.051,33.777 27.684,63.957 27.707,97.809 0,1.058 -0.027,2.128 -0.082,3.191 -2.227,43.098 -49.254,71.117 -59.727,112.98 -1.699,6.797 -2.367,13.649 -2.367,20.547 0.012,25.563 9.223,51.703 9.246,77.5 0.004,4.762 -0.304,9.512 -1.043,14.25 -3.582,22.961 -16.847,43.024 -27.648,63.582 -24.145,45.989 -36.871,97.891 -36.898,149.809 -0.004,5.871 0.156,11.742 0.476,17.601 45.75,-48.191 78.184,-108.878 92.828,-173.699 2.871,-12.703 5.235,-25.961 12.539,-36.75 13.926,-20.562 42.067,-27 57.758,-46.261 13.496,-16.54 14.789,-37.719 14.789,-59.68 0.004,-5.129 -0.066,-10.301 -0.066,-15.469 -0.004,-16.441 0.695,-32.812 6.57,-47.562 9.652,-24.2 31.828,-40.61 50.371,-58.911 15.723,-15.519 30.008,-36.078 30.028,-57.359 0.003,-3.82 -0.454,-7.668 -1.446,-11.508 v 0 0 L 481.777,7.69922"
         style="fill:#ba2c42;fill-opacity:1;fill-rule:nonzero;stroke:none"
         id="path198" /><path
         d="m 497.336,5.67969 c 0,0 7.324,-1.69922 21.152,0.46094 6.891,1.00781 15.36,2.82812 24.965,6.28907 9.551,3.4883 20.422,8.4687 30.836,16.8906 5,4.3711 9.996,9.75 12.684,16.8985 2.648,7.1093 3.132,14.9296 3.617,22.9609 0.414,8.0312 0.418,16.3906 1.793,24.8398 1.301,8.4685 4.621,16.7815 9.387,24.7185 9.062,15.91 24.101,30.973 28.96,52.582 5.258,21.25 1.489,44.25 -2.085,67.34 -3.571,23.051 -7.028,48.18 1.793,72.18 8.242,24.031 25.085,45.719 33.507,72.808 8.391,27.364 4.485,56.793 6.25,85.801 0.817,14.582 3.629,29.16 10.016,42.672 6.215,13.59 14.84,26.418 21.566,40.738 13.641,28.95 16.047,61.75 19.778,93.903 1.82,16.187 3.656,32.558 5.511,49.09 1.832,16.597 3.305,33.136 8.536,49.128 4.738,16.098 11.593,31.68 18.378,47.551 3.325,7.981 6.84,15.957 8.918,24.828 1.504,9.051 1.938,17.532 2.481,26.43 0.863,17.621 0.137,35.473 -2.047,53.18 -2.09,17.73 -5.289,35.301 -7.191,53.082 -0.118,1.039 -0.235,2.097 -0.344,3.058 l -0.395,3.539 -3.148,-1.57 c -16.453,-8.25 -30.539,-20.519 -41.359,-34.918 -11.004,-14.289 -19.016,-30.422 -25.415,-46.82 -12.832,-33.012 -17.453,-67.602 -23.921,-100.61 -6.317,-33.011 -14.645,-65.492 -31.571,-92.929 -8.418,-13.68 -18.605,-26.172 -27.515,-39.52 -8.899,-13.25 -16.719,-27.801 -19.067,-43.781 -4.547,-32.512 13.36,-61.051 9.633,-89.82 -1.328,-14.309 -7.023,-27.68 -14.019,-39.871 -6.977,-12.289 -15.176,-23.668 -22.954,-35.11 -7.773,-11.437 -15.175,-23.051 -20.625,-35.449 -5.543,-12.359 -8.597,-25.582 -9.437,-38.52 -1.875,-25.902 1.801,-50.48 -0.094,-73.691 -1.562,-23.238 -9.722,-44.301 -18.961,-63.141 -9.293,-18.898 -19.629,-36 -28.289,-52.57 -4.363,-8.277 -8.375,-16.367 -11.648,-24.476 -3.465,-8.102 -5.168,-16.403 -6.746,-24.293 -2.52,-15.93 -2.278,-30.7699 -0.567,-43.8598 3.34,-26.3203 13.16,-45.2578 21.981,-55.9179 2.023,-2.8399 4.371,-4.8516 6.218,-6.7305 1.801,-1.9414 3.582,-3.26174 5.043,-4.28127 2.868,-2.10937 4.395,-3.08984 4.395,-3.08984 0.34,0.39062 -6.324,3.92187 -14.879,14.71871 -8.457,10.711 -17.848,29.5196 -20.855,55.5508 -1.543,12.9297 -1.633,27.5708 0.976,43.2108 1.621,7.731 3.36,15.871 6.801,23.719 3.266,7.93 7.328,15.98 11.715,24.16 8.726,16.43 19.176,33.449 28.668,52.473 9.426,18.929 17.902,40.418 19.625,64.258 2.015,23.699 -1.547,48.371 0.406,73.66 0.883,12.66 3.855,25.261 9.262,37.23 5.324,12 12.617,23.379 20.39,34.731 7.774,11.371 16.071,22.8 23.243,35.328 7.175,12.449 13.203,26.359 14.664,41.5 3.699,30.652 -14.075,59.39 -9.454,89.601 2.219,14.95 9.653,28.879 18.422,41.879 8.77,13.11 19.008,25.61 27.68,39.641 17.461,28.23 25.918,61.32 32.301,94.469 6.535,33.211 11.156,67.441 23.765,99.769 6.274,16.07 14.11,31.801 24.747,45.602 10.46,13.898 23.941,25.601 39.617,33.461 l -3.543,1.968 c 0.105,-0.98 0.226,-2.039 0.343,-3.109 1.934,-17.969 5.145,-35.59 7.208,-53.109 2.16,-17.512 2.878,-35.012 2.039,-52.371 -0.504,-8.559 -1.028,-17.559 -2.364,-25.629 -1.875,-8.082 -5.324,-16.063 -8.625,-23.961 -6.742,-15.801 -13.695,-31.61 -18.515,-48.059 -5.34,-16.383 -6.871,-33.551 -8.653,-49.961 -1.836,-16.539 -3.652,-32.922 -5.449,-49.129 -3.672,-32.281 -6.078,-64.562 -19.207,-92.5 -6.492,-13.91 -15.098,-26.769 -21.5,-40.82 -6.601,-14.012 -9.531,-29.41 -10.297,-44.231 -1.672,-29.652 2.188,-58.64 -5.836,-84.902 -7.965,-26.137 -24.726,-47.949 -33.191,-72.738 -9.07,-25.051 -5.309,-50.988 -1.649,-73.969 3.711,-23.121 7.438,-45.641 2.485,-66.062 -4.438,-20.637 -19.047,-35.571 -28.289,-51.93 -4.817,-8.129 -8.262,-16.93 -9.532,-25.6993 -1.347,-8.75 -1.273,-17.1797 -1.617,-25.1484 -0.394,-7.9102 -0.847,-15.6797 -3.273,-22.3321 C 582.551,40.3086 577.848,35.0703 573.043,30.7813 563.008,22.4805 552.336,17.3906 542.949,13.8086 533.496,10.2383 525.133,8.28125 518.336,7.12891 511.531,5.89844 506.246,5.71875 502.707,5.60938 499.172,5.75 497.336,5.67969 497.336,5.67969"
         style="fill:#17282f;fill-opacity:1;fill-rule:nonzero;stroke:none"
         id="path200" /><path
         d="m 740.094,910.809 c -0.082,0.011 -0.336,-0.77 -0.742,-2.321 -0.454,-1.847 -1.012,-4.129 -1.7,-6.929 -1.507,-6.039 -3.312,-15.18 -6.211,-26.59 -3.015,-11.391 -9.984,-24.258 -15.945,-40.141 -6.199,-15.738 -12.48,-33.988 -18.262,-54.488 -5.859,-20.488 -11.054,-43.238 -16.484,-67.621 -5.602,-24.321 -11.187,-50.418 -24.598,-75.028 -6.297,-12.48 -13.386,-25.113 -19.015,-38.933 -5.774,-13.817 -8.887,-28.93 -11.063,-44.078 -3.691,-30.442 -9.277,-61.34 -16.566,-92.95 C 594.102,398.758 579.43,338.801 566.07,284.191 552.391,229.77 540.055,180.738 529.66,139.398 519.547,98.4414 511.328,65.1602 505.527,41.6914 502.859,30.4219 500.75,21.5195 499.211,15.0586 c -0.617,-2.8203 -1.117,-5.10938 -1.52,-6.96876 -0.316,-1.57031 -0.437,-2.3789 -0.355,-2.41015 0.082,-0.01953 0.367,0.76172 0.844,2.30078 0.527,1.80859 1.187,4.05863 1.996,6.82813 1.754,6.4102 4.164,15.2305 7.219,26.4023 6.16,23.3789 14.898,56.5274 25.648,97.3201 10.687,41.27 23.363,90.219 37.437,144.539 13.481,54.61 28.297,114.602 43.848,177.571 7.289,31.578 12.93,63.05 16.531,93.328 2.137,15.062 5.106,29.621 10.653,43.031 5.429,13.461 12.406,26.039 18.703,38.641 13.515,25.078 19.148,51.968 24.531,76.187 5.258,24.453 10.234,47.133 15.852,67.57 5.535,20.461 11.55,38.68 17.468,54.454 5.657,15.816 12.399,28.839 15.231,40.609 2.664,11.687 4.125,20.73 5.332,26.91 0.488,2.84 0.894,5.141 1.215,7.008 0.246,1.59 0.332,2.41 0.25,2.43"
         style="fill:#17282f;fill-opacity:1;fill-rule:nonzero;stroke:none"
         id="path202" /><path
         d="M 510.895,5.44922 C 561.082,35.2813 575.48,125.82 554.547,180.32 c -20.934,54.489 -57.574,104.289 -63.223,162.391 -4.344,44.668 10.285,90.508 -0.121,134.16 -14.039,58.918 -71.558,104.551 -70.894,165.117 0.371,33.992 19.707,65.961 18.164,99.903 -1.887,41.64 -33.848,74.679 -53.641,111.359 -30.301,56.141 -32.297,122.531 -42.652,185.48 -10.364,62.95 -34.356,130.37 -90.149,161.31 -8.238,-53.44 -22.304,-90.05 -17.89,-162.45 1.589,-26.01 31.797,-75.781 35.906,-132.781 2.457,-34.059 4.16,-68.168 6.238,-102.258 2.028,-33.172 4.176,-66.949 16.067,-97.981 9.109,-23.781 23.753,-45.379 30.515,-69.929 12.731,-46.192 -3.992,-96.223 6.285,-143.02 8.707,-39.652 36.149,-73.769 41.754,-113.973 7.875,-56.5 -28.683,-115.187 -9.972,-169.07 9.289,-26.738 31.285,-48.199 37.519,-75.808 4.844,-21.418 -0.433,-44.102 3.949,-65.6098 C 409.469,32.4883 475.594,5.57031 510.91,7.69922"
         style="fill:#f03d5f;fill-opacity:1;fill-rule:nonzero;stroke:none"
         id="path204" /><path
         d="m 265.867,1146.99 c -0.09,-0.02 -0.012,-1.04 0.215,-3.02 0.293,-2.24 0.664,-5.14 1.133,-8.79 1.152,-7.71 2.445,-19.05 5.051,-33.71 2.804,-14.73 10.398,-31.32 16.464,-51.33 6.407,-19.95 12.778,-42.95 18.411,-68.718 5.726,-25.754 10.511,-54.242 15.547,-84.922 5.199,-30.441 10.511,-64.09 25.722,-96.012 7.039,-16.047 14.938,-32.097 20.863,-49.207 6.075,-17.043 8.868,-35.371 10.586,-54.222 2.594,-37.86 7.633,-77.239 14.719,-116.899 15.371,-79.191 30.008,-154.621 43.332,-223.289 14.043,-68.371 26.699,-129.992 37.356,-181.851 10.757,-51.5 19.48,-93.2583 25.593,-122.52 3.079,-14.1992 5.489,-25.3398 7.207,-33.2617 0.832,-3.5899 1.493,-6.4297 2,-8.6367 0.473,-1.93363 0.762,-2.92191 0.844,-2.90238 0.082,0.01953 -0.035,1.03906 -0.351,3.01168 -0.387,2.2305 -0.887,5.1094 -1.512,8.7188 -1.504,7.9687 -3.617,19.1719 -6.301,33.4492 -5.746,29.332 -13.949,71.2111 -24.062,122.8321 -10.356,51.93 -22.657,113.609 -36.313,182.07 -13.203,68.641 -27.707,144.047 -42.93,223.207 -7.082,39.711 -12.089,78.512 -14.765,116.52 -1.754,18.953 -4.664,37.844 -10.949,55.312 -6.11,17.469 -14.118,33.59 -21.157,49.5 -15.129,31.469 -20.433,64.321 -25.851,94.871 -5.199,30.61 -10.207,59.2 -16.176,85 -5.871,25.819 -12.508,48.859 -19.184,68.799 -6.379,20.08 -14.203,36.53 -17.218,50.89 -2.856,14.39 -4.485,25.84 -5.946,33.46 -0.668,3.61 -1.203,6.49 -1.617,8.7 -0.39,1.96 -0.629,2.96 -0.711,2.95"
         style="fill:#17282f;fill-opacity:1;fill-rule:nonzero;stroke:none"
         id="path206" /><path
         d="m 3010.46,393.559 c 20.2,-2.77 38.09,-15.707 49.9,-32.309 11.82,-16.609 18.06,-36.609 21.3,-56.738 6.29,-38.922 -4.49,-83.012 -19.14,-119.621 -39.53,18.839 -60.38,65.168 -69.48,89.328 -14.38,38.199 -17.17,115.953 17.42,119.34"
         style="fill:#f03d5f;fill-opacity:1;fill-rule:nonzero;stroke:none"
         id="path208" /><path
         d="m 3116.88,132.961 c -11.06,19.898 -8.73,45.769 3.56,64.937 12.29,19.161 33.43,31.743 55.75,36.18 10.33,2.051 22.07,2.16 30.2,-4.539 7.59,-6.269 10.02,-17.289 7.98,-26.918 -2.04,-9.633 -7.88,-18.031 -14.51,-25.32 -22.69,-24.981 -49.24,-44.981 -82.98,-44.34"
         style="fill:#f03d5f;fill-opacity:1;fill-rule:nonzero;stroke:none"
         id="path210" /><path
         d="m 3108.51,5.85938 c -0.21,-0.00782 -0.54,2.87109 -1.04,8.06252 -0.53,5.7383 -1.21,13.1367 -2.02,22.0273 -1.4,18.4922 -3.91,44.8399 2.89,72.9918 6.63,28.039 20.41,51.188 33.75,64.489 6.59,6.742 12.71,11.371 17.17,14.148 2.17,1.473 4.04,2.332 5.23,3.012 1.23,0.629 1.9,0.922 1.95,0.84 0.39,-0.551 -10.28,-5.719 -22.87,-19.391 -12.72,-13.41 -25.93,-36.187 -32.45,-63.769 -6.67,-27.5708 -4.54,-53.6411 -3.66,-72.1802 0.54,-9.3085 0.97,-16.871 1.12,-22.1015 0.15,-5.21877 0.11,-8.11721 -0.07,-8.12892"
         style="fill:#17282f;fill-opacity:1;fill-rule:nonzero;stroke:none"
         id="path212" /><path
         d="m 3017.82,334.539 c 0.1,0.031 0.55,-1.098 1.34,-3.281 0.85,-2.469 1.95,-5.637 3.29,-9.559 2.82,-8.32 6.74,-20.41 11.46,-35.39 9.43,-29.957 21.89,-71.539 34.62,-117.75 12.71,-46.231 23.27,-88.3285 30.49,-118.891 3.61,-15.2891 6.43,-27.6797 8.27,-36.2696 0.84,-4.05856 1.52,-7.34762 2.06,-9.8984 0.44,-2.26953 0.62,-3.4804687 0.52,-3.5 -0.09,-0.0195313 -0.46,1.14063 -1.09,3.37109 -0.66,2.51954 -1.52,5.75782 -2.58,9.76951 -2.24,8.8594 -5.35,21.0899 -9.15,36.0508 -7.71,30.4297 -18.57,72.4176 -31.28,118.6176 -12.71,46.171 -24.85,87.812 -33.8,117.91 -4.39,14.793 -7.97,26.89 -10.57,35.652 -1.14,3.981 -2.07,7.199 -2.79,9.719 -0.61,2.23 -0.88,3.422 -0.79,3.449"
         style="fill:#17282f;fill-opacity:1;fill-rule:nonzero;stroke:none"
         id="path214" /><path
         d="m 3068.33,94.6016 c -20,43.6284 -62.31,76.2964 -109.59,84.5974 -12.04,2.121 -26.83,1.563 -33.35,-8.781 -6.53,-10.359 -0.59,-23.996 6.75,-33.797 30.59,-40.7304 87.42,-59.6327 136.31,-45.3319"
         style="fill:#f03d5f;fill-opacity:1;fill-rule:nonzero;stroke:none"
         id="path216" /><path
         d="m 2973.91,144.852 c 0.03,0.199 2.71,-0.184 7.56,-1.051 2.43,-0.41 5.4,-0.942 8.76,-1.93 3.35,-0.98 7.28,-1.762 11.39,-3.359 4.15,-1.492 8.75,-3.012 13.43,-5.262 4.81,-1.969 9.7,-4.609 14.81,-7.422 10.09,-5.879 20.67,-13.297 30.51,-22.547 9.76,-9.3513 17.78,-19.4919 24.13,-29.2927 3.03,-5 5.93,-9.7266 8.08,-14.4688 2.45,-4.6015 4.15,-9.1289 5.76,-13.2304 1.77,-4.0508 2.65,-7.9688 3.73,-11.2891 1.1,-3.3281 1.69,-6.2891 2.16,-8.6992 0.98,-4.8399 1.43,-7.5117 1.23,-7.5391 -0.63,-0.1601 -2.48,10.6094 -9,26.7891 -1.71,4 -3.49,8.418 -5.99,12.8984 -2.21,4.6211 -5.14,9.2305 -8.17,14.1211 -6.38,9.5508 -14.31,19.4492 -23.89,28.6287 -9.68,9.082 -20.01,16.449 -29.86,22.352 -5,2.828 -9.77,5.508 -14.48,7.539 -4.57,2.32 -9.07,3.918 -13.12,5.512 -16.39,5.957 -27.18,7.636 -27.04,8.25"
         style="fill:#17282f;fill-opacity:1;fill-rule:nonzero;stroke:none"
         id="path218" /><path
         d="m 2999.27,3422.32 -42.95,143.41 c 41.79,49.16 55.77,92.7 66.28,161.15 30.23,196.87 -104.85,380.96 -301.72,411.19 -196.86,30.23 -380.96,-104.85 -411.19,-301.71 -30.23,-196.86 104.85,-380.96 301.72,-411.19 82.2,-12.63 162.13,3.66 229.61,41.14 l 22.69,17.35 135.56,-61.34"
         style="fill:#ffffff;fill-opacity:1;fill-rule:nonzero;stroke:none"
         id="path220" /><path
         d="m 2728.08,3828.95 h -22.22 l -48.48,67.57 v 44.34 c 0,0 -34.33,2.11 -30.3,-55.95 4.05,-58.07 -0.32,-43.28 -0.32,-43.28 0,0 -72.91,-0.28 -78.98,-6.61 -4.4,-4.61 -6.39,-77.03 -7.15,-116.31 -0.38,-19.77 11.74,-38.16 30.13,-42.83 2.61,-0.67 5.26,-1.06 7.85,-1.06 18.18,0 111.1,14.78 111.1,14.78 h 38.37 v 139.35"
         style="fill:#f03d5f;fill-opacity:1;fill-rule:nonzero;stroke:none"
         id="path222" /><path
         d="m 2791.67,3841.13 -13.66,-151.94 h -38.05 v 148.88 l 51.71,3.06"
         style="fill:#f03d5f;fill-opacity:1;fill-rule:nonzero;stroke:none"
         id="path224" /><path
         d="m 2666.12,4146.31 c 0,0.14 -2.12,0.17 -6.28,0.1 -4.57,-0.12 -10.68,-0.3 -18.47,-0.52 -4.06,-0.19 -8.62,-0.18 -13.62,-0.6 -4.99,-0.71 -10.43,-1.47 -16.29,-2.29 -5.91,-0.85 -12.26,-1.76 -19.02,-2.73 -6.67,-1.66 -13.75,-3.41 -21.24,-5.27 -29.85,-7.68 -66.01,-20.79 -102.98,-44.9 -36.94,-23.71 -75.33,-57.63 -106.49,-103.71 -30.58,-46.15 -54.16,-104.21 -60.41,-169.41 -0.62,-16.32 -2.58,-32.92 -1.01,-49.79 0.59,-8.42 0.42,-16.98 1.65,-25.47 1.28,-8.49 2.57,-17.03 3.86,-25.65 6.96,-34.02 17.08,-68.86 34.61,-101.32 17.12,-32.54 39.21,-63.5 66.18,-91.07 27.49,-27 59.61,-50.44 95.35,-68.5 35.64,-18.2 75.12,-30.78 116.23,-35.67 10.18,-2.02 20.6,-2.01 30.99,-2.63 10.4,-0.68 20.85,-1.07 31.34,-0.58 20.96,0.86 41.99,3.49 62.76,7.93 45.15,9.61 87.65,27.99 124.96,52.59 l -3.79,-0.39 c 43.32,-17.38 85.81,-34.43 127.28,-51.08 l 7.54,-3.03 -2.15,7.82 c -12.84,46.72 -25.33,92.14 -37.41,136.08 l -0.65,-3.36 c 35.72,47.47 58.49,101.67 67.92,155.49 4.73,26.89 6.73,53.73 4.96,79.66 -0.56,12.99 -1.19,25.81 -3.63,38.26 -0.96,6.25 -1.92,12.45 -2.88,18.62 -1.14,6.13 -3.01,12.05 -4.45,18.02 -24.59,95.79 -83.59,166.53 -142.01,207.02 -29.25,20.6 -58.09,35.37 -84.51,44.58 -6.58,2.36 -12.93,4.63 -19.04,6.82 -6.27,1.59 -12.29,3.12 -18.06,4.59 -5.77,1.43 -11.28,2.79 -16.54,4.09 -5.3,1.03 -10.42,1.56 -15.21,2.3 -9.63,1.23 -18.08,2.89 -25.49,3.26 -7.3,0.24 -13.52,0.45 -18.7,0.63 -4.74,0.1 -8.51,0.18 -11.43,0.25 -2.57,0.01 -3.87,-0.03 -3.87,-0.14 0,-0.11 1.3,-0.29 3.86,-0.53 2.91,-0.23 6.66,-0.53 11.38,-0.9 5.15,-0.34 11.34,-0.76 18.58,-1.25 7.35,-0.58 15.73,-2.43 25.25,-3.84 37.46,-6.87 93.61,-21.8 150.98,-63.75 57.29,-40.51 114.79,-110.58 138.44,-204.73 1.39,-5.87 3.19,-11.7 4.28,-17.72 0.91,-6.05 1.82,-12.15 2.74,-18.29 2.35,-12.23 2.89,-24.81 3.37,-37.57 1.66,-25.45 -0.42,-51.76 -5.15,-78.09 -9.44,-52.71 -31.9,-105.71 -66.99,-152.11 l -1.15,-1.51 0.51,-1.85 c 11.99,-43.97 24.38,-89.42 37.14,-136.15 l 5.38,4.8 c -41.46,16.69 -83.94,33.79 -127.23,51.23 l -1.99,0.8 -1.81,-1.19 c -36.5,-24.02 -78.04,-41.96 -122.16,-51.35 -20.3,-4.35 -40.86,-6.92 -61.35,-7.77 -10.26,-0.48 -20.47,-0.1 -30.64,0.56 -10.16,0.61 -20.36,0.58 -30.31,2.56 -40.19,4.75 -78.79,17 -113.66,34.75 -34.97,17.62 -66.43,40.48 -93.4,66.85 -26.45,26.94 -48.14,57.19 -65,88.99 -17.28,31.73 -27.28,65.83 -34.22,99.14 -1.31,8.44 -2.6,16.82 -3.89,25.13 -1.24,8.32 -1.09,16.72 -1.71,24.97 -1.63,16.55 0.26,32.84 0.77,48.86 5.84,64.02 28.67,121.17 58.44,166.79 30.36,45.56 67.91,79.31 104.15,103.08 36.26,24.18 71.85,37.59 101.3,45.67 7.4,1.98 14.4,3.84 20.98,5.59 6.7,1.1 12.97,2.13 18.82,3.09 5.8,0.96 11.18,1.84 16.13,2.66 4.96,0.55 9.49,0.68 13.52,1 7.75,0.57 13.83,1.01 18.38,1.34 4.14,0.35 6.26,0.59 6.26,0.74"
         style="fill:#17282f;fill-opacity:1;fill-rule:nonzero;stroke:none"
         id="path226" /></g></g></svg>
